<svg width="693" height="174" viewBox="0 0 693 174" fill="none" xmlns="http://www.w3.org/2000/svg">
<path d="M125.746 76.4423C121.132 78.5769 116.344 80.4808 111.672 82.5577C86.0035 93.8654 61.6618 107.481 38.9928 123.231C55.8359 103.558 76.8321 89.25 100.309 77.25C117.036 68.7115 117.555 67.3846 111.96 50.9423C109.653 45.2885 109.941 39.0577 112.71 33.5769C114.383 39.9808 117.555 45.9808 121.997 51.2308C125.458 55.3846 128.342 59.8846 130.592 64.6731C132.783 69.9808 131.341 73.9615 125.804 76.5M137.052 15.8077C122.689 9.86538 106.769 7.84616 91.1372 9.8077C103.943 14.25 117.209 17.4231 129.842 22.2115C139.071 25.6154 147.954 29.7692 156.318 34.7308C158.567 36.1154 161.74 37.6731 161.163 40.4423C160.528 43.4423 157.529 44.9423 154.472 45.8654C152.049 46.6154 149.511 47.0192 146.166 47.7692C156.664 56.0769 166.527 64.0962 169.238 76.7885C158.221 63.9808 144.608 53.1923 129.092 45.1731C132.668 43.1538 140.744 44.6538 145.358 43.6731C146.973 43.3269 149.8 42.6346 150.261 40.6154C150.78 38.4808 148.358 37.3269 146.742 36.4038C140.57 32.9423 133.937 30.1154 127.073 28.0385C110.691 23.1923 93.6175 19.7308 78.9086 11.3077C73.5442 7.96154 68.4682 4.21154 63.9114 0C62.0655 8.07692 73.7173 10.4423 70.2564 13.3269C69.7372 13.6731 69.1604 14.0192 68.5836 14.25H68.5259C68.5259 14.25 68.1798 14.4231 67.9491 14.5385C67.6607 14.6538 67.43 14.7115 67.1992 14.8269C64.8343 15.75 62.1809 16.3269 59.989 17.3654C15.6894 37.6731 -2.1343 86.8846 20.1886 127.212C22.6689 131.712 25.6106 135.981 28.9562 139.962C32.3594 144.058 34.7244 145.096 40.0888 141.981C69.2181 125.365 99.2703 108.808 132.495 99.8654C149.742 95.25 167.969 94.5577 185.562 97.9615C189.369 98.6539 189.658 95.0769 189.773 93C191.157 59.8269 170.219 29.3077 136.936 15.8077" fill="#E25511"/>
<path d="M170.219 109.846C156.433 108.981 142.532 110.654 129.496 114.866C91.4257 125.769 48.9719 141.116 15.1126 160.616C10.0943 163.5 4.90295 167.539 0 170.596C10.5558 166.673 26.649 161.885 37.0894 157.731C41.0694 155.885 45.7994 156.346 49.2603 158.885C93.5022 186.115 150.55 172.731 178.064 131.25C178.987 129.808 179.794 128.308 180.602 126.865C185.966 116.827 182.678 111 170.219 109.846Z" fill="#E25511"/>
<path d="M587.201 99.1743H571.05L570.935 99.0012L583.048 78.8089C583.048 78.8089 583.163 78.7512 583.221 78.8089C583.221 78.8089 583.278 78.8089 583.278 78.9243L587.259 99.1166L587.143 99.2897M433.94 91.9627H422.231L426.211 72.982H435.728C442.246 72.982 446.342 75.405 446.342 81.1743C446.342 87.982 441.785 91.905 433.883 91.905M347.648 111.636C337.266 111.636 331.094 105.29 331.094 95.9435C331.094 82.6743 339.169 71.3089 353.186 71.3089C363.569 71.3089 369.74 77.655 369.74 87.0012C369.74 100.27 361.665 111.636 347.648 111.636ZM259.857 111.636H246.59L254.55 73.2127H265.394C276.873 73.2127 283.045 78.5204 283.045 87.9243C283.045 101.251 274.969 111.636 259.857 111.636ZM646.267 75.5204C646.267 72.7512 650.362 70.0973 658.726 70.0973C666.917 70.0397 674.993 72.1166 681.914 76.0974L692.182 56.3089C682.549 51.405 671.589 49.0397 660.514 49.3858C633.808 49.3858 617.772 61.3858 617.772 79.6743C617.772 104.655 657.976 99.6935 657.976 108.232C657.976 111.117 654.112 112.963 646.728 112.963C636.865 113.251 627.059 110.944 618.58 106.386L618.349 106.27C616.619 105.174 615.35 103.559 614.888 101.655L605.544 64.4435C603.755 57.1743 596.661 51.982 588.47 51.982H574.395L537.306 107.828L531.307 102.347C527.039 108.059 520.002 111.52 512.445 111.693C503.389 112.213 495.602 105.982 495.025 97.732C495.025 97.0974 495.025 96.5204 495.025 95.8858C495.025 81.4627 504.427 71.3666 517.867 71.3666C525.078 71.2512 531.653 74.9435 534.768 80.8281L555.303 65.482C549.131 55.0974 535.864 49.3281 519.655 49.3281C499.582 49.3281 483.258 57.5781 474.145 70.9627C470.741 58.8474 458.743 51.9243 439.997 51.9243H402.042L397.082 75.6358C392.755 59.7704 377.528 49.3281 355.493 49.3281C334.67 49.3281 317.827 58.2127 309.002 72.6935C303.349 59.5974 288.928 51.982 268.567 51.982H230.381L213.48 132.982H258.761C279.295 132.982 295.965 124.963 304.791 111.174C310.386 124.905 324.864 133.732 345.11 133.732C364.088 133.732 379.777 126.29 389.122 114.059L385.142 133.04H413.636L417.847 112.674H424.827L436.767 133.04H466.357L452.225 109.443C457.59 107.54 462.377 104.54 466.3 100.674C467.8 120.405 484.239 133.04 509.215 133.04C513.426 133.04 518.271 133.155 523.116 133.04H551.034L558.937 119.02H559.052L591.123 118.963L591.239 119.078L594.007 132.982L594.123 133.097H621.406C628.789 133.501 636.807 133.501 643.21 133.501C669.57 133.501 686.471 121.732 686.471 103.79C686.471 78.9243 646.152 84.5781 646.152 75.6935" fill="#E25511"/>
</svg>
