<svg width="96" height="27" viewBox="0 0 96 27" fill="none" xmlns="http://www.w3.org/2000/svg">
<path d="M15.3413 6.92648C15.6955 6.99194 15.7461 7.45021 15.6955 7.77754C15.6575 8.02303 14.9365 10.2652 14.8226 10.478C14.7847 10.5598 14.7467 10.6089 14.6708 10.6744C14.051 11.1327 8.15631 10.5762 7.00519 10.789C6.8787 10.8217 6.09442 13.244 6.08177 13.4404C6.08177 13.5386 6.15767 13.7022 6.23357 13.7022H19.8951C20.0343 13.7022 20.6541 13.1785 20.7553 12.9985C20.8945 12.753 21.0209 12.3274 21.0083 12.0328C20.9577 11.149 19.465 8.61223 19.1109 7.53204C17.9724 4.04597 20.2114 0.445341 23.5762 0.134377L42.209 0.167111C42.4367 0.298043 42.6265 0.478073 42.6138 0.77267C42.6138 1.03453 41.6904 3.80048 41.5639 3.89867C41.0706 4.24237 38.4774 3.84957 37.6805 4.01324C37.554 4.02961 37.4781 4.06234 37.4148 4.19327L33.1013 17.4665C32.9369 17.5647 32.7598 17.5647 32.5827 17.5811C31.7099 17.6629 29.8504 17.6793 29.0028 17.5811C28.6866 17.5483 28.383 17.4502 28.3957 17.0574L32.3044 4.01324H24.664C24.664 4.01324 24.1834 4.30784 24.1201 4.35693C22.7792 5.60079 24.6387 8.05577 25.17 9.43056C26.6753 13.3258 25.0815 16.8446 21.1854 17.5647H0.705692C0.161759 17.6138 -0.0785837 17.3356 0.0226131 16.73L5.3481 0.298039C5.47459 0.167107 5.74023 0.167107 5.91733 0.150741C9.52246 -0.17659 13.5577 0.412605 17.2008 0.150741C17.9471 0.167107 17.9724 0.510806 17.8459 1.21457C17.7827 1.591 17.0616 3.73501 16.8592 3.88231L9.18092 4.02961C9.07973 4.04598 9.06708 4.1278 9.01648 4.20964C8.95323 4.3242 8.2575 6.53368 8.2575 6.66461C8.2575 6.76281 8.3334 6.92648 8.4093 6.92648H15.3539H15.3413Z" fill="#060707"/>
<path d="M46.5964 0.164062H50.796C51.0237 0.164062 51.1502 0.393195 51.2388 0.605959L52.2507 16.9234C52.2507 17.1852 52.061 17.4307 51.8333 17.5126C51.4665 17.6435 48.6962 17.6271 48.1902 17.5617C46.8873 17.398 47.8107 14.7139 47.2036 13.8301C45.3061 13.961 43.1177 13.6173 41.2456 13.8137C41.0559 13.8301 40.8914 13.8137 40.7523 13.9938C40.1577 14.5502 38.6651 17.218 38.1338 17.4798C37.8302 17.6271 35.4394 17.6108 34.9587 17.578C34.4781 17.5453 34.1618 17.4471 34.263 16.8252C38.2729 11.2278 42.3841 5.61411 46.5837 0.180426L46.5964 0.164062ZM47.0518 9.95124L46.9379 6.4979C46.9253 6.31787 46.8494 6.20331 46.6723 6.20331C46.4572 6.20331 44.0159 9.42751 44.0159 9.65664C44.0159 9.75484 44.1171 9.95124 44.1803 9.95124H47.0518Z" fill="#060707"/>
<path d="M75.2256 0.277624C75.3774 0.441289 75.3901 0.850449 75.3142 1.07958C73.5559 6.07137 72.2277 11.2268 70.482 16.2186C70.229 16.9551 70.267 17.4952 69.4574 17.5607C68.6478 17.6261 66.6239 17.6752 65.8649 17.5607C65.5487 17.5116 65.4475 17.4134 65.321 17.086L67.3323 10.0648C67.1678 10.0321 67.0793 10.0812 66.9528 10.1794C65.9788 10.8668 64.7518 13.1581 63.803 13.6818C63.3856 13.9109 61.7032 13.96 61.4376 13.4527C61.0707 12.7653 60.9948 11.0959 60.6786 10.2939C60.3623 9.49197 60.1599 10.0648 59.9955 10.4903C59.1733 12.7162 58.642 15.1712 57.7692 17.3806C57.6427 17.5116 57.377 17.5116 57.1999 17.5279C56.6687 17.577 53.6581 17.5934 53.3545 17.4625C53.2533 17.4134 53.1521 17.2661 53.0762 17.1679L58.4143 0.212157C58.642 0.0484913 61.3237 0.0321268 61.5894 0.163059C61.6779 0.212159 61.7411 0.310357 61.8044 0.392189C62.5254 2.51984 62.8417 4.84388 63.4868 7.00426C63.588 7.33159 63.6386 7.72439 63.9169 7.93716C66.2191 5.43308 68.4201 2.81443 70.6465 0.22852C70.773 0.130321 70.9121 0.113958 71.0639 0.0975914C71.9114 -0.0169742 73.7836 0.0157588 74.6437 0.0975914C74.8082 0.0975914 75.0865 0.113958 75.213 0.24489L75.2256 0.277624Z" fill="#060707"/>
<path d="M79.5997 11.1497C79.1443 12.0662 77.9932 17.058 77.4745 17.4508C77.348 17.549 77.2848 17.549 77.1456 17.5654C76.3867 17.6799 74.2362 17.6472 73.452 17.5654C73.0851 17.5163 72.908 17.4672 72.8574 17.0253L78.1703 0.315056C78.3473 0.151391 78.5371 0.15139 78.7648 0.135024C80.6875 -0.0450079 84.4318 -0.0450079 86.3545 0.135024C90.2759 0.511454 92.0342 4.83221 90.0103 8.40011C87.7586 12.3608 83.1795 10.806 79.5997 11.1333V11.1497ZM80.9911 7.27083H85.1655C85.3046 7.27083 86.013 6.82893 86.1395 6.68163C87.1009 5.68327 86.6075 4.14482 85.2793 3.99752C84.8745 3.94842 81.9525 3.91569 81.8513 4.06298C81.8007 4.55398 80.7002 7.05806 80.9911 7.27083Z" fill="#060707"/>
<path d="M91.9462 3.64917C91.592 3.64917 91.8576 3.96014 91.5161 3.8783C91.3643 3.48551 91.7058 3.22364 91.9462 3.40367C91.9462 3.48551 91.9462 3.56734 91.9462 3.6328C92.0221 3.6328 92.0853 3.6328 92.1612 3.6328C92.1865 3.8783 92.1612 3.89467 91.9462 3.86193C91.9462 3.7801 91.9462 3.69827 91.9462 3.6328V3.64917Z" fill="#FBF5EC"/>
<path d="M15.1746 22.3569C15.301 22.4878 14.327 25.3683 14.1246 25.712C13.7957 26.2685 12.9482 26.5303 12.4043 26.2194C11.8857 25.9248 12.3284 25.5647 12.8217 25.8757C12.9229 25.9411 12.8976 26.0884 12.8976 26.1048C13.1127 26.2521 13.1127 25.9248 13.138 25.9084C13.5681 25.6793 13.7957 25.7938 13.9728 25.1064C13.4163 25.0737 12.7711 25.5156 12.6193 24.6973C12.4928 24.0262 13.1253 22.5042 13.821 22.3732C14.3144 22.275 14.5421 22.5533 14.6812 22.5533C14.7824 22.5533 14.9722 22.275 15.1619 22.3569H15.1746ZM14.5168 22.8315C13.6186 22.0786 12.7079 24.3863 13.2265 24.7464C13.9602 25.2374 14.7192 23.4698 14.5168 22.8315Z" fill="#D8672B"/>
<path d="M6.72481 23.4058C6.69951 23.504 6.75011 23.7168 6.69951 23.8968C6.64891 24.1096 6.38327 24.977 6.30737 25.0915C6.20617 25.2225 5.78874 25.2552 5.86463 24.9934C6.10498 24.5515 6.91455 21.3109 7.079 21.2127C7.15489 21.1636 7.49643 21.1636 7.49643 21.2618L6.9525 23.0785H8.52105C8.69815 23.0785 8.98909 21.54 9.16618 21.3272C9.39387 21.0654 9.59627 21.1309 9.54567 21.4909C9.50772 21.7855 8.52105 24.9115 8.4072 25.0588C8.30601 25.1897 8.09096 25.2389 8.02772 25.1734C7.82532 24.9606 8.49575 23.7004 8.4578 23.4222C8.4578 23.3731 8.4578 23.324 8.4072 23.3076C8.11626 23.3567 6.8007 23.1767 6.72481 23.4222V23.4058Z" fill="#D8672B"/>
<path d="M24.2697 22.391C24.2697 22.391 24.2571 22.6365 24.3456 22.5874C24.4595 22.5383 24.586 22.2601 24.839 22.3583C24.8643 22.5874 24.801 22.8002 24.7504 23.0129C24.5986 23.684 24.0673 25.5007 23.7891 26.0571C23.6752 26.3026 23.612 26.3681 23.3337 26.319L23.6626 25.026C21.9675 25.6807 22.1193 23.9622 22.8024 22.8984C23.0554 22.5056 23.9029 22.0964 24.295 22.3747L24.2697 22.391ZM24.1685 22.8329C24.0294 22.5874 23.3969 22.7838 23.2072 22.9802C22.8656 23.3403 22.4102 24.7478 23.1566 24.7805C23.8523 24.7969 24.4089 23.2257 24.1685 22.8329Z" fill="#D8672B"/>
<path d="M60.0682 21.1811C60.0808 21.312 60.0682 21.4266 60.0429 21.5575C59.8278 22.3922 59.17 23.6197 58.9929 24.3071C58.9423 24.5198 59.0562 24.7326 58.8917 24.9945C58.664 25.3382 58.5249 24.9781 58.3984 24.9781C58.3478 24.9781 58.1707 25.1581 57.9683 25.1745C56.2353 25.3873 57.437 22.5395 58.2972 22.3595C58.8411 22.2449 59.1194 22.5886 59.1574 22.5886C59.423 22.5886 59.461 20.8046 60.0808 21.1811H60.0682ZM58.9676 22.8341C58.8032 22.5559 58.2213 22.7523 58.0063 22.9978C57.7912 23.2433 57.3358 24.4053 57.5762 24.6344C58.3605 25.4527 59.2712 23.3578 58.9676 22.8341Z" fill="#D8672B"/>
<path d="M17.7817 21.1804L17.4528 22.457C17.8702 22.2934 18.8063 22.1952 18.8695 22.8662C18.8822 23.0135 18.3129 24.9447 18.2244 25.0757C18.1485 25.1902 17.8449 25.2066 17.7817 25.0757C17.9714 24.3228 18.3762 23.6027 18.3256 22.8007C16.8456 22.3916 17.1492 24.2737 16.6432 25.0102C16.5546 25.1411 16.3269 25.1902 16.2637 25.1248C16.074 24.912 17.3263 21.7205 17.3642 21.1641H17.7817V21.1804Z" fill="#D8672B"/>
<path d="M47.3818 21.1839C47.4956 21.3149 46.9517 22.4278 47.0529 22.5914C47.3438 22.1332 48.3811 22.4769 48.4444 22.9024C48.4823 23.1479 48.1155 23.9171 48.0269 24.1626C47.8498 24.6536 47.951 25.2101 47.3818 25.0464C47.4577 24.5882 48.1281 23.2134 47.9131 22.8369C46.6608 22.1332 46.4457 24.9646 46.1674 25.1446C46.0662 25.2101 45.8765 25.1446 45.75 25.161C46.2054 24.0972 46.4204 22.4441 46.9138 21.4458C47.0023 21.2821 47.23 21.0366 47.3691 21.1839H47.3818Z" fill="#D8672B"/>
<path d="M31.4324 25.1377C30.7873 25.0068 29.1681 25.5633 29.6868 24.2376C30.0915 23.2065 31.9257 24.0248 31.6601 22.9937C31.4704 22.29 30.3572 23.141 30.256 23.0265C30.1927 22.3063 31.3692 22.2081 31.8119 22.3554C32.5709 22.6009 31.5589 24.614 31.4451 25.1214L31.4324 25.1377ZM31.4451 23.9921C31.1035 24.0248 30.2686 23.8448 30.1042 24.2539C29.7247 25.2032 31.4071 24.8595 31.4451 23.9921Z" fill="#D8672B"/>
<path d="M51.3917 25.1591C50.7719 24.9136 49.2286 25.6174 49.6081 24.3408C49.9876 23.0642 51.5308 24.4554 51.6194 23.0151C51.3031 22.3605 49.7725 23.5552 50.3418 22.6714C50.5948 22.2786 51.2525 22.2786 51.6826 22.3768C52.606 22.5569 51.5182 24.6027 51.4043 25.1755L51.3917 25.1591ZM51.2905 23.9971C50.9742 23.9971 50.2153 23.9153 50.0382 24.2262C49.5575 25.11 51.4802 24.9791 51.2905 23.9971Z" fill="#D8672B"/>
<path d="M55.7044 22.488C55.9701 22.8154 55.2996 25.0576 55.1858 25.1394C55.1225 25.1722 54.9707 25.1394 54.8695 25.1394C54.7177 24.4193 55.4641 23.5519 55.3123 22.8809C55.249 22.5863 54.5027 22.7826 54.3256 22.979C53.9841 23.3391 53.8576 24.6975 53.5793 25.074C53.4907 25.1885 53.1618 25.1722 53.1366 25.1394C53.0354 25.0412 53.9714 22.7008 54.022 22.3408C54.4395 22.4881 55.4641 22.1607 55.7171 22.4717L55.7044 22.488Z" fill="#D8672B"/>
<path d="M27.0009 22.3609C27.1906 22.5573 26.457 24.1285 26.457 24.4067C26.457 24.6358 26.7353 24.7831 26.925 24.7831C27.9117 24.7504 27.8484 22.9992 28.2532 22.4755C28.3544 22.3445 28.5694 22.2954 28.6327 22.3609C28.7212 22.4591 28.0635 24.5867 27.9496 24.8486C27.6207 25.6015 27.4183 24.9304 27.3804 24.9468C27.0136 25.1105 26.963 25.2905 26.4064 25.1759C25.6474 25.0123 26.4064 22.8028 26.672 22.4427C26.7606 22.3282 26.9756 22.3445 27.0009 22.3773V22.3609Z" fill="#D8672B"/>
<path d="M40.9819 22.3552C40.9819 22.3552 41.3994 22.3388 41.412 22.3552C41.5259 22.4698 41.1843 24.1228 41.3108 24.4665C41.7409 24.1064 42.2469 22.6989 42.6137 22.4207C42.7529 22.3225 42.9932 22.2734 42.9426 22.5352C42.9047 22.7316 41.1084 25.6612 40.8808 25.9231C40.7037 26.1359 40.0965 26.545 39.9067 26.3323C39.6284 26.0213 40.2989 25.9231 40.4507 25.8085C40.5013 25.7758 40.9946 25.1539 40.9946 25.1048C40.9946 24.7284 40.9061 22.4534 40.9946 22.3552H40.9819Z" fill="#D8672B"/>
<path d="M68.7214 23.7798C68.9617 24.2381 68.3798 24.9746 67.9877 25.1055C67.4817 25.2692 66.2926 25.2691 66.5709 24.4508C66.8998 24.2872 67.2414 24.9418 67.3805 24.9255C67.7474 24.86 68.481 24.4999 68.3166 23.9926C66.1409 24.2217 67.0137 21.9958 68.6961 22.3559C69.1262 22.4541 69.1894 22.9451 68.8352 22.9124C68.481 22.8796 68.0889 22.4377 67.6209 22.9287C66.8998 23.698 68.5316 23.387 68.734 23.7634L68.7214 23.7798Z" fill="#D8672B"/>
<path d="M65.2681 23.864C65.0278 23.684 63.9399 23.6676 63.7502 23.864C63.4592 24.1914 63.649 24.6987 64.0537 24.7806C64.2435 24.8133 64.332 24.6987 64.4079 24.6824C65.1543 24.6005 64.8633 24.8788 64.4079 25.157C64.0158 25.157 63.396 25.2879 63.2442 24.7315C62.9406 23.6022 64.1676 21.8346 65.2808 22.4238C65.597 22.5875 65.6223 23.7986 65.2808 23.8804L65.2681 23.864ZM63.7502 23.5204C64.1676 23.4385 65.2302 23.7822 65.1416 23.1439C65.0278 22.2438 63.902 22.8821 63.7502 23.5204Z" fill="#D8672B"/>
<path d="M39.247 22.3561L39.7909 22.5361C39.6517 22.798 39.2849 22.6507 39.1331 22.7653C39.0699 22.8144 38.6145 24.271 38.6018 24.4183C38.5765 24.942 38.8928 24.7784 38.9181 25.1711H38.1591C37.944 24.4347 38.5892 23.4854 38.6018 22.8798C38.6018 22.6507 38.2476 22.7162 38.3741 22.3561C38.9434 22.5034 38.8295 22.0451 39.0825 21.6523C39.8162 21.6523 39.1458 22.2579 39.247 22.3561Z" fill="#D8672B"/>
<path d="M62.2334 21.1758C62.2334 21.3067 62.2334 21.4376 62.2081 21.5522C62.0943 22.125 61.1582 24.2363 61.2721 24.5964C61.3353 24.7928 61.7148 24.7273 61.5883 25.1365C60.5384 25.2347 60.7155 24.7109 60.9432 23.9254C61.2088 23.0088 61.6389 22.1414 61.816 21.1758H62.2334Z" fill="#D8672B"/>
<path d="M34.8073 21.182C34.9211 21.2966 33.9218 23.997 33.8333 24.4062C33.7068 24.7335 34.2633 24.8645 34.2633 24.979C34.2633 25.1263 33.2008 25.6173 33.4285 24.308C33.4791 23.997 34.3139 21.3948 34.4278 21.2802C34.5163 21.1984 34.7567 21.1165 34.8199 21.182H34.8073Z" fill="#D8672B"/>
<path d="M36.8709 22.3589C36.8962 22.5225 36.8582 22.6535 36.8076 22.8171C36.6432 23.3572 36.2764 24.5847 36.036 25.0102C35.9475 25.1575 35.9728 25.2394 35.7324 25.1575C35.4921 25.0757 35.6439 24.9448 35.6565 24.8466C35.7071 24.5683 36.327 22.5553 36.4282 22.4243C36.542 22.277 36.7191 22.3752 36.8709 22.3589Z" fill="#D8672B"/>
<path d="M11.4956 22.3589C11.5968 22.4571 10.724 24.9775 10.6355 25.0921C10.5469 25.2066 10.3319 25.1903 10.3066 25.1575C10.2054 25.0593 10.9264 22.6044 11.0529 22.4243C11.1541 22.277 11.3565 22.3752 11.4956 22.3589Z" fill="#D8672B"/>
<path d="M37.3005 21.1811C37.3258 21.5084 37.3511 21.7048 37.0096 21.7376C36.3392 21.7867 36.7819 21.0174 37.3005 21.1811Z" fill="#D8672B"/>
<path d="M11.9242 21.1843C12.1392 21.4134 11.4814 21.9862 11.279 21.7735C11.0767 21.5607 11.7218 20.9715 11.9242 21.1843Z" fill="#D8672B"/>
<path d="M8.45956 23.4042H6.72656C6.80246 23.1587 8.11802 23.3387 8.40896 23.2896C8.47221 23.306 8.45956 23.3551 8.45956 23.4042Z" fill="#D8672B"/>
<path d="M65.2699 23.8638C64.8778 23.9619 64.182 23.7984 63.752 23.8638C63.9417 23.6675 65.0296 23.6839 65.2699 23.8638Z" fill="#D8672B"/>
<path d="M31.4454 23.9964C31.4074 24.8639 29.725 25.2075 30.1045 24.2583C30.269 23.8491 31.1039 24.0292 31.4454 23.9964Z" fill="#FBF5EC"/>
<path d="M94.0103 3.88375C93.4284 3.91649 92.8718 3.93285 92.3785 3.54005C92.3658 3.54005 92.0622 3.21272 92.0496 3.19636C91.8852 2.91813 91.8978 2.41077 91.7207 2.1489C92.1381 -1.25533 96.1734 0.135821 95.1614 2.8854C94.9084 3.55642 94.5416 3.68735 93.9976 3.91648L94.0103 3.88375ZM94.1115 2.95086C93.9217 2.11617 94.1747 2.3453 94.4151 1.93614C94.8958 1.11781 93.5169 0.855949 93.1248 1.13418C93.0489 1.19965 92.5176 2.8854 92.5935 2.95086C92.6315 2.9836 92.9477 2.95086 93.0363 2.90176C93.2513 2.75446 93.1881 1.73974 93.5802 2.5417C93.7446 2.85266 93.5422 3.04906 94.1115 2.95086Z" fill="#DE5B1D"/>
<path d="M94.0096 3.88155C93.5289 4.07795 93.5668 4.01248 93.1115 4.11068C93.0356 4.12705 93.0482 4.32344 92.9597 4.33981C92.2639 4.51984 92.2386 4.12705 92.3778 3.52148C92.8585 3.91428 93.415 3.89791 94.0096 3.86518V3.88155Z" fill="#FBF5EC"/>
<path d="M92.0604 3.17832H91.3014C91.2002 2.76915 91.6682 3.01465 91.7315 2.94919C91.7694 2.91645 91.7062 2.29452 91.7315 2.13086C91.9086 2.40909 91.8959 2.90008 92.0604 3.17832Z" fill="#FBF5EC"/>
<path d="M94.1112 2.94588C93.5419 3.04408 93.7317 2.84768 93.5799 2.53671C93.1751 1.73475 93.2384 2.74947 93.036 2.89677C92.9474 2.96224 92.6312 2.97861 92.5932 2.94588C92.53 2.88041 93.0486 1.19466 93.1245 1.12919C93.5166 0.850961 94.8955 1.09646 94.4148 1.93115C94.1744 2.34031 93.9214 2.11118 94.1112 2.94588ZM93.466 1.89841L94.1112 1.60382C93.8329 1.24375 93.3775 1.40742 93.466 1.89841Z" fill="#FBF5EC"/>
<path d="M93.4644 1.90123C93.3758 1.41024 93.8312 1.24657 94.1095 1.60663L93.4644 1.90123Z" fill="#D8672B"/>
</svg>
