<?xml version="1.0" encoding="UTF-8"?>
<svg id="Capa_1" xmlns="http://www.w3.org/2000/svg" version="1.1" viewBox="0 0 130 143.67">
  <!-- Generator: Adobe Illustrator 29.6.1, SVG Export Plug-In . SVG Version: 2.1.1 Build 9)  -->
  <defs>
    <style>
      .st0 {
        fill: #020202;
      }

      .st1 {
        fill: #fff;
      }
    </style>
  </defs>
  <polygon class="st1" points="34.5 135.24 30.23 135.24 32.69 129.37 34.5 135.24"/>
  <polygon class="st0" points="96.55 141.6 93.19 141.6 99.79 123.85 102.77 123.85 109.38 141.6 105.62 141.6 104.2 137.76 97.85 137.76 96.55 141.6"/>
  <polygon class="st1" points="99.02 135.24 101.28 129.37 103.55 135.24 99.02 135.24"/>
  <polygon class="st0" points="62.94 123.85 62.94 126.85 67.28 126.85 67.28 138.78 62.94 138.78 62.94 141.6 74.66 141.6 74.66 138.78 70.39 138.78 70.39 126.79 74.66 126.79 74.66 123.85 62.94 123.85"/>
  <polygon class="st0" points="94.35 124.15 94.35 126.91 88.85 126.91 88.85 141.6 85.16 141.6 85.16 126.85 79.65 126.85 79.65 124.15 94.35 124.15"/>
  <polygon class="st0" points="48.04 124.15 45.06 124.15 45.06 141.6 48.04 141.6 48.04 130.81 48.49 130.81 55.49 141.6 57.95 141.6 57.95 124.15 55.17 124.15 55.17 134.7 54.39 134.7 48.04 124.15"/>
  <g>
    <polygon class="st0" points="27.86 141.9 24.49 141.9 31.1 124.15 34.08 124.15 40.69 141.9 36.93 141.9 35.51 138.06 29.16 138.06 27.86 141.9"/>
    <polygon class="st1" points="30.32 135.54 32.59 129.67 34.86 135.54 30.32 135.54"/>
  </g>
  <polygon class="st0" points="113.59 123.85 116.44 123.85 116.44 138.9 124.6 138.9 124.6 141.6 113.59 141.6 113.59 123.85"/>
  <polygon class="st0" points="8.08 141.9 5.1 141.9 5.1 124.15 8.08 124.15 11.96 133.99 13.13 133.99 17.01 124.15 19.86 124.15 19.86 141.9 16.63 141.9 16.63 131.71 13.84 138.48 10.67 138.48 8.14 131.65 8.08 141.9"/>
  <path d="M92.34,24.46c32.47-5.18,45.82,33.73,16.6,47.5,12.31,19.92-7.97,43.18-31.72,36.14-4.6-1.36-7.93-4.24-11.63-6.87-2.83,1.69-5.19,4.05-8.26,5.44-20.82,9.44-43.56-7.22-38.3-28.08.68-2.71,2.19-4.79,2.63-7.43C-7.73,58.59,6.62,19.19,38.29,24.27c5.47-29.87,49.28-29.85,54.04.19h0ZM82.86,14.47c-14.05-13.26-39.33-5.17-40.95,13.42C13.13,23.64.6,57.52,26.52,70.33c-9.29,17.69,4.71,36.14,26.02,33.07,4.89-.7,9.25-4.05,13.04-6.71,21,18.17,52.07-2.08,39.03-26.36,25.97-12.81,13.69-46.91-15.39-42.42-.08-4.8-2.76-10.04-6.36-13.44Z"/>
</svg>