<?xml version="1.0" encoding="UTF-8"?>
<svg xmlns="http://www.w3.org/2000/svg" xmlns:xlink="http://www.w3.org/1999/xlink" width="300" height="30.328" viewBox="0 0 300 30.328">
  <defs>
    <clipPath id="a">
      <rect width="300" height="30.328"></rect>
    </clipPath>
  </defs>
  <g clip-path="url(#a)">
    <path d="M283.062,19.035l8.126,10.693H300l-12.018-16.34L299.06.641H290.5L278.914,13.86V.641h-7.231V29.729h7.231v-5.9ZM249.177,14.8V7.015h5.347c2.781,0,5,1.5,5,3.85,0,2.4-2.223,3.935-5,3.935Zm4.492,6.5,6.244,8.426h8.727l-7.487-9.838a9.781,9.781,0,0,0,5.56-9.025c0-6.289-4.832-10.224-12.018-10.224H241.948v29.09h7.228V21.3ZM222.987,6.93h14.757V.641H215.759V29.729h21.986V23.44H222.987V18.394h12.876v-6.16H222.987ZM213,.641h-7.66l-5.431,18.051L193.749.641h-5.99V.728L181.6,18.735,176.168.641H168.51L177.921,29.9h6.972l5.861-17.753L196.615,29.9h6.97ZM154.94,0c-6.84,0-11.55,3.679-11.55,9.5,0,4.621,2.7,7.315,8.426,8.556l4.792,1.069c2.481.472,3.08,1.5,3.08,2.481,0,1.583-1.412,2.568-4.106,2.568-3.423,0-5.647-1.541-6.117-4.106h-7.228c.684,7.186,6.587,10.266,13.132,10.266,7.271,0,12.063-3.636,12.063-9.453,0-5.006-3.465-7.144-8.769-8.3l-4.064-.94c-2.182-.472-3.336-1.156-3.336-2.739,0-1.882,1.668-2.908,4.149-2.908,2.951,0,4.32,1.5,4.705,3.679h7.271C166.66,1.839,159.646,0,154.94,0M138.661.641h-7.228V17.024L117.4.641h-5.518V29.729h7.228V13.773l13.945,15.955h5.6ZM93.2,23.611a8.157,8.157,0,0,1-8.086-8.426,8.092,8.092,0,1,1,16.169,0A8.155,8.155,0,0,1,93.2,23.611M93.2.042A15.041,15.041,0,0,0,77.8,15.185a15.421,15.421,0,1,0,30.842,0A15.052,15.052,0,0,0,93.2.042m-18.936.6H68.879L58.57,16.169,48.218.641H42.871V29.729H50.1l-.044-14.673,6.5,10.052v.044h4.022v-.044l6.458-9.965V29.729h7.228Zm-37.131,0H29.909V29.729h7.228ZM12.7,0C5.861,0,1.156,3.679,1.156,9.5c0,4.621,2.695,7.315,8.426,8.556l4.79,1.069c2.481.472,3.08,1.5,3.08,2.481,0,1.583-1.412,2.568-4.106,2.568-3.423,0-5.645-1.541-6.117-4.106H0c.684,7.186,6.587,10.266,13.132,10.266,7.273,0,12.063-3.636,12.063-9.453,0-5.006-3.465-7.144-8.769-8.3l-4.064-.94c-2.18-.472-3.336-1.156-3.336-2.739,0-1.882,1.668-2.908,4.149-2.908,2.953,0,4.32,1.5,4.7,3.679h7.273C24.424,1.839,17.41,0,12.7,0"></path>
  </g>
</svg>
