<?xml version="1.0" encoding="UTF-8"?>
<svg id="Capa_1" xmlns="http://www.w3.org/2000/svg" version="1.1" viewBox="0 0 60 59">
  <!-- Generator: Adobe Illustrator 29.7.1, SVG Export Plug-In . SVG Version: 2.1.1 Build 8)  -->
  <defs>
    <style>
      .st0 {
        fill: #020202;
      }

      .st1 {
        fill: #fefefe;
      }

      .st2 {
        fill: #fdfdfd;
      }
    </style>
  </defs>
  <g>
    <polygon class="st2" points="32.51 51.69 33.66 55.45 35 51.69 36.78 51.69 36.78 57.13 35.57 57.13 35.57 52.83 34.17 57.09 33.2 57.13 31.74 52.7 31.74 57.13 30.67 57.13 30.67 51.69 32.51 51.69"/>
    <path class="st2" d="M27.31,53.3h-1.04c-.06,0-.18-.53-.32-.65-.61-.54-1.89.06-1.42.85.33.55,2.72.4,2.91,1.65.42,2.68-4.63,2.95-4.36.23h1.21c-.3,1.35,2.09,1.33,1.95.17-.07-.54-1.28-.64-1.74-.81-.83-.31-1.41-.74-1.26-1.73.29-1.93,4.29-1.94,4.08.29Z"/>
    <polygon class="st2" points="19.99 51.69 19.99 52.63 17.57 52.63 17.57 53.84 19.85 53.84 19.85 54.78 17.57 54.78 17.57 56.19 20.05 56.19 20.05 57.13 16.36 57.13 16.36 51.69 19.99 51.69"/>
    <path class="st2" d="M43.9,51.69v.94h-2.49v1.28h2.28v.87h-2.28v1.41l2.55.07v.87h-3.76v-5.34s.09-.1.1-.1h3.59Z"/>
    <path class="st2" d="M13.13,53.5h-1.21c-.06,0,.01-.83-.57-.94-1.61-.3-1.73,2.35-1.21,3.29.38.69,1.48.66,1.73-.09.05-.15.03-.45.05-.45h1.28c.02,1.7-1.73,2.28-3.14,1.76-2.01-.75-1.87-4.59.13-5.27,1.3-.44,3.04.1,2.94,1.7Z"/>
    <path class="st2" d="M51.43,53.5h-1.21s.01-.55-.37-.81c-.5-.33-1.11-.05-1.38.43-.38.68-.44,2.42.14,3.01.46.47,1.38.31,1.58-.35.04-.12.01-.41.03-.41h1.28c-.01,1.66-1.72,2.24-3.11,1.73-1.93-.7-1.91-4.14-.23-5.1,1.29-.74,3.31-.21,3.27,1.49Z"/>
  </g>
  <g>
    <path class="st0" d="M29.58.67c6.84-.17,12.54,1.59,15.84,7.9,4.76,9.12,4.72,21.83,0,30.97-3.37,6.52-9.53,8.24-16.53,7.93-7.33-.32-11.81-2.9-14.71-9.68-3.75-8.78-3.67-19.36.29-28.05C17.54,3,22.35.85,29.58.67ZM29.31,1.34c-7.29.25-11.56,2.57-14.14,9.5-3.06,8.21-3.11,17.15-.37,25.46,2.39,7.25,6.4,10.16,14.09,10.5,7.97.35,13.4-1.74,16.28-9.46,3.17-8.51,3.18-18.27-.07-26.76-2.82-7.38-8.12-9.5-15.78-9.23Z"/>
    <path class="st2" d="M29.31,1.34c7.67-.26,12.96,1.85,15.78,9.23,3.25,8.49,3.24,18.25.07,26.76-2.88,7.72-8.31,9.81-16.28,9.46-7.69-.34-11.7-3.24-14.09-10.5-2.74-8.31-2.69-17.24.37-25.46C17.75,3.91,22.03,1.59,29.31,1.34ZM32.96,4.94l-.44-2.49c-.23-.16-.51-.14-.78-.13l.74,3.51c.05.14.72.19.8,0l1.42-3.25c-.22.07-.64-.16-.77,0l-.97,2.35ZM27.91,2.4l-.73.06.4,2.58c-.03.51-1.07.72-1.28.21-.16-.38-.31-2.43-.4-2.52l-.73.07c-.09.1.32,2.45.41,2.7.39,1.06,2.78.74,2.74-.58-.02-.76-.37-1.73-.41-2.52ZM39.13,4.08c-.37-.02-2.23-1.03-2.41-.87l-1.25,3.15,2.39,1.01.2-.6c-.47-.18-1.09-.36-1.53-.59-.29-.15.12-.67.22-.88l1.5.53c-.02-.17.21-.46.13-.6-.04-.06-1.22-.47-1.4-.55l.27-.64c.11-.09,1.46.68,1.64.64.12-.03.31-.51.24-.59ZM21.52,4.15c-.15.03-.62.34-.52.55.32.96.34,2.32.67,3.23.02.07.03.12.1.17.92-.37.39-.55.44-1.04.01-.13.86-.69.99-.7.15-.01.52.46.66.46.07,0,.57-.32.57-.37l-2.62-2.21c-.08-.06-.17-.12-.28-.09ZM41.49,8.91c.4.29.96.07,1.2-.31.27-.43.14-.71-.07-1.12-.14-.28-.72-1.06-.94-1.28-.05-.05-.06-.12-.16-.11-.33.24-2.68,1.89-2.71,2.06-.02.09.34.58.43.57l1.18-.81c.16.44.69.68.34,1.18-.37.53-1.19.52-.29,1.24.11.02,1.26-1.08,1.03-1.41ZM29.18,6.85c-4.44.23-7.09,1.02-8.77,5.34-2.77,7.1-2.79,16.34-.13,23.47,1.28,3.44,2.69,4.7,6.35,5.34,3.93.68,10.52.63,12.68-3.4,2.36-4.41,3.1-11.49,2.72-16.42-.24-3.08-1.44-9.38-3.46-11.72-2.04-2.37-6.44-2.75-9.39-2.6ZM17.64,8.97c.02-.34.92-1.46.78-1.68-.05-.07-.41-.24-.5-.19-.13.39-1.22,1.96-1.16,2.23l2.99,1.65,1.25-2.25c-.15-.08-.38-.31-.54-.21-.19.12-.75,1.44-.85,1.45s-.76-.33-.77-.39c-.06-.27.64-1.05.67-1.34,0-.09-.39-.34-.44-.35-.09-.01-.11.04-.15.1-.14.2-.56,1.13-.68,1.2-.15.1-.41-.26-.61-.24ZM44.29,10.69l-3.27,1.4.31.72,3.27-1.4-.31-.72ZM17.3,12.8c.06-.73-.91-1.03-1.43-.59-.47.39-.69,1.68-.85,2.27l3.36.94c-.02-.18.22-.59.13-.73-.04-.05-1.1-.29-1.27-.35,0-.28.18-.95.46-1.04.64-.21,1.36.78,1.41-.57-.45.02-.85-.19-1.31-.14-.24.03-.29.16-.5.2ZM45.79,15.96c-.02-.33-.58-2.7-.71-2.75-.09-.03-.48.04-.5.1l.21,1.03c-.33.12-2.67.56-2.75.68-.05.07.18.58.13.74l2.78-.68c.29.51,0,1.15.85.88ZM14.08,19.79c.79,0,1.84.41,2.59.39,1.23-.03,1.6-2.44.38-2.79-.47-.13-1.71-.32-2.2-.35-.1,0-.3-.03-.37.03-.06.04-.17.62-.07.68.73.19,1.81.16,2.49.4.48.17.37,1.15-.11,1.24-.1.02-.23,0-.33,0-.73-.03-1.53-.33-2.28-.34-.1.03-.12.63-.11.74ZM42.97,20.66l3.22-1.64c.12-.08,0-.72-.03-.78-.11-.15-3.17-.59-3.6-.73-.03.03.04.7.08.73.04.04.75.1.79.15s.16,1.14.07,1.24c-.3.34-.84.04-.54,1.04ZM44.1,22.08c-.13-.08-.43.06-.55.14-.97.59-.71,2.82.58,2.78,1-.02.92-1.06,1.15-1.72.11-.31.2-.55.57-.37.26.12.28.91.1,1.11-.12.13-.34.12-.36.14-.05.06.02.6,0,.73,1.6-.11,1.43-3.09-.29-2.74-.99.21-.56,1.97-1.23,2.07-.59.08-.66-1.04-.27-1.35.1-.08.34-.11.36-.14.05-.07,0-.61-.07-.65ZM17.3,24.96v-1.98s-.13-.38-.16-.44c-.33-.6-1.39-.54-1.68.07-.21-.1-.24-.3-.5-.37-.34-.09-.78,0-.97.31-.05.08-.17.44-.17.5v1.91h3.49ZM37.19,42.62c.88-1.31-.58-1.86-1.67-1.3-.79.4-.88,1.45.06,1.64-.01.11-.15.09-.23.2-.3.39-.2,1.01.13,1.34.64.63,2.28.23,2.49-.67.12-.51-.19-1.23-.78-1.21ZM23.95,44.77c.13-.1.8-2.76,1.01-3.12-.24-.68-.79,0-1.19.02-.16,0-.35-.09-.51-.05-.09.02-.15.42-.11.47.03.03.69.18.8.21-.02.35-.78,2.07-.73,2.24.03.11.65.29.73.23ZM28.84,42.24c-.47-.47-1.79-.52-2.18.09-.28.43-.18.8.19,1.13v.1c-.45.16-.59.59-.54,1.04.12,1.1,2.13,1.33,2.65.43.32-.56.19-1.12-.36-1.44.58-.22.67-.93.25-1.35ZM31.81,44.91c.29-.53,1.09-.75,1.31-1.34.71-1.9-2.7-2.28-2.45-.2.03.03.69-.02.73-.07.05-.07-.08-.43.21-.63.47-.32.95.16.77.7-.09.29-1.06.96-1.33,1.36-.19.28-.31.5-.25.86.31,0,2.52-.03,2.56-.18s-.03-.4,0-.56l-1.55.07Z"/>
    <path class="st0" d="M44.1,22.08c.07.04.11.58.07.65-.02.03-.27.06-.36.14-.39.31-.32,1.43.27,1.35.67-.1.24-1.86,1.23-2.07,1.71-.36,1.89,2.63.29,2.74.03-.14-.04-.67,0-.73.02-.02.24-.01.36-.14.18-.2.16-.98-.1-1.11-.37-.17-.46.06-.57.37-.23.66-.15,1.7-1.15,1.72-1.29.03-1.55-2.19-.58-2.78.12-.08.42-.22.55-.14Z"/>
    <path class="st0" d="M39.13,4.08c.07.08-.12.56-.24.59-.18.04-1.53-.72-1.64-.64l-.27.64c.18.07,1.36.48,1.4.55.09.14-.15.43-.13.6l-1.5-.53c-.11.21-.51.73-.22.88.43.23,1.06.41,1.53.59l-.2.6-2.39-1.01,1.25-3.15c.18-.16,2.03.85,2.41.87Z"/>
    <path class="st0" d="M17.64,8.97c.2-.02.46.34.61.24.12-.07.54-1.01.68-1.2.04-.06.05-.12.15-.1.05,0,.45.26.44.35-.03.29-.72,1.08-.67,1.34.01.06.67.4.77.39s.66-1.33.85-1.45c.16-.1.39.13.54.21l-1.25,2.25-2.99-1.65c-.06-.28,1.02-1.84,1.16-2.23.08-.05.45.12.5.19.14.22-.76,1.34-.78,1.68Z"/>
    <path class="st0" d="M14.08,19.79c-.02-.11,0-.71.11-.74.74.01,1.55.31,2.28.34.11,0,.23.02.33,0,.47-.09.59-1.08.11-1.24-.68-.23-1.77-.21-2.49-.4-.1-.06,0-.64.07-.68.08-.05.27-.03.37-.03.5.03,1.73.22,2.2.35,1.22.35.84,2.76-.38,2.79-.75.02-1.79-.4-2.59-.39Z"/>
    <path class="st0" d="M27.91,2.4c.04.79.39,1.76.41,2.52.04,1.32-2.35,1.64-2.74.58-.09-.24-.5-2.59-.41-2.7l.73-.07c.09.09.24,2.14.4,2.52.21.51,1.25.3,1.28-.21l-.4-2.58.73-.06Z"/>
    <path class="st0" d="M31.81,44.91l1.55-.07c-.03.16.04.43,0,.56-.04.14-2.25.17-2.56.18-.05-.36.06-.57.25-.86.27-.4,1.24-1.07,1.33-1.36.18-.54-.3-1.02-.77-.7-.3.2-.16.56-.21.63-.04.05-.7.11-.73.07-.24-2.08,3.16-1.7,2.45.2-.22.59-1.02.81-1.31,1.34Z"/>
    <path class="st0" d="M32.96,4.94l.97-2.35c.13-.16.56.07.77,0l-1.42,3.25c-.08.19-.75.14-.8,0l-.74-3.51c.26,0,.55-.03.78.13l.44,2.49Z"/>
    <path class="st0" d="M45.79,15.96c-.84.27-.55-.37-.85-.88l-2.78.68c.05-.15-.19-.66-.13-.74.08-.12,2.42-.56,2.75-.68l-.21-1.03c.02-.06.41-.13.5-.1.13.05.69,2.41.71,2.75Z"/>
    <path class="st0" d="M23.95,44.77c-.08.05-.7-.13-.73-.23-.04-.18.71-1.89.73-2.24-.12-.03-.77-.18-.8-.21-.04-.05.01-.45.11-.47.16-.04.35.06.51.05.4-.02.95-.7,1.19-.02-.21.36-.88,3.03-1.01,3.12Z"/>
    <rect class="st0" x="41.03" y="11.35" width="3.56" height=".78" transform="translate(-1.18 17.74) rotate(-23.11)"/>
    <g>
      <path class="st0" d="M29.18,6.85c2.94-.16,7.35.23,9.39,2.6,2.01,2.34,3.22,8.64,3.46,11.72.38,4.93-.36,12.01-2.72,16.42-2.16,4.04-8.75,4.09-12.68,3.4-3.66-.64-5.07-1.9-6.35-5.34-2.66-7.14-2.64-16.37.13-23.47,1.68-4.32,4.33-5.1,8.77-5.34ZM34.89,9.53c-.52.11-.81.76-.93,1.22-.04.15-.15.55-.12.66.02.07.36.49.44.51.21.05,1.17-.32,1.39-.47,1.02-.7.48-2.18-.78-1.92ZM24.42,10.05c-1.22.26-1.24,1.66-.61,2.52-.33-.07-.67-.37-.74-.71-.1-.01-.12.18-.13.24-.06.58.12,2.58.84,2.71s1.11-.05,1.23-.79c.1-.63-.16-1.1-.25-1.7.23.01.36.29.44.47.04.08.05.51.17.18.17-.46-.06-1.68-.35-2.08-.22-.3-.34.19-.5.23-.28.06-.16-.89-.1-1.07ZM33.29,11.33c-.15-.11-.48.56-.5.67-.11.41.21,1.03.47,1.35.08.1.25.14.31.23.33.44-.16,1.63-.1,2.19-.51.56-1.49.68-1.95,1.21-.06.07-.09.24-.11.25-.13.08-.57.04-.68-.14-.29-.48,0-.43.15-.64.21-.31.58-1.22.53-1.59-.03-.21-.45-1.04-.65-1.1-.27-.08-.49.06-.72.06-.39-.01-.46-.31-.91.1-.23.21-.57,1.11-.53,1.39.05.38.7,1.03.84,1.38.08.2.2.84.14,1.04-.12.41-.44.34-.71.43-.78.27-.87.93-1.39,1.5-.16.17-.61.66-.84.57-.11-.04-.62-.49-.74-.6-.59-.54-1.9-2.42-2.8-2-.26.12-.08.8,0,1.04.23.66.56.49,1.06.62.82.21,1.24,1.56,1.82,2.14s.68.52,1.3.04c.53-.42.95-1.01,1.45-1.48.05.29.16.54.42.69.1.06.27.02.35.12.07.08.44,1.2.43,1.31-1.12,1.28-1.94,2.69-2.26,4.38-.09.45-.07,1.14-.17,1.51-.04.14-.38.52-.49.72-.21.38-.37.78-.48,1.2-.24.87-.22,2.34-.72,2.97s-1.35.99-1.08,2.02c.06.21.35.52.56.59.37.11.31-.2.48-.5.23-.41,1.07-1.49,1.14-1.82.27-1.29.25-1.59,1.04-2.73.24-.35,1.01-1.13,1-1.49-.01-.43-.35-.98.03-1.45.11.49.21.98.35,1.46s.74,1.79.74,2.14c0,.11-.22.45-.27.64-.1.36-.12.72-.27,1.08s-.46.6-.45.99c.37.03.72-.02,1.04-.2.58-.32.35-.59.58-1.1.19-.43.78-.85.65-1.34-.06-.23-.33-.34-.38-.69-.12-.85.1-1.74-.1-2.65-.13-.58-.42-.93-.65-1.43,1.02-.9,2.36-1.3,2.29-2.9-.04-.83-.61-1.94-.61-2.55,0-.32.33-2.02.42-2.4.03-.13.37-.79.45-.89.3-.34,1.73-.92,1.81-1.34.05-.29.02-1.01,0-1.34-.02-.47-.07-1.26-.17-1.71-.16-.75-.73-1.31-1.11-1.94ZM32.14,14.2s.05-.14.11-.19c.37-.38.76-.53.27-1.07-.09-.02-.81.79-.83.85-.04.17.31.5.45.41ZM25.23,15.22h-2.22v.54c.1.02.52-.02.54,0,.05.05.08,1.22.22,1.39.07.08.61.27.72.42l.2-1.81h.54s0-.54,0-.54ZM37.93,17.17c-.4.11-.86.17-1.21.37v3.02c0,.2-.67.2-.67,0v-2.99l-1.18.2c-.09.44.05.89-.08,1.33-.07.25-.44.77-.6,1.01-.3.44-.68.84-.96,1.29.29.12,1.13,0,1.33.15.16.13.21.77.47.84l2.53.02c.17-.12.21-.97.25-1.01.04-.04.72,0,.8-.17v-2.32l-.67.07v-1.81ZM24.42,21.94v-2.05c0-.09-.54-.3-.67-.24.1.75.07,1.52.07,2.28h.6ZM27.45,23.15h-5.98v1.68h5.98v-1.68ZM39.07,23.15h-5.91v1.75h5.91v-1.75ZM34.03,25.83h-1.68v5.1h1.68v-5.1ZM37.12,27.78v-1.38s-.38-.55-.54-.47c-.4.2-.51.8-.39,1.2.09.31,1.21,1.04,1.43,1.39.06.07.09.09.17.03s.57-.87.61-1.01c.06-.23.11-.58.06-.81-.02-.09-.55-.58-.67-.67-.07-.05-.08-.13-.2-.1v.97c0,.25-.21.74-.47.84ZM35.71,25.97c-.15.03-.77.5-.8.58-.04.12-.03.76,0,.92.09.67,1.02,1.45,1.5,1.92.62.59,1.42,1.05,1.75,1.88.34-.41.42-.85.1-1.31-.54-.78-1.8-1.57-2.35-2.35-.05-.07-.2-.36-.2-.4v-1.24ZM26.1,28.86v-1.18s-.09-.48-.11-.56c-.26-.88-1.46-.99-1.97-.31-.04.05-.2.32-.2.34v2.69c0,.22-.67.22-.67,0v-2.82c0-.11-.15-.49-.3-.51-.27-.03-.99.38-1.31.41.23.23.41.27.46.64.14,1.02-.17,2.51.02,3.47.21,1.04,2.35,1.27,2.72.06.29-.94-.47-3.2,1.36-2.23ZM37.66,32.78c.06.36-.04.86,0,1.24.15-.03.77-.5.8-.58.04-.12.03-.83,0-.99-.11-.82-1.48-1.79-2.08-2.36-.38-.36-1.03-.87-1.07-1.38-.1-.12-.35.39-.37.47-.06.22-.04.36.03.58.23.66,2,1.93,2.49,2.62.06.08.19.32.2.4ZM36.31,32.21c.04.42-.15.89-.07,1.31.02.11.38.59.49.57.05,0,.41-.38.43-.45.04-.12.04-.66,0-.78-.03-.11-1.4-1.43-1.5-1.45-.13-.03-.63.82-.68.99-.08.24-.14.6-.07.84.04.12.84.88.93.79-.1-.53-.17-1.66.47-1.81ZM30.07,34.1c-.09.13.27.46.37.54,1.53,1.14,3.58-.71,2.57-2.37-.25-.41-.77-.81-1.26-.79.07.52-.43.85-.62,1.3-.24.59.04.79-.64,1.18-.11.06-.41.13-.42.15ZM32.75,36.78c-.04-.19.1-.8-.11-.86-.39-.13-1.3.1-1.72-.02-.21-.06-.41-.56-.56-.59-.17-.03-.49.6-.6.6h-1.85v.87h1.81v2.08h1.21v-2.08h1.81ZM29.26,37.52h-3.36c.18,2.03,3.19,2.03,3.36,0ZM34.77,37.52h-3.36c.16,2.04,3.14,2.04,3.36,0Z"/>
      <path class="st2" d="M37.93,17.17v1.81l.67-.07v2.32c-.08.16-.76.13-.8.17-.04.04-.07.89-.25,1.01l-2.53-.02c-.26-.08-.31-.71-.47-.84-.2-.16-1.03-.04-1.33-.15.28-.46.66-.85.96-1.29.16-.24.53-.76.6-1.01.13-.44-.01-.89.08-1.33l1.18-.2v2.99c0,.2.67.2.67,0v-3.02c.35-.2.81-.26,1.21-.37Z"/>
      <path class="st2" d="M26.1,28.86c-1.83-.97-1.07,1.29-1.36,2.23-.37,1.2-2.51.98-2.72-.06-.2-.96.12-2.45-.02-3.47-.05-.37-.23-.41-.46-.64.32-.02,1.04-.44,1.31-.41.16.02.3.39.3.51v2.82c0,.22.67.22.67,0v-2.69s.16-.29.2-.34c.51-.68,1.71-.57,1.97.31.02.08.11.51.11.56v1.18Z"/>
      <rect class="st2" x="33.16" y="23.15" width="5.91" height="1.75"/>
      <rect class="st1" x="21.47" y="23.15" width="5.98" height="1.68"/>
      <rect class="st1" x="32.35" y="25.83" width="1.68" height="5.1"/>
      <path class="st2" d="M24.42,10.05c-.06.18-.18,1.13.1,1.07.15-.03.28-.52.5-.23.29.4.52,1.62.35,2.08-.12.33-.14-.09-.17-.18-.08-.18-.21-.46-.44-.47.09.59.35,1.07.25,1.7-.12.74-.5.92-1.23.79s-.9-2.13-.84-2.71c0-.06.03-.25.13-.24.07.33.41.64.74.71-.64-.86-.62-2.26.61-2.52Z"/>
      <path class="st2" d="M32.75,36.78h-1.81v2.08h-1.21v-2.08h-1.81v-.87h1.85c.11,0,.43-.63.6-.6.15.03.35.52.56.59.42.12,1.34-.1,1.72.02.21.07.07.67.11.86Z"/>
      <g>
        <path class="st2" d="M33.29,11.33c.38.63.96,1.19,1.11,1.94.09.45.15,1.24.17,1.71.01.33.05,1.06,0,1.34-.08.43-1.51,1-1.81,1.34-.09.1-.42.76-.45.89-.09.39-.43,2.08-.42,2.4,0,.61.57,1.72.61,2.55.07,1.59-1.26,2-2.29,2.9.23.51.52.85.65,1.43.2.91-.02,1.8.1,2.65.05.35.32.47.38.69.13.49-.45.9-.65,1.34-.23.51,0,.78-.58,1.1-.33.18-.67.23-1.04.2-.01-.39.31-.63.45-.99s.16-.72.27-1.08c.05-.19.27-.53.27-.64,0-.36-.6-1.67-.74-2.14s-.24-.97-.35-1.46c-.38.46-.04,1.01-.03,1.45,0,.35-.76,1.13-1,1.49-.78,1.14-.76,1.44-1.04,2.73-.07.33-.91,1.41-1.14,1.82-.17.3-.11.61-.48.5-.21-.06-.5-.37-.56-.59-.27-1.03.57-1.37,1.08-2.02s.48-2.1.72-2.97c.12-.42.27-.82.48-1.2.11-.2.45-.58.49-.72.1-.37.08-1.06.17-1.51.32-1.69,1.14-3.1,2.26-4.38,0-.11-.36-1.23-.43-1.31-.08-.1-.25-.06-.35-.12-.27-.14-.37-.4-.42-.69-.49.46-.91,1.06-1.45,1.48-.62.48-.7.56-1.3-.04s-1-1.93-1.82-2.14c-.5-.13-.83.04-1.06-.62-.08-.24-.26-.92,0-1.04.9-.42,2.22,1.46,2.8,2,.13.12.63.56.74.6.22.09.68-.4.84-.57.52-.57.6-1.23,1.39-1.5.27-.09.59-.01.71-.43.06-.2-.05-.84-.14-1.04-.15-.35-.79-1-.84-1.38-.04-.28.3-1.18.53-1.39.44-.41.52-.11.91-.1.23,0,.45-.14.72-.06.19.06.62.89.65,1.1.05.37-.32,1.28-.53,1.59-.14.2-.44.16-.15.64.11.18.55.23.68.14.03-.02.05-.18.11-.25.46-.54,1.44-.65,1.95-1.21-.05-.55.44-1.74.1-2.19-.06-.08-.22-.13-.31-.23-.26-.32-.58-.94-.47-1.35.03-.11.36-.78.5-.67Z"/>
        <path class="st2" d="M30.07,34.1s.32-.09.42-.15c.68-.39.4-.59.64-1.18.18-.45.69-.78.62-1.3.49-.02,1.02.38,1.26.79,1.01,1.66-1.05,3.51-2.57,2.37-.1-.08-.46-.41-.37-.54Z"/>
        <path class="st2" d="M34.89,9.53c1.26-.26,1.8,1.22.78,1.92-.21.15-1.17.52-1.39.47-.08-.02-.42-.44-.44-.51-.03-.12.08-.52.12-.66.12-.46.41-1.11.93-1.22Z"/>
      </g>
      <path class="st2" d="M34.77,37.52c-.22,2.04-3.2,2.04-3.36,0h3.36Z"/>
      <path class="st2" d="M29.26,37.52c-.17,2.03-3.18,2.03-3.36,0h3.36Z"/>
      <g>
        <path class="st2" d="M37.66,32.78c-.01-.08-.14-.32-.2-.4-.49-.69-2.25-1.95-2.49-2.62-.08-.21-.09-.35-.03-.58.02-.08.27-.58.37-.47.04.51.7,1.02,1.07,1.38.59.57,1.97,1.53,2.08,2.36.02.16.04.87,0,.99-.03.08-.65.55-.8.58-.04-.38.06-.88,0-1.24Z"/>
        <path class="st2" d="M35.71,25.97v1.24s.15.34.2.4c.56.78,1.81,1.57,2.35,2.35.32.46.24.9-.1,1.31-.33-.83-1.13-1.29-1.75-1.88-.49-.47-1.42-1.25-1.5-1.92-.02-.16-.04-.8,0-.92.03-.08.65-.55.8-.58Z"/>
        <path class="st2" d="M37.12,27.78c.26-.1.47-.59.47-.84v-.97c.12-.03.13.05.2.1.12.09.65.59.67.67.04.23,0,.58-.06.81-.04.14-.52.95-.61,1.01s-.11.03-.17-.03c-.22-.35-1.34-1.08-1.43-1.39-.12-.4,0-.99.39-1.2.15-.08.54.44.54.47v1.38Z"/>
        <path class="st2" d="M36.31,32.21c-.64.15-.57,1.29-.47,1.81-.09.09-.89-.66-.93-.79-.07-.24,0-.61.07-.84.05-.17.56-1.02.68-.99.11.03,1.47,1.35,1.5,1.45.04.12.04.66,0,.78-.02.07-.39.44-.43.45-.12.02-.47-.45-.49-.57-.08-.42.11-.89.07-1.31Z"/>
      </g>
      <path class="st2" d="M25.23,15.22v.54s-.54,0-.54,0l-.2,1.81c-.11-.15-.66-.34-.72-.42-.14-.17-.17-1.34-.22-1.39-.02-.02-.44.02-.54,0v-.54h2.22Z"/>
      <path class="st2" d="M24.42,21.94h-.6c0-.76.03-1.53-.07-2.28.13-.07.67.14.67.24v2.05Z"/>
      <path class="st2" d="M32.14,14.2c-.15.09-.5-.25-.45-.41.02-.07.75-.87.83-.85.49.55.1.69-.27,1.07-.05.05-.09.19-.11.19Z"/>
    </g>
    <g>
      <path class="st0" d="M17.3,24.96h-3.49v-1.91c0-.07.12-.43.17-.5.19-.31.64-.4.97-.31.27.07.29.27.5.37.3-.61,1.36-.68,1.68-.07.03.06.16.41.16.44v1.98ZM16.7,24.22v-.97c0-.39-.68-.5-.88-.21-.18.26-.03.87-.06,1.18h.94ZM14.6,22.96c-.28.09-.33,1.04-.22,1.2.06.09.69.1.78.03.11-.08.27-1.49-.56-1.23Z"/>
      <path class="st2" d="M16.7,24.22h-.94c.03-.31-.12-.92.06-1.18.2-.29.88-.18.88.21v.97Z"/>
      <path class="st2" d="M14.6,22.96c.83-.26.67,1.16.56,1.23-.09.06-.72.06-.78-.03-.11-.16-.06-1.11.22-1.2Z"/>
    </g>
    <g>
      <path class="st0" d="M37.19,42.62c.58-.01.9.7.78,1.21-.21.9-1.85,1.29-2.49.67-.34-.33-.43-.96-.13-1.34.09-.11.22-.09.23-.2-.94-.19-.85-1.24-.06-1.64,1.09-.56,2.55,0,1.67,1.3ZM36.63,41.77c-.3-.28-1.21.03-.96.59.29.64,1.54-.04.96-.59ZM36.43,43.11c-.61.13-.72.92-.2,1.04,1.26.3,1.37-1.28.2-1.04Z"/>
      <path class="st2" d="M36.43,43.11c1.16-.24,1.06,1.34-.2,1.04-.52-.12-.41-.92.2-1.04Z"/>
      <path class="st2" d="M36.63,41.77c.58.55-.66,1.23-.96.59-.25-.55.66-.87.96-.59Z"/>
    </g>
    <g>
      <path class="st0" d="M41.49,8.91c.23.33-.92,1.42-1.03,1.41-.9-.72-.08-.71.29-1.24.35-.5-.17-.74-.34-1.18l-1.18.81c-.09.01-.44-.47-.43-.57.03-.17,2.39-1.82,2.71-2.06.1-.01.11.07.16.11.22.22.79,1,.94,1.28.21.41.33.69.07,1.12-.24.39-.8.6-1.2.31ZM40.89,7.44c-.12.2.87,1.54,1.22.64.09-.24-.42-1.02-.6-1.05-.04,0-.6.37-.62.41Z"/>
      <path class="st2" d="M40.89,7.44s.58-.41.62-.41c.18.03.69.81.6,1.05-.35.89-1.34-.44-1.22-.64Z"/>
    </g>
    <g>
      <path class="st0" d="M28.84,42.24c.43.43.34,1.14-.25,1.35.55.32.69.88.36,1.44-.52.9-2.53.67-2.65-.43-.05-.46.09-.89.54-1.04v-.1c-.37-.33-.47-.7-.19-1.13.39-.61,1.72-.56,2.18-.09ZM27.63,42.44c-.53.12-.54.81.07.91.96.16.83-1.11-.07-.91ZM28.23,44.05c-.4-.4-1.56-.09-1.12.68.37.65,1.82.02,1.12-.68Z"/>
      <path class="st2" d="M28.23,44.05c.7.7-.74,1.33-1.12.68-.44-.77.71-1.08,1.12-.68Z"/>
      <path class="st2" d="M27.63,42.44c.9-.2,1.03,1.07.07.91-.61-.1-.6-.8-.07-.91Z"/>
    </g>
    <g>
      <path class="st0" d="M17.3,12.8c.21-.04.26-.17.5-.2.46-.05.86.15,1.31.14-.05,1.34-.78.36-1.41.57-.28.09-.46.77-.46,1.04.17.05,1.23.29,1.27.35.1.14-.14.56-.13.73l-3.36-.94c.15-.6.37-1.88.85-2.27.52-.43,1.49-.14,1.43.59ZM16.63,14.15c.04-.39.48-.98.1-1.28-.61-.46-.91.63-.91,1.07l.8.2Z"/>
      <path class="st2" d="M16.63,14.15l-.8-.2c0-.44.3-1.54.91-1.07.38.29-.06.89-.1,1.28Z"/>
    </g>
    <g>
      <path class="st0" d="M21.52,4.15c.11-.02.2.03.28.09l2.62,2.21s-.5.37-.57.37c-.14,0-.51-.48-.66-.46-.13.01-.97.56-.99.7-.05.49.48.67-.44,1.04-.07-.04-.08-.1-.1-.17-.34-.91-.35-2.27-.67-3.23-.1-.22.38-.52.52-.55ZM21.7,4.95v.07s.04-.04,0-.07ZM22.01,6.29c.11.08.61-.28.74-.37-.26-.22-.54-.54-.8-.74-.07-.05-.09-.13-.2-.1l.27,1.21Z"/>
      <path class="st2" d="M22.01,6.29l-.27-1.21c.12-.03.13.05.2.1.26.2.55.52.8.74-.12.09-.62.45-.74.37Z"/>
      <path class="st2" d="M21.7,4.95s.04.04,0,.07v-.07Z"/>
    </g>
    <g>
      <path class="st0" d="M42.97,20.66c-.31-1,.23-.7.54-1.04.09-.1-.04-1.19-.07-1.24s-.75-.11-.79-.15c-.03-.03-.11-.7-.08-.73.43.14,3.49.58,3.6.73.04.06.15.7.03.78l-3.22,1.64ZM45.38,18.65l-1.34-.13.07.74c.07.07,1.06-.37,1.19-.45.06-.04.12,0,.09-.15Z"/>
      <path class="st2" d="M45.38,18.65c.03.16-.02.11-.09.15-.13.09-1.12.52-1.19.45l-.07-.74,1.34.13Z"/>
    </g>
  </g>
</svg>