<?xml version="1.0" encoding="UTF-8"?>
<svg id="Capa_1" xmlns="http://www.w3.org/2000/svg" version="1.1" viewBox="0 0 41.56 14.58">
  <!-- Generator: Adobe Illustrator 29.8.1, SVG Export Plug-In . SVG Version: 2.1.1 Build 2)  -->
  <defs>
    <style>
      .st0 {
        fill: #d41218;
      }

      .st1 {
        fill: #fff;
      }

      .st2 {
        fill: #656e74;
      }
    </style>
  </defs>
  <path class="st2" d="M41.19,5.68c0,.35-.29.64-.64.64s-.64-.29-.64-.64.29-.64.64-.64.64.29.64.64ZM40.91,6.02c.36-.55-.24-1.1-.67-.73-.54.46.31,1.28.67.73Z"/>
  <path class="st2" d="M26.8,8.23c.03-.33.2-.85.34-1.15,1.03-2.26,4.3-2.76,5.96-.89.44-.4.88-.76,1.46-.95,2.35-.78,4.79.79,4.91,3.26v5.44c-1.14.06-2.07-.56-2.16-1.73-.09-1.21.12-2.59,0-3.78-.16-1.58-2.37-1.88-2.97-.46-.04.09-.15.39-.15.46v5.51c-.94.08-1.91-.46-2.1-1.41-.24-1.19.06-2.85-.05-4.1-.16-1.79-2.96-1.93-3.12.19-.09,1.21.1,2.54,0,3.74-.09,1.09-1.1,1.64-2.12,1.62v-5.74h0Z"/>
  <path class="st2" d="M19.15,10.38c.42,1.18,1.84,1.87,3.05,1.48.8-.26,1.01-.98,2.05-.9.32.02.9.27,1.06.55.1.16-.2.51-.31.65-3.12,3.98-9.28.64-7.79-4.1.78-2.48,3.56-3.95,6.04-2.89,1.99.85,2.98,3.1,2.45,5.16l-6.54.05h0ZM23.69,8.44c-.39-1.65-2.23-2.14-3.58-1.16-.38.28-.72.71-.85,1.16h4.43Z"/>
  <path class="st0" d="M12.72.85l-.04,13c-.67-.02-1.32-.28-1.72-.84-1.58,1.16-3.76,1.17-5.32-.02-2.08-1.59-2.33-4.82-.6-6.77,1.4-1.58,3.94-1.96,5.64-.61V.85h2.04ZM8.21,6.73c-3.09.13-2.9,5.37.22,5.22,3.01-.15,2.9-5.35-.22-5.22Z"/>
  <path class="st2" d="M2.99,13.85c-.9.06-1.85-.38-2.09-1.3-.01-.05-.06-.28-.06-.32v-7.23h2.1s.06.05.06.06v8.79Z"/>
  <path class="st2" d="M1.91,3.39c.59,0,1.07-.47,1.07-1.06s-.48-1.06-1.07-1.06-1.07.47-1.07,1.06.48,1.06,1.07,1.06Z"/>
  <path class="st2" d="M13.95,13.85V5h2.06s.06.05.06.06v7.25c0,.12-.14.48-.2.6-.35.67-1.18.99-1.92.94Z"/>
  <path class="st2" d="M15.01,3.39c.59,0,1.07-.47,1.07-1.06s-.48-1.06-1.07-1.06-1.07.47-1.07,1.06.48,1.06,1.07,1.06Z"/>
  <path class="st1" d="M40.91,6.02c-.36.56-1.21-.26-.67-.73.43-.37,1.03.18.67.73ZM40.31,5.35v.69h.12s-.07-.44.16-.21c.03.03.13.31.23.21.05-.05-.12-.22-.12-.28,0-.02.17-.06.16-.23-.02-.23-.38-.17-.54-.17Z"/>
  <path class="st2" d="M40.31,5.35c.16,0,.52-.06.54.17.02.17-.16.21-.16.23,0,.07.17.23.12.28-.1.09-.2-.18-.23-.21-.23-.23-.13.19-.16.21h-.12v-.69ZM40.7,5.46h-.27v.19c.17,0,.31.01.27-.19Z"/>
  <path class="st1" d="M40.7,5.46c.04.2-.1.19-.27.19v-.19h.27Z"/>
</svg>