<svg width="889" height="326" viewBox="0 0 889 326" fill="none" xmlns="http://www.w3.org/2000/svg">
<circle cx="862.5" cy="299.5" r="26.5" fill="#FCFCFD"/>
<path d="M145.221 180C158.17 180 170.87 180 183.72 180C183.797 180.593 183.932 181.146 183.933 181.699C183.946 191.06 184.108 200.425 183.876 209.78C183.749 214.889 182.445 219.856 180.607 224.658C177.693 232.273 173.024 238.632 167.021 243.961C162.87 247.647 158.067 250.421 152.895 252.35C149.017 253.796 145.022 255.075 140.97 255.837C137.479 256.494 133.925 257.006 130.3 257C88.0651 256.934 45.83 256.958 3.59494 256.958C2.77882 256.958 1.9627 256.958 1 256.958C1 240.391 1 223.978 1 207.309C1.92076 207.309 2.72022 207.309 3.51967 207.309C40.0629 207.309 76.6061 207.292 113.149 207.338C116.84 207.342 119.757 205.72 122.43 203.477C123.788 202.338 124.467 200.752 124.449 198.859C124.4 193.51 124.432 188.161 124.432 182.812C124.432 181.987 124.432 181.162 124.432 180C131.365 180 138.169 180 145.221 180Z" fill="#575656"/>
<path d="M13.3224 62.4679C20.2957 55.0387 28.8343 50.6428 38.4079 48.036C44.0196 46.508 49.7174 45.9881 55.5513 46.0002C97.4424 46.0871 139.334 46.0467 181.225 46.0467C182.113 46.0467 183.002 46.0467 184 46.0467C184 62.1799 184 78.1162 184 94.2895C182.991 94.2895 182.107 94.2895 181.223 94.2895C144.774 94.2896 108.326 94.293 71.877 94.2854C67.3817 94.2845 63.8776 96.2423 61.0231 99.5545C60.2219 100.484 60.0816 101.57 60.0894 102.756C60.1243 108.003 60.1049 113.249 60.1052 118.496C60.1052 119.295 60.1052 120.093 60.1052 121C40.3324 121 20.8171 121 1.14869 121C1.10067 120.303 1.01945 119.67 1.01898 119.037C1.01152 109.117 0.971535 99.1977 1.0366 89.2787C1.06193 85.4163 2.37107 81.7824 3.66709 78.2076C5.779 72.3822 8.99613 67.1779 13.3224 62.4679Z" fill="#575656"/>
<path d="M96.8401 164C64.432 164 32.2715 164 0 164C0 154.879 0 146.023 0 137C61.33 137 122.595 137 184 137C184 145.927 184 154.846 184 164C154.969 164 126.029 164 96.8401 164Z" fill="#575656"/>
<path d="M722.285 207C722.117 206.068 722.162 205.169 722.162 204.271C722.166 178.845 722.165 153.419 722.165 127.994C722.165 127.025 722.165 126.056 722.165 125.161C720.284 124.504 708.665 124.402 706.062 124.984C706.004 125.56 705.884 126.188 705.884 126.817C705.877 153.224 705.881 179.63 705.885 206.037C705.885 206.2 705.907 206.363 705.933 206.745C705.649 206.801 705.152 206.692 705.093 206.463C704.954 205.926 705.012 205.331 705.012 204.76C705.01 178.534 705.01 152.308 705.014 126.082C705.015 125.441 705.07 124.801 705.107 124C711.018 124 716.841 124 722.832 124C722.89 124.643 722.994 125.264 722.994 125.885C723.002 152.193 723.006 178.501 722.979 204.809C722.979 205.551 722.652 206.292 722.285 207Z" fill="#2D2A26"/>
<rect x="290" y="48" width="562" height="209" fill="#FEFEFE"/>
<path d="M651.409 94.1433C704.718 94.1433 757.78 94.1433 811 94.1433C811 100.183 811 106.077 811 112.321C810.038 112.321 809.088 112.321 808.137 112.321C745.905 112.321 683.674 112.313 621.443 112.322C529.17 112.337 436.897 112.363 344.624 112.384C343.964 112.385 343.297 112.334 342.644 112.407C340.428 112.655 339.087 114.09 339.078 116.289C339.055 122.144 339.048 127.999 339.08 133.854C339.099 137.319 340.709 138.875 344.279 138.882C354.679 138.903 365.079 138.96 375.477 138.841C378.276 138.81 380.701 139.529 382.869 141.096C384.523 142.291 386.133 143.603 387.516 145.087C389.573 147.294 390.774 149.912 390.764 153.032C390.725 165.229 390.779 177.427 390.737 189.625C390.711 197.256 385.628 204.085 378.435 206.154C376.873 206.603 375.201 206.802 373.569 206.865C370.685 206.977 367.793 206.891 364.904 206.897C350.545 206.93 336.185 206.965 321.826 206.999C320.935 207.001 320.044 206.999 319 206.999C319 201.054 319 195.343 319 189.38C320.029 189.38 320.916 189.38 321.803 189.38C336.329 189.38 350.855 189.382 365.381 189.379C369.525 189.378 371.223 187.721 371.23 183.638C371.243 177.052 371.236 170.465 371.233 163.878C371.231 159.279 368.801 156.907 364.034 156.9C355.368 156.886 346.702 156.898 338.036 156.896C327.012 156.892 319.358 149.363 319.343 138.49C319.331 129.708 319.376 120.925 319.322 112.143C319.303 108.853 320.117 105.831 322.095 103.218C326.406 97.5195 331.917 93.9951 339.435 94C385.985 94.0301 432.534 93.9987 479.084 94.0193C536.443 94.0445 593.802 94.1006 651.409 94.1433Z" fill="#2D2A26"/>
<path d="M611.158 140.829C600.947 140.829 590.968 140.829 580.843 140.829C580.843 135.142 580.843 129.725 580.843 124.165C581.558 124.109 582.195 124.018 582.833 124.017C594.162 124.009 605.492 123.98 616.82 124.023C624.494 124.051 631.446 129.845 632.796 137.249C632.941 138.045 632.992 138.867 632.992 139.678C633.003 161.289 633.001 182.901 632.996 204.513C632.995 205.23 632.926 205.947 632.881 206.82C632.142 206.886 631.512 206.991 630.881 206.991C617.981 207.001 605.081 206.996 592.181 207C588.941 207.001 586.249 205.656 583.922 203.59C579.935 200.05 578.166 195.45 578.073 190.286C577.938 182.785 578.026 175.281 578.054 167.778C578.057 166.976 578.182 166.141 578.432 165.38C580.235 159.909 586.754 155.269 592.634 155.254C599.084 155.237 605.534 155.25 611.984 155.25C612.792 155.25 613.6 155.25 614.678 155.25C614.678 152.833 614.678 150.654 614.678 148.474C614.678 147.006 614.705 145.538 614.671 144.071C614.616 141.664 613.974 141.049 611.158 140.829ZM614.187 181.836C614.187 178.673 614.187 175.511 614.187 172.19C608.182 172.19 602.366 172.19 596.489 172.19C596.489 177.963 596.489 183.626 596.489 189.266C599.599 189.744 612.293 189.627 614.187 189.074C614.187 186.862 614.187 184.593 614.187 181.836Z" fill="#2D2A26"/>
<path d="M508.071 128.564C511.481 131.789 513.01 135.557 513 140.059C512.952 161.418 512.978 182.778 512.978 204.138C512.978 205.009 512.978 205.88 512.978 206.984C511.896 206.984 511.088 206.984 510.28 206.984C497.922 206.984 485.564 206.953 473.207 207C468.64 207.017 465.026 205.199 462.182 201.82C459.505 198.639 458.08 194.925 458.042 190.802C457.97 182.976 458.006 175.149 458.037 167.322C458.04 166.528 458.198 165.692 458.483 164.948C460.609 159.408 466.738 155.268 472.731 155.268C479.117 155.267 485.503 155.271 491.889 155.263C492.696 155.262 493.502 155.198 494.521 155.154C494.521 150.95 494.561 146.897 494.496 142.845C494.477 141.626 493.546 140.973 492.393 140.771C491.667 140.644 490.907 140.683 490.162 140.687C481.208 140.737 472.254 140.794 463.3 140.848C462.491 140.853 461.682 140.849 460.757 140.849C460.757 135.168 460.757 129.748 460.757 124.045C461.72 124.045 462.61 124.045 463.5 124.045C473.95 124.045 484.402 124.144 494.85 124.002C499.837 123.935 504.118 125.418 508.071 128.564ZM491.616 171.945C486.585 171.945 481.553 171.945 476.414 171.945C476.414 177.917 476.414 183.641 476.414 189.355C482.347 189.355 488.102 189.355 493.909 189.355C493.909 183.52 493.909 177.861 493.909 172.092C493.213 172.035 492.651 171.99 491.616 171.945Z" fill="#2D2A26"/>
<path d="M540.69 175.597C540.69 186.182 540.69 196.525 540.69 207C534.097 207 527.796 207 521.496 207C520.973 205.345 520.787 128.596 521.317 124.906C527.494 124.906 533.694 124.906 540.017 124.906C540.134 125.909 540.242 126.837 540.369 127.928C542.748 127.305 544.972 126.681 547.218 126.146C549.968 125.492 552.731 124.888 555.499 124.308C558.073 123.77 560.647 123.995 563.187 124.533C567.658 125.479 570.796 128.036 572.6 132.122C574.309 135.991 574.834 140.108 574.857 144.24C574.968 164.567 574.969 184.895 575 205.222C575.001 205.769 574.901 206.317 574.835 206.994C568.767 206.994 562.802 206.994 556.539 206.994C556.503 206.132 556.436 205.278 556.436 204.424C556.43 185.148 556.421 165.871 556.453 146.594C556.455 145.143 556.256 143.875 555.093 142.865C554.042 141.953 552.835 141.466 551.434 141.677C548.295 142.15 545.271 142.979 542.388 144.327C541.066 144.945 540.65 145.768 540.659 147.168C540.718 156.563 540.69 165.958 540.69 175.597Z" fill="#2D2A26"/>
<path d="M756.895 126.292C760.269 125.539 763.418 124.652 766.633 124.202C768.827 123.895 771.149 123.953 773.347 124.275C778.705 125.061 782.218 128.149 784.016 133.089C785.655 137.594 785.939 142.304 785.957 147C786.03 166.314 785.989 185.629 785.984 204.943C785.983 205.576 785.915 206.208 785.868 207C779.716 207 773.674 207 767.364 207C767.364 206.013 767.364 205.143 767.364 204.272C767.364 185.12 767.365 165.968 767.363 146.816C767.363 142.811 765.196 140.964 761.188 141.799C758.756 142.306 756.397 143.154 754.015 143.88C752.105 144.462 751.409 145.603 751.42 147.685C751.52 166.512 751.479 185.34 751.479 204.167C751.479 205.049 751.479 205.932 751.479 206.988C744.918 206.988 738.538 206.988 732 206.988C732 179.609 732 152.298 732 124.979C733.708 124.53 747.062 124.392 750.802 124.813C750.901 125.701 751.004 126.629 751.14 127.848C753.07 127.325 754.884 126.834 756.895 126.292Z" fill="#2D2A26"/>
<path d="M695.502 124.018C697.042 124.018 698.346 124.018 700 124.018C693.109 151.829 686.282 179.382 679.439 207C672.028 207 664.831 207 657.34 207C650.259 179.508 643.172 151.995 636 124.15C641.938 123.903 647.618 124.026 653.415 124.07C658.351 143.007 663.246 161.783 668.14 180.559C669.8 177.03 670.52 173.257 671.526 169.575C672.559 165.796 673.489 161.989 674.46 158.194C675.432 154.4 676.394 150.604 677.369 146.811C678.344 143.02 679.326 139.231 680.312 135.443C681.295 131.666 682.287 127.891 683.3 124.018C687.393 124.018 691.329 124.018 695.502 124.018Z" fill="#2D2A26"/>
<path d="M417.271 176.251C417.272 179.102 417.242 181.709 417.279 184.315C417.332 187.972 419.21 189.83 422.988 189.86C428.792 189.907 434.597 189.872 440.402 189.872C443.961 189.872 447.52 189.872 451.046 189.872C451.543 191.642 451.666 203.71 451.22 206.861C450.542 206.903 449.824 206.986 449.105 206.987C437.579 206.995 426.053 207.012 414.527 206.986C406.061 206.966 399.438 202.224 397.414 194.747C397.142 193.74 397.036 192.662 397.034 191.616C397.011 175.407 396.964 159.198 397.048 142.99C397.077 137.454 398.661 132.36 402.831 128.368C405.733 125.589 409.219 124.106 413.351 124.126C421.642 124.167 429.935 124.152 438.227 124.132C441.956 124.123 445.685 124.046 449.414 124.004C450.223 123.995 451.033 124.003 452 124.003C452 129.653 452 135.064 452 140.759C450.995 140.759 450.104 140.759 449.214 140.759C440.341 140.759 431.469 140.756 422.596 140.76C419.804 140.761 418.863 141.304 418.028 143.896C417.536 145.425 417.209 147.075 417.201 148.673C417.159 157.784 417.235 166.895 417.271 176.251Z" fill="#2D2A26"/>
<path d="M811 180.724C811 189.602 811 198.235 811 207C804.554 207 798.364 207 792 207C792 179.443 792 151.973 792 124.483C793.602 123.972 806.911 123.799 811 124.297C811 142.999 811 161.739 811 180.724Z" fill="#2D2A26"/>
<path d="M722.925 206.983C717.458 207.01 711.992 207.036 706.283 206.804C706.028 206.383 706.005 206.221 706.005 206.058C706.001 179.774 705.997 153.489 706.004 127.205C706.004 126.579 706.129 125.954 706.19 125.38C708.907 124.801 721.036 124.903 723 125.556C723 126.447 723 127.412 723 128.376C723 153.684 723.001 178.992 722.997 204.3C722.997 205.195 722.95 206.089 722.925 206.983Z" fill="#2D2A26"/>
<path d="M878.496 245.419C874.05 253.083 867.855 258.66 860.279 262.812C853.293 266.64 845.691 268.657 838.023 270.46C830.651 272.195 823.265 273.885 815.85 275.422C809.499 276.738 803.095 277.797 796.72 278.995C791.551 279.967 786.402 281.05 781.221 281.95C776.755 282.726 772.249 283.277 767.773 283.998C762.974 284.77 758.197 285.676 753.395 286.422C750.506 286.872 747.581 287.087 744.683 287.484C741.628 287.902 738.588 288.421 735.538 288.877C734.089 289.094 732.635 289.274 731.181 289.458C725.94 290.121 720.704 290.822 715.456 291.424C711.808 291.843 708.139 292.072 704.49 292.481C700.856 292.888 697.239 293.447 693.606 293.874C691.418 294.132 689.213 294.238 687.02 294.459C684.267 294.736 681.521 295.072 678.769 295.363C676.823 295.569 674.875 295.779 672.923 295.923C670.147 296.128 667.362 296.227 664.588 296.46C661.508 296.719 658.437 297.079 655.362 297.392C655.117 297.416 654.87 297.417 654.624 297.429C651.19 297.601 647.751 297.713 644.322 297.962C640.983 298.205 637.654 298.588 634.321 298.908C634.157 298.924 633.992 298.93 633.827 298.936C629.237 299.105 624.646 299.264 620.057 299.444C616.127 299.598 612.197 299.755 608.268 299.948C605.656 300.076 603.049 300.317 600.436 300.43C577.202 301.434 553.956 300.782 530.715 300.895C525.05 300.922 519.354 300.891 513.727 300.335C509.693 299.937 505.655 300.351 501.683 299.852C498.314 299.43 494.968 299.594 491.616 299.425C485.975 299.14 480.337 298.799 474.7 298.435C470.053 298.134 465.408 297.776 460.764 297.423C456.695 297.113 452.623 296.831 448.563 296.433C444.177 296.003 439.806 295.421 435.422 294.97C433.063 294.727 430.684 294.674 428.324 294.436C425.98 294.2 423.649 293.829 421.309 293.539C419.609 293.328 417.902 293.165 416.201 292.96C410.785 292.31 405.37 291.646 399.954 290.994C395.667 290.479 391.368 290.049 387.095 289.44C383.244 288.891 379.426 288.108 375.581 287.507C371.97 286.943 368.331 286.553 364.726 285.958C360.492 285.258 356.281 284.423 352.061 283.639C348.234 282.928 344.401 282.244 340.585 281.478C334.7 280.297 328.809 279.141 322.955 277.82C316.2 276.296 309.469 274.659 302.752 272.974C295.228 271.087 287.629 269.368 280.462 266.357C274.929 264.033 269.887 260.819 265.204 256.98C259.51 252.312 255.151 246.681 251.945 240.131C249.965 236.084 248.645 231.826 247.973 227.326C247.342 223.103 247.002 218.893 247.004 214.627C247.027 170.035 246.948 125.442 247.071 80.8492C247.099 70.4524 250.451 61.0166 256.674 52.5584C262.246 44.9848 269.281 39.2244 277.518 34.8828C281.37 32.8524 285.497 31.4405 289.782 30.5233C296.232 29.1429 302.659 27.6622 309.112 26.2957C314.523 25.1496 319.952 24.0842 325.381 23.0225C331.271 21.8707 337.161 20.7204 343.067 19.6531C347.383 18.873 351.728 18.2455 356.054 17.5178C359.728 16.8998 363.386 16.1899 367.065 15.6074C369.794 15.1753 372.55 14.9174 375.285 14.5172C378.012 14.118 380.725 13.6235 383.448 13.199C385.056 12.9483 386.674 12.7589 388.286 12.5304C391.578 12.0635 394.868 11.5763 398.162 11.1228C399.78 10.9001 401.408 10.7456 403.029 10.5401C406.82 10.0593 410.604 9.52163 414.401 9.09145C417.962 8.68794 421.541 8.43791 425.102 8.03809C428.988 7.60188 432.861 7.05383 436.744 6.58911C438.604 6.36648 440.472 6.19486 442.34 6.05164C444.867 5.85792 447.403 5.77117 449.924 5.53214C452.439 5.29376 454.938 4.89326 457.451 4.62139C459.56 4.39311 461.676 4.20983 463.794 4.07429C466.983 3.87018 470.18 3.78197 473.365 3.53885C476.535 3.29693 479.694 2.92418 482.859 2.61064C483.022 2.59439 483.188 2.59589 483.353 2.58837C487.202 2.41296 491.051 2.23558 494.901 2.06246C498.668 1.89305 502.478 2.02177 506.188 1.46943C509.238 1.01522 512.266 1.37255 515.27 1.03194C520.512 0.437559 525.799 0.960643 531.001 0.445253C535.286 0.0208297 539.534 0.117129 543.792 0.0980031C560.625 0.0223901 577.46 -0.104152 594.289 0.15703C599.696 0.240948 605.142 0.216564 610.522 0.67733C614.055 0.979993 617.566 0.905184 621.083 1.07357C624.685 1.24604 628.332 1.11153 631.877 1.65262C634.345 2.02928 636.773 1.88441 639.211 2.07673C642.791 2.35911 646.365 2.70988 649.941 3.02879C650.187 3.05072 650.435 3.04881 650.682 3.05985C654.453 3.22829 658.229 3.32387 661.993 3.5889C665.005 3.80102 668 4.25617 671.009 4.53429C673.452 4.76015 675.908 4.84786 678.354 5.06067C681.678 5.35005 684.997 5.70383 688.32 6.02293C690.185 6.20212 692.051 6.38191 693.919 6.53548C698.156 6.88379 702.402 7.14276 706.629 7.57659C710.433 7.96688 714.212 8.58708 718.012 9.02205C721.494 9.42058 724.996 9.64205 728.475 10.0617C731.774 10.4598 735.049 11.0556 738.344 11.487C741.408 11.8879 744.488 12.1573 747.555 12.5391C750.379 12.8908 753.197 13.2959 756.013 13.7124C758.819 14.1274 761.617 14.5972 764.421 15.0218C766.992 15.4112 769.571 15.7478 772.14 16.1527C774.856 16.5808 777.564 17.0606 780.275 17.5205C783.306 18.0347 786.348 18.4963 789.365 19.0815C793.261 19.8373 797.139 20.6899 801.023 21.5062C808.181 23.0101 815.378 24.3506 822.483 26.069C830.337 27.9685 838.169 30.0141 845.896 32.3683C853.568 34.7054 860.581 38.4162 866.816 43.5743C870.963 47.0044 874.694 50.7615 877.579 55.3055C881.392 61.3092 883.82 67.7581 884.583 74.9202C884.942 78.2918 884.962 81.6275 884.964 84.9755C884.998 129.898 885.03 174.821 884.95 219.743C884.934 228.716 883.132 237.357 878.496 245.419ZM777.612 28.4358C770.447 27.2935 763.302 26.0002 756.112 25.0414C742.385 23.2108 728.646 21.4588 714.887 19.887C703.75 18.6148 692.587 17.5436 681.418 16.5888C671.07 15.7042 660.704 15.0013 650.337 14.3837C638.243 13.6633 626.144 12.9873 614.038 12.5398C600.94 12.0558 587.832 11.7174 574.726 11.5691C556.913 11.3676 539.099 11.5267 521.297 12.3399C513.639 12.6897 505.975 12.9073 498.325 13.3727C485.819 14.1335 473.312 14.9185 460.826 15.9344C448.586 16.9301 436.352 18.0649 424.149 19.4343C410.386 20.9786 396.631 22.6565 382.923 24.6252C355.803 28.5202 328.875 33.4805 302.262 40.0485C298.101 41.0753 293.95 42.1431 289.808 43.241C279.383 46.0044 271.801 52.602 265.81 61.2409C261.275 67.7785 259.06 74.9961 259.077 83.0461C259.167 127.889 259.123 172.733 259.114 217.576C259.114 220.988 259.644 224.301 260.776 227.516C263.291 234.661 267.571 240.654 272.966 245.881C277.514 250.287 282.59 253.929 288.755 255.74C294.29 257.367 299.844 258.939 305.428 260.387C340.71 269.532 376.603 275.28 412.77 279.438C423.66 280.69 434.582 281.709 445.507 282.613C458.401 283.68 471.308 284.613 484.222 285.405C494.75 286.05 505.292 286.513 515.835 286.853C526.879 287.209 537.929 287.453 548.978 287.51C569.267 287.616 589.559 287.688 609.834 286.673C617.243 286.301 624.659 286.053 632.065 285.645C641.695 285.115 651.327 284.587 660.944 283.865C671.875 283.044 682.797 282.074 693.711 281.05C703.888 280.094 714.075 279.177 724.213 277.892C739.591 275.943 754.953 273.841 770.28 271.525C788.394 268.789 806.393 265.381 824.157 260.874C831.822 258.929 839.462 256.811 846.965 254.325C853.949 252.011 860.072 248.114 864.8 242.323C870.379 235.491 872.479 227.472 872.486 218.846C872.522 172.931 872.528 127.016 872.446 81.1014C872.44 78.0987 872.037 74.9582 871.099 72.1192C866.486 58.165 857.052 48.7303 843.299 43.6484C839.905 42.3947 836.37 41.5167 832.881 40.5323C814.837 35.441 796.49 31.7205 777.612 28.4358Z" fill="#FCFCFD"/>
<path d="M777.378 28.977C796.033 32.2246 814.366 35.944 832.398 41.0339C835.884 42.0181 839.417 42.8958 842.808 44.1492C856.552 49.2296 865.979 58.6617 870.588 72.6119C871.526 75.4501 871.929 78.5898 871.935 81.5916C872.017 127.493 872.011 173.395 871.975 219.297C871.968 227.92 869.869 235.938 864.295 242.768C859.569 248.557 853.45 252.452 846.471 254.766C838.974 257.251 831.339 259.369 823.679 261.313C805.928 265.819 787.942 269.226 769.841 271.962C754.525 274.276 739.174 276.378 723.807 278.327C713.676 279.612 703.496 280.528 693.327 281.483C682.42 282.508 671.506 283.477 660.582 284.297C650.973 285.019 641.348 285.547 631.725 286.078C624.323 286.485 616.913 286.734 609.509 287.105C589.248 288.12 568.971 288.048 548.697 287.942C537.655 287.884 526.612 287.64 515.576 287.285C505.041 286.945 494.506 286.482 483.986 285.837C471.081 285.046 458.183 284.113 445.299 283.046C434.381 282.143 423.467 281.124 412.585 279.872C376.443 275.716 340.575 269.969 305.319 260.826C299.739 259.379 294.189 257.807 288.658 256.181C282.497 254.37 277.425 250.73 272.879 246.325C267.488 241.1 263.212 235.108 260.698 227.965C259.567 224.751 259.037 221.439 259.038 218.027C259.046 173.197 259.091 128.366 259 83.5357C258.984 75.488 261.197 68.2725 265.728 61.7367C271.716 53.1002 279.292 46.5045 289.71 43.7419C293.849 42.6443 297.997 41.5768 302.155 40.5503C328.749 33.9841 355.658 29.0253 382.759 25.1314C396.457 23.1632 410.202 21.4858 423.955 19.9419C436.15 18.5729 448.375 17.4384 460.606 16.4429C473.084 15.4274 485.582 14.6426 498.079 13.882C505.723 13.4167 513.383 13.1992 521.034 12.8495C538.824 12.0365 556.625 11.8775 574.426 12.0789C587.523 12.2272 600.621 12.5654 613.71 13.0494C625.807 13.4967 637.898 14.1725 649.983 14.8928C660.343 15.5102 670.702 16.2128 681.042 17.0972C692.203 18.0517 703.358 19.1226 714.487 20.3945C728.236 21.9658 741.966 23.7173 755.684 25.5474C762.868 26.5059 770.008 27.7989 777.378 28.977ZM429.336 259.874C430.234 259.988 431.13 260.128 432.03 260.212C438.099 260.779 444.164 261.393 450.24 261.879C462.638 262.87 475.037 263.86 487.444 264.715C495.743 265.288 504.053 265.755 512.365 266.044C526.115 266.521 539.87 266.975 553.627 267.14C564.997 267.275 576.372 267.014 587.745 266.858C593.84 266.774 599.935 266.609 606.026 266.358C617.96 265.867 629.898 265.415 641.821 264.713C653.743 264.012 665.652 263.079 677.558 262.143C684.619 261.588 691.673 260.911 698.714 260.146C708.047 259.131 717.372 258.043 726.685 256.861C735.67 255.721 744.662 254.596 753.6 253.148C765.541 251.214 777.457 249.1 789.339 246.831C802.763 244.268 816.057 241.107 829.204 237.361C833.357 236.178 837.223 234.343 840.603 231.604C845.08 227.978 847.43 223.47 847.418 217.508C847.326 172.517 847.333 127.526 847.418 82.5347C847.427 77.8153 845.725 74.0792 842.582 70.8C838.655 66.7027 833.856 64.0652 828.423 62.6047C821.824 60.831 815.214 59.0888 808.567 57.5068C789.337 52.9301 769.924 49.278 750.349 46.5446C735.59 44.4838 720.822 42.4435 706.012 40.8065C691.36 39.1868 676.664 37.9143 661.963 36.8042C648.249 35.7686 634.508 35.0538 620.771 34.3729C610.405 33.8592 600.029 33.4535 589.653 33.2977C570.369 33.0082 551.081 32.8179 531.799 33.5751C521.51 33.9792 511.211 34.1834 500.93 34.7275C488.84 35.3674 476.76 36.2197 464.684 37.0906C455.893 37.7246 447.103 38.4113 438.337 39.3035C427.194 40.4374 416.063 41.7035 404.951 43.0979C394.903 44.3585 384.861 45.7023 374.865 47.3133C364.061 49.0545 353.291 51.0293 342.549 53.1173C328.647 55.8191 314.866 59.0697 301.27 63.0484C298.835 63.7609 296.435 64.7436 294.189 65.9236C287.303 69.5409 283.568 74.8898 283.598 83.1186C283.765 128.109 283.704 173.101 283.644 218.092C283.637 223.752 285.926 228.086 290.188 231.565C294.17 234.815 298.854 236.563 303.736 237.907C317.632 241.732 331.657 245.025 345.818 247.678C357.871 249.936 369.977 251.916 382.085 253.864C389.481 255.055 396.916 256.021 404.349 256.964C412.519 258 420.707 258.894 429.336 259.874Z" fill="#0361A8"/>
<path d="M428.818 259.658C420.395 258.686 412.191 257.789 404.004 256.749C396.555 255.802 389.105 254.832 381.693 253.638C369.56 251.682 357.428 249.695 345.35 247.428C331.16 244.766 317.105 241.461 303.18 237.621C298.287 236.272 293.594 234.517 289.603 231.255C285.332 227.764 283.039 223.414 283.046 217.733C283.106 172.576 283.167 127.418 283 82.2606C282.97 74.0013 286.713 68.6326 293.613 65.002C295.864 63.8176 298.268 62.8313 300.708 62.1161C314.333 58.1228 328.143 54.8601 342.074 52.1483C352.839 50.0527 363.631 48.0705 374.458 46.3229C384.474 44.706 394.538 43.3572 404.606 42.0919C415.742 40.6923 426.897 39.4216 438.062 38.2835C446.847 37.388 455.656 36.6987 464.464 36.0624C476.566 35.1883 488.671 34.3328 500.786 33.6906C511.089 33.1445 521.409 32.9395 531.72 32.5339C551.042 31.7739 570.37 31.9649 589.695 32.2555C600.093 32.4118 610.491 32.819 620.878 33.3347C634.644 34.0181 648.414 34.7355 662.156 35.7749C676.888 36.8891 691.615 38.1663 706.298 39.792C721.138 41.4351 735.938 43.4829 750.727 45.5513C770.343 48.2948 789.797 51.9605 809.067 56.5541C815.728 58.1419 822.352 59.8906 828.965 61.6708C834.41 63.1367 839.218 65.784 843.153 69.8964C846.303 73.1878 848.009 76.9376 848 81.6745C847.915 126.832 847.907 171.99 847.999 217.147C848.012 223.13 845.657 227.655 841.171 231.295C837.783 234.044 833.909 235.886 829.748 237.073C816.573 240.833 803.251 244.006 789.799 246.578C777.892 248.855 765.951 250.977 753.985 252.919C745.029 254.372 736.017 255.501 727.014 256.646C717.682 257.832 708.337 258.923 698.985 259.942C691.929 260.711 684.86 261.39 677.784 261.947C665.853 262.886 653.919 263.823 641.972 264.527C630.025 265.231 618.062 265.685 606.102 266.178C599.999 266.43 593.891 266.595 587.783 266.679C576.387 266.836 564.987 267.098 553.593 266.962C539.808 266.797 526.025 266.341 512.246 265.862C503.916 265.572 495.588 265.103 487.273 264.529C474.839 263.67 462.414 262.677 449.991 261.682C443.902 261.195 437.824 260.578 431.743 260.009C430.84 259.925 429.943 259.784 428.818 259.658ZM352.079 231.515C368.695 234.714 385.365 237.597 402.147 239.778C413.604 241.268 425.061 242.772 436.542 244.05C446.056 245.109 455.599 245.916 465.14 246.712C475.42 247.569 485.706 248.38 496.001 249.033C505.472 249.634 514.953 250.112 524.436 250.436C534.915 250.794 545.401 250.999 555.885 251.12C574.549 251.336 593.207 250.94 611.853 250.099C620.756 249.697 629.655 249.176 638.552 248.63C646.542 248.138 654.534 247.637 662.51 246.959C672.296 246.128 682.075 245.189 691.841 244.149C702.346 243.03 712.859 241.938 723.319 240.476C736.965 238.568 750.584 236.439 764.174 234.164C782.096 231.165 799.853 227.341 817.422 222.677C821.565 221.577 825.683 220.385 829.884 219.215C829.884 172.688 829.884 126.328 829.884 79.9032C829.209 79.6385 828.611 79.3718 827.992 79.1662C804.899 71.4889 781.231 66.1754 757.271 62.1278C746.859 60.3688 736.403 58.8348 725.934 57.4519C715.135 56.0254 704.307 54.7932 693.47 53.6895C684.686 52.795 675.876 52.1275 667.066 51.5202C654.964 50.6859 642.856 49.9264 630.743 49.282C622.008 48.8173 613.262 48.5165 604.516 48.2811C594.943 48.0233 585.366 47.828 575.789 47.7837C566.128 47.7391 556.464 47.8288 546.804 48.0119C533.516 48.2636 520.228 48.5623 506.946 49.0238C497.132 49.3648 487.321 49.8896 477.522 50.5298C466.569 51.2453 455.618 52.0534 444.688 53.0608C433.266 54.1136 421.833 55.1792 410.471 56.7322C395.759 58.7431 381.077 61.0291 366.448 63.5814C345.357 67.2612 324.574 72.2964 304.168 78.8255C303.16 79.1479 302.176 79.5414 301.125 79.9218C301.125 126.382 301.125 172.673 301.125 219.177C317.797 224.12 334.666 228.041 352.079 231.515Z" fill="#EC682D"/>
<path d="M858.91 279.341C871.779 277.194 881.366 285.505 883.521 295.483C885.985 306.89 878.688 318.168 867.312 320.546C855.766 322.96 844.609 315.505 842.387 303.892C840.218 292.552 847.362 281.822 858.91 279.341ZM852.755 312.363C852.755 312.363 852.713 312.339 852.414 312.694C853.209 313.381 853.907 314.251 854.813 314.727C860.706 317.83 866.62 317.731 872.193 314.09C877.959 310.323 880.445 304.753 879.669 297.916C878.95 291.583 875.535 286.973 869.696 284.504C863.829 282.023 858.121 282.497 852.604 286.623C847.16 291.126 845.126 296.865 846.536 303.778C847.203 307.047 848.865 309.824 851.262 312.133C851.637 312.493 852.112 313.322 852.755 312.363Z" fill="#2D2A26"/>
<path d="M853.013 287.576C857.368 287.599 861.726 287.72 866.077 287.612C869.095 287.537 871.361 288.635 872.515 291.388C873.686 294.18 873.599 296.967 871.369 299.355C871.141 299.599 870.918 299.847 870.635 300.156C873.56 303.529 872.056 307.885 873.627 311.869C871.353 311.869 869.481 311.869 867.315 311.869C867.214 310.864 867.106 309.807 867.003 308.75C866.881 307.498 866.831 306.234 866.626 304.996C866.359 303.383 865.876 302.924 864.344 302.873C862.346 302.808 860.343 302.857 857.998 302.857C857.998 306.034 857.998 309.076 857.998 312.394C856.178 312.394 854.695 312.394 852.964 312.366C852.715 312.338 852.757 312.362 852.698 312.155C852.61 304.273 852.572 296.597 852.57 288.922C852.57 288.473 852.859 288.025 853.013 287.576ZM864.067 298.584C867.25 298.261 868.457 296.626 867.449 293.721C867.186 292.964 866.345 291.947 865.678 291.873C863.069 291.584 860.425 291.663 857.797 291.803C857.797 294.175 857.797 296.23 857.797 298.572C859.824 298.572 861.723 298.572 864.067 298.584Z" fill="#2D2A26"/>
</svg>
