<?xml version="1.0" encoding="UTF-8"?>
<svg id="Capa_1" xmlns="http://www.w3.org/2000/svg" version="1.1" viewBox="0 0 60 59">
  <!-- Generator: Adobe Illustrator 29.7.1, SVG Export Plug-In . SVG Version: 2.1.1 Build 8)  -->
  <defs>
    <style>
      .st0 {
        fill: #fff;
      }

      .st1 {
        fill: none;
        stroke: #fff;
        stroke-miterlimit: 10;
        stroke-width: 3px;
      }
    </style>
  </defs>
  <g>
    <path class="st0" d="M33.84,14.42c1.09.36,2.11.82,3.07,1.44l1.09-1.25.82,2.48c.96.65,1.9,1.45,2.81,2.36l-2.44-.17.22,3.98-2-3.9-3.25.32,1.91-2.42c-.61-1.07-1.36-2.03-2.24-2.84"/>
    <path class="st0" d="M43.92,26.67l-1.52.37-1.23-2.11c.11.83.13,1.65.1,2.42l-1.74.63,1.7.99-.23,2.43,1.28-1.77,1.4,1.21-.76-2.37,1.01-1.8Z"/>
    <polygon class="st0" points="43.77 22.38 42.73 22.68 44.03 23.25 44.51 24.81 44.71 23.89 45.56 24.63 44.87 23.05 45.12 21.99 44.23 22.23 43.16 21.08 43.77 22.38"/>
    <path class="st0" d="M47.34,32.02l1.04-1.49-1.09-.66c-.07-1.41-.28-2.62-.64-3.58.05,1.07-.29,3.18-.29,3.18-.54-.29-1.16-.47-1.87-.55.59.62,1.07,1.45,1.4,2.47-.31,1.21-.71,2.18-1.2,2.89l1.77-1.31s.45,1.52.47,2.38c.27-.92.4-2.04.4-3.33"/>
    <path class="st0" d="M45.14,37.59c-.2.32-.57.63-1.09.97.41-.08.69-.09.88-.05-.08.52-.21,1-.37,1.44l.84-1.48.71-.13-.25-.96.67-1.54c-.25.4-.51.75-.84,1.09l-.44-.79-.12,1.45Z"/>
    <path class="st0" d="M37.1,24.58l.58,1.56.31-.97c.52.3.97.63,1.38.97l-1.23-1.49.15-.81h-.89s-1.4-1.26-1.4-1.26l.77,1.25-1.16.04,1.49.71Z"/>
    <path class="st0" d="M16.23,39.98c-2.79,0-4.56-2.01-4.56-4.87s1.77-4.87,4.56-4.87c1.76,0,2.93.62,3.67,1.77l-1.44.78c-.55-.77-1.13-1.13-2.24-1.13-1.88,0-2.9,1.34-2.9,3.45s1.02,3.45,2.9,3.45c1.13,0,1.82-.41,2.38-1.17l1.34.78c-.77,1.16-2.08,1.81-3.72,1.81"/>
    <path class="st0" d="M25.91,39.83v-4c0-1.43-.61-1.94-1.66-1.94s-1.67.66-1.67,1.81v4.14h-1.59v-9.1l1.59-.73v3.42c.4-.51,1.2-.82,2.03-.82,1.89,0,2.89,1.08,2.89,3.17v4.06h-1.59Z"/>
    <polygon class="st0" points="31.66 39.83 31.66 30.74 33.25 30.01 33.25 39.83 31.66 39.83"/>
    <polygon class="st0" points="28.81 32.79 28.81 32.1 30.4 31.37 30.4 32.79 28.81 32.79"/>
    <path class="st0" d="M37.67,33.86c-1.06,0-1.71.64-1.85,1.78h3.76c-.08-.97-.6-1.78-1.91-1.78M41.14,36.79h-5.35c.17,1.36,1.05,1.94,2.04,1.94.68,0,1.22-.22,1.76-.57l.94.89c-.71.6-1.56.93-2.79.93-1.9,0-3.5-1.34-3.5-3.68s1.45-3.69,3.55-3.69c2.3,0,3.41,1.63,3.41,3.55,0,.25-.03.48-.05.63"/>
    <rect class="st0" x="28.81" y="33.3" width="1.59" height="6.53"/>
  </g>
  <rect class="st1" width="60" height="59"/>
</svg>