<svg width="240" height="240" viewBox="0 0 240 240" fill="none" xmlns="http://www.w3.org/2000/svg">
<circle cx="120" cy="120" r="120" fill="#ED672B"/>
<path d="M160.909 142C170.957 142 180.812 142 190.783 142C190.843 142.455 190.947 142.878 190.948 143.302C190.958 150.474 191.084 157.65 190.904 164.818C190.805 168.733 189.793 172.539 188.367 176.219C186.106 182.054 182.483 186.926 177.825 191.009C174.604 193.834 170.877 195.959 166.864 197.437C163.855 198.545 160.755 199.525 157.611 200.109C154.902 200.612 152.144 201.004 149.331 201C116.559 200.949 83.7861 200.968 51.0136 200.968C50.3803 200.968 49.747 200.968 49 200.968C49 188.274 49 175.698 49 162.925C49.7145 162.925 50.3348 162.925 50.9552 162.925C79.3111 162.925 107.667 162.912 136.023 162.947C138.886 162.951 141.15 161.707 143.224 159.989C144.278 159.116 144.805 157.901 144.791 156.45C144.753 152.352 144.778 148.253 144.778 144.154C144.778 143.522 144.778 142.891 144.778 142C150.158 142 155.438 142 160.909 142Z" fill="#FEFEFE"/>
<path d="M58.5617 51.5156C63.9726 45.8694 70.5982 42.5285 78.0269 40.5473C82.3813 39.3861 86.8025 38.991 91.3294 39.0002C123.835 39.0662 156.341 39.0355 188.847 39.0355C189.536 39.0355 190.226 39.0355 191 39.0355C191 51.2967 191 63.4083 191 75.7C190.217 75.7 189.531 75.7 188.845 75.7C160.563 75.7001 132.28 75.7027 103.997 75.6969C100.509 75.6962 97.7903 77.1841 95.5753 79.7014C94.9536 80.408 94.8447 81.2336 94.8508 82.1347C94.8778 86.122 94.8628 90.1095 94.863 94.0969C94.8631 94.7039 94.863 95.311 94.863 96C79.5202 96 64.3772 96 49.1154 96C49.0781 95.4705 49.0151 94.9893 49.0147 94.5079C49.0089 86.9692 48.9779 79.4302 49.0284 71.8918C49.0481 68.9564 50.0639 66.1946 51.0695 63.4778C52.7083 59.0505 55.2046 55.0952 58.5617 51.5156Z" fill="#FEFEFE"/>
<path d="M123.735 130C98.7247 130 73.9051 130 49 130C49 122.906 49 116.018 49 109C96.3308 109 143.611 109 191 109C191 115.943 191 122.88 191 130C168.596 130 146.261 130 123.735 130Z" fill="#FEFEFE"/>
</svg>
