<svg width="124" height="174" viewBox="0 0 124 174" fill="none" xmlns="http://www.w3.org/2000/svg">
<path d="M62.8533 0.535156C66.2232 2.92957 69.098 6.50641 71.8324 9.66941C93.7295 35.0103 121.672 76.8757 123.468 111.055C126.202 163.171 65.4103 191.675 24.4909 161.959C-26.5752 124.86 14.6693 56.3088 43.9049 19.3432C49.0632 12.8176 54.4728 6.27732 60.4811 0.542542H62.8533V0.535156ZM61.4122 10.7484C61.0649 10.8149 60.7693 11.007 60.5032 11.2214C58.9661 12.4851 56.1947 16.2393 54.7389 17.976C35.0958 41.4694 9.08236 80.859 7.66344 112.068C5.54985 158.389 61.2422 182.297 96.3382 154.702C138.144 121.83 103.226 63.433 79.0452 30.894C74.9215 25.344 68.3516 16.0693 63.5332 11.5391C62.8976 10.9405 62.336 10.5636 61.4122 10.741V10.7484Z" fill="#FF4813"/>
<path d="M91.195 79.4928C92.9464 79.0864 94.528 79.6185 95.4961 81.1408C97.0702 83.6313 99.265 90.9476 100.189 94.0515C103.847 106.304 106.7 122.585 99.2946 133.966C97.2697 137.084 89.4509 145.753 86.0662 140.336C83.7678 136.656 88.0246 135.045 90.1012 133.234C100.507 124.159 95.969 105.558 92.3183 94.1402C91.4389 91.3836 88.9558 86.3509 88.6084 83.9713C88.335 82.1311 89.3031 79.9362 91.195 79.4928Z" fill="#FF4813"/>
</svg>
