<?xml version="1.0" encoding="UTF-8"?>
<svg id="Capa_1" xmlns="http://www.w3.org/2000/svg" version="1.1" viewBox="0 0 155.5 145">
  <!-- Generator: Adobe Illustrator 29.8.1, SVG Export Plug-In . SVG Version: 2.1.1 Build 2)  -->
  <defs>
    <style>
      .st0 {
        fill: #4b5563;
      }
    </style>
  </defs>
  <path class="st0" d="M55.26,67.47c-.24-.24-1.48-.3-2.19-.81-4.28-3.1-6.69-9.88-5.35-15.02.42-1.61,2.82-3.43,2.86-3.91.05-.48-2.26-7.06-2.55-8.87-2.52-16.2,3.42-28.72,19.63-33.42,11.28-3.26,26.92-3.67,35.11,6.03,2.13,2.53,3.81,5.17,6.03,7.85,4.59,5.54,2.31,14.99.59,21.33-.31,1.13-2.24,6.11-2.12,6.55.09.38,2.92,2.14,3.58,3.34,2.29,4.15-.27,12.17-3.62,15.22-1,.91-2.86,1.29-3.47,2.09-.33.43-4.03,9.45-4.2,10.13-.38,1.45-.5,9-.11,10.32.21.73,5.14,6.47,5.96,6.99,8.06,5.06,25.67,7.08,30.13,16.14,1.84,3.73,7.12,23.55,7.67,27.94.48,3.86-.05,4.05-3.79,4.3H19.01c-4.12-.36-3.62-2.06-2.94-5.3,1.47-7.09,4.36-18.41,6.78-25.13,1.77-4.91,4.3-6.61,8.75-8.82,5.5-2.72,18.59-6.33,22.55-9.38.59-.46,4.79-5.48,5.04-6.06.56-1.31.58-9.04.32-10.71-.24-1.54-1.85-3.76-2.51-5.36-.39-.95-1.53-5.23-1.73-5.44v.02ZM103.97,42.88c1.32-5.64,3.99-12.05,2.47-17.94-.67-2.6-2.68-3.31-4.05-5.2-1.37-1.89-1.94-4.17-3.71-6-9.14-9.37-33.08-6.17-41.43,3.03-6.56,7.23-6.3,19.5-2.56,27.95,4.75-6.04,15.25-6.74,20.16-11.76,1.43-1.46,1.51-3.56,3.93-3.52,3.87.07,1.3,8.74,1.14,11.12,5.41-.85,10.08-9.92,15.96-8.78,1.97.39,2.23,3.5,3.18,5.14,1.14,1.96,3.45,4.14,4.92,5.94h0ZM94.24,36.86c-.53-.08-.9,0-1.37.24-2.64,1.32-6.29,5.58-9.59,7.53-1.83,1.08-6.53,3.81-8.48,2.63-2.33-1.39,1.54-6.78.7-9.02-5.42,3.86-13.43,4.62-17.58,10.19-.58.79-.71,2.3-1.36,2.8-1.07.81-3.82.02-4.37,1.65-.75,2.25.99,8.58,3.18,9.61,1.12.52,2.77.11,3.71,1.38.75,1.03,1.06,3.92,1.61,5.32,8.91,22.52,29.23,22.33,37.72-.19.66-1.74.68-5.12,2.41-5.92.91-.42,1.92-.19,2.92-.79,2.08-1.22,4.13-7.34,2.9-9.4-1.04-1.72-2.93-.74-4.11-1.91-.67-.67-1.76-3.98-2.56-5.31-1.83-3.07-5.16-5.3-5.75-8.82h.01ZM94.71,84.48c-.25-.3-4.67,3.24-5.4,3.61-8.64,4.45-18.25,2.4-25.14-4.08.19,1.28-.3,3.16-.01,4.3.22.89,12.9,9.41,14.38,11.18.33.24.7.28,1.1.25,1.95-.16,12.14-9.8,14.85-11.11l.23-4.16h0ZM64.17,113.6c.7.19.76-.18,1.15-.46.98-.68,3.33-2.95,4.39-3.93,2.08-1.91,3.95-4.08,6-6.02-1.6-1.29-12.74-10.52-13.59-10.36-.32.06-3.95,4.3-3.89,5.2l5.91,15.57h.02ZM96.4,92.83c-1.6.3-10.87,9.13-13.25,10.36,1.47,1.19,10.12,10.22,10.88,10.39.63.14.81-.34,1.06-.77l5.62-15.19c-.56-.95-3.48-4.95-4.3-4.79ZM21.11,139.03h44.2c1.15-2.56,8.82-16.51,8.48-18.15-.07-.31-3.57-4.96-3.89-5-2.32-.37-5.11,7.14-8.08,3.51l-7.64-19.19-21.7,8.85c-3.6,1.94-4.51,4.08-5.71,7.7-2.35,7.11-3.83,15.01-5.68,22.29h.01ZM138.22,139.03c-2.48-7.58-3.71-16.08-6.24-23.58-1.39-4.11-2.8-5.03-6.55-6.86-6.41-3.15-13.8-5.28-20.32-8.32l-7.86,19.34c-2.16,3.07-6.61-3.85-7.8-3.65-.71.64-4.31,4.46-4.39,4.89-.32,1.69,7.78,15.22,8.26,18.19h44.9ZM79.27,106.24l-6.23,6.2c2.41,2.62,4.51,7.9,8.74,5.12.52-.34,4.15-4.74,4.15-5.11,0-.68-6.21-6.28-6.67-6.21ZM88.23,139.03l-7.17-15.72c-.54-.64-2.61-.76-3.06-.17-1.88,5.45-5.58,10.32-6.89,15.89h17.13-.01Z"/>
</svg>