<?xml version="1.0" encoding="UTF-8"?>
<svg id="Capa_1" xmlns="http://www.w3.org/2000/svg" version="1.1" viewBox="0 0 174.47 172.67">
  <!-- Generator: Adobe Illustrator 29.8.1, SVG Export Plug-In . SVG Version: 2.1.1 Build 2)  -->
  <defs>
    <style>
      .st0, .st1 {
        fill: #ff4813;
      }

      .st1 {
        stroke-width: 1.97px;
      }

      .st1, .st2 {
        stroke: #ff4813;
      }

      .st2 {
        fill: none;
        stroke-miterlimit: 10;
        stroke-width: 6.88px;
      }
    </style>
  </defs>
  <path class="st1" d="M74.26,5.93c7.92-3.53,17.46-3.61,25.45-.24l.77.34c2.86,1.31,5.16,3.25,7.71,5.18,2.51,1.91,5.22,3.78,8.74,4.64h0c2.25.55,4.41.62,6.49.6,2.12-.02,4.09-.14,6.17,0,15.52,1.06,28.11,13.76,29.1,29.08h0c.15,2.3,0,4.27,0,6.45,0,2.14.15,4.35.93,6.82.99,3.15,2.82,5.65,4.65,8,1.74,2.23,3.46,4.3,4.7,6.74l.24.49c3.75,8.01,3.76,17.87.09,25.92h0c-1.26,2.77-3.13,5.02-5.03,7.46-1.87,2.41-3.74,4.98-4.73,8.26h0c-.73,2.41-.86,4.58-.86,6.69,0,2.14.14,4.09,0,6.32-.98,15.26-13.34,27.72-28.68,29.05l-.73.05c-2.04.13-3.95.01-6.01,0-2.02-.02-4.12.05-6.33.59h0c-3.95.97-7.03,3.31-9.94,5.54-2.95,2.27-5.72,4.42-9.2,5.42l-6.95,1.71h-7.47c-3.55-.97-6.6-1.52-9.77-3.04h0c-2.77-1.33-4.98-3.23-7.46-5.11-2.44-1.86-5.08-3.66-8.55-4.51h0c-2.25-.55-4.41-.62-6.49-.6-2.11.02-4.09.14-6.17,0-15.32-1.05-28.03-13.61-29.08-28.77h0c-.17-2.39-.01-4.46-.02-6.74,0-2.24-.18-4.54-1.03-7.11-.99-2.98-2.69-5.32-4.4-7.48-1.73-2.2-3.44-4.19-4.67-6.62h0c-1.64-3.22-2.29-6.46-3.29-10.09v-7.7c.94-3.44,1.54-6.43,2.98-9.46l.3-.61c1.25-2.43,2.96-4.43,4.69-6.63,1.71-2.17,3.4-4.51,4.38-7.47.84-2.53,1.01-4.77,1.02-6.95,0-2.23-.14-4.22,0-6.58.99-15.31,13.58-28.02,29.1-29.08h0c2.01-.14,3.96-.02,6.04,0,2.05.03,4.17-.02,6.35-.53h0c3.62-.84,6.41-2.75,8.99-4.7,2.62-1.98,4.99-3.98,7.95-5.3h0ZM101.68,14.43c-4.62-3.07-9.49-5.77-16.18-5.29h-.04c-5.55.41-9.89,3.18-14.11,6.04-4.13,2.81-8.16,5.71-13.3,7.09l-.5.13c-4.47,1.1-9.05.8-13.82.97-4.7.16-9.46.79-13.78,3.94-3.3,2.4-5.38,4.99-6.69,7.75-1.3,2.74-1.82,5.6-2.06,8.47-.12,1.44-.17,2.89-.22,4.34-.04,1.46-.08,2.91-.17,4.38-.18,2.93-.56,5.86-1.59,8.8-1.38,3.96-4.03,7.4-6.64,10.92-2.48,3.35-4.95,6.82-5.81,10.74l-.08.38c-1.41,7.37.87,12.24,3.94,16.69,2.99,4.33,6.5,8.06,8.49,13.5l.19.53c.99,2.91,1.35,5.76,1.51,8.6.08,1.42.11,2.82.15,4.23.04,1.4.08,2.8.18,4.19.21,2.77.68,5.54,1.89,8.22,1.22,2.7,3.17,5.27,6.28,7.72,4.67,3.67,10.12,4.31,15.56,4.57,5.52.26,10.97.14,16.17,2.01,5.67,2.04,9.33,5.45,13.71,8.29,4.37,2.82,9.17,4.81,16.64,3.47,3.9-.7,6.83-2.52,9.51-4.49,2.72-2,5.11-4.07,8.16-5.58h0c2.12-1.05,5.26-2.27,7.53-2.82h0c4.47-1.1,9.05-.81,13.82-.97,4.7-.16,9.46-.79,13.78-3.95h0c3.3-2.4,5.38-4.99,6.69-7.75,1.3-2.75,1.82-5.6,2.06-8.47.12-1.44.17-2.89.22-4.34.04-1.46.08-2.91.17-4.38.18-2.93.56-5.86,1.59-8.8,1.38-3.96,4.03-7.4,6.64-10.92,2.48-3.35,4.95-6.82,5.81-10.74l.08-.38c1.41-7.37-.87-12.24-3.94-16.69-3.08-4.47-6.73-8.3-8.68-14.03-.99-2.91-1.35-5.78-1.51-8.64-.08-1.43-.12-2.85-.15-4.27-.04-1.41-.08-2.83-.19-4.23-.22-2.8-.7-5.59-1.95-8.29-1.25-2.71-3.24-5.29-6.4-7.71-4.42-3.39-9.22-4.09-13.97-4.27-4.83-.18-9.44.15-14.05-.99h0c-5.93-1.46-10.28-4.86-14.94-7.96Z"/>
  <path class="st0" d="M103.28,63.89l9.38,9.38-31.28,31.04-17.77-18.01,9.14-9.14,8.86,8.24,21.65-21.51Z"/>
  <path class="st2" d="M87.5,136.86c27.92,0,50.55-22.63,50.55-50.55s-22.63-50.55-50.55-50.55-50.55,22.63-50.55,50.55,22.63,50.55,50.55,50.55Z"/>
</svg>