<?xml version="1.0" encoding="UTF-8"?>
<svg id="Capa_1" xmlns="http://www.w3.org/2000/svg" version="1.1" viewBox="0 0 145 145">
  <!-- Generator: Adobe Illustrator 29.7.1, SVG Export Plug-In . SVG Version: 2.1.1 Build 8)  -->
  <defs>
    <style>
      .st0 {
        fill: #4c5664;
      }
    </style>
  </defs>
  <path class="st0" d="M15.7,68.96c2.36-.25,4.57,1.33,4.04,3.87-.42,2.03-2.33,2.42-4,2.96s-6.55,2.08-8.09,2.11c-3.21.05-4.8-4.43-2-6.08,1.27-.75,8.46-2.7,10.05-2.87Z"/>
  <path class="st0" d="M6.18,53.16c2.38-.18,6.47-.26,8.77.14,3.79.66,3.54,5.98-.17,6.42-2.86.34-6.96.33-9.82,0-4.01-.46-3.92-5.75-.49-6.4.46-.09,1.21-.12,1.71-.16Z"/>
  <path class="st0" d="M128.73,68.96c1.59-.27,5.96,1.06,7.69,1.57,1.25.37,3.73.94,4.56,1.9,1.27,1.46.78,4.09-.9,4.99s-2.27.12-3.86-.23c-2.31-.51-7.38-1.15-8.98-2.74-1.82-1.81-1.07-5.05,1.49-5.49Z"/>
  <path class="st0" d="M137.92,35.13c3.56-.28,5.16,3.76,2.4,5.98l-10.79,2.99c-3.76-.29-4.7-4.92-.97-6.42,1.9-.77,7.42-2.4,9.36-2.55Z"/>
  <path class="st0" d="M7.03,35.13c1.6-.2,6.72,1.38,8.5,1.95.95.3,2.67.73,3.34,1.42,1.95,2.03.53,5.61-2.34,5.58l-11.02-3.11c-2.17-1.67-1.28-5.51,1.52-5.85Z"/>
  <path class="st0" d="M132.31,53.5c2.1-.19,7.64-.31,9.52.23,2.27.65,2.63,3.94.53,5.23-.71.44-2.58.56-3.47.61-1.87.1-6.81.15-8.42-.44-1.91-.7-2.52-3.16-1.09-4.65.75-.79,1.9-.9,2.92-.99Z"/>
  <g>
    <path class="st0" d="M70.78,7.78c41.26-1.89,66.46,46.35,40.48,78.89-4.58,5.74-14.72,11.91-15.29,19.56-.56,7.41.9,15.12-.21,22.57-.94,1.15-2.11,2.09-3.11,3.18-1.48,1.6-5.9,7.02-7.83,7.3-8.04.08-16.06,0-24.08-.19-3.74-2.9-6.81-6.57-10.23-9.83-1.02-1.59-.83-7.99-.78-10.11.1-4.52.81-9.24.16-13.74-.91-6.24-6.7-9.93-10.86-13.96C8.58,61.98,28.33,9.72,70.78,7.78ZM90.02,104.61c1.28-10.1,11.35-15.18,17.06-22.62,22.23-28.98-1.73-71.09-37.71-67.97-31.5,2.73-49.59,38.71-32.28,65.42,3.81,5.88,8.77,9.11,13.25,14.12,2.78,3.11,5.15,6.81,5.7,11.04h33.99ZM56.36,110.56v6.97h33.31v-6.97h-33.31ZM89.68,123.31h-33.31v3.14c0,.41,5.03,5.32,5.69,5.87,1.28,1.06,1.87.58,3.4.68,5.77.35,11.64.15,17.43.09.32-.12.58-.31.85-.51,1.12-.86,4.48-4.23,5.35-5.35.12-.15.59-.85.59-.94v-2.97Z"/>
    <g>
      <path class="st0" d="M105.42,49.14c-1.27,1.35-3.73,2.26-4.95,3.46-1,.98-.07,2.75-.07,3.99,0,.97-.7,2.61-.27,3.49.16.32,3.66,2.39,4.34,2.97.77.66,1.98,1.84,2.04,2.9.06,1.12-1.65,3.43-2.25,4.55-1.15,2.16-4.19,8.88-5.96,10.01-2.57,1.65-6.22-1.52-8.71-2.25-.65.35-1.19.86-1.84,1.22-.95.53-3.8,1.63-4.23,2.4-.56,1.01-.21,2.62-.31,3.77-.15,1.91-.28,4.4-2.54,4.94-2.7.64-5.87.15-8.6.08-2.51-.07-5.02-.04-7.52-.3-1.96-.79-1.6-5.81-1.96-7.56-.39-1.92-1.21-1.49-2.62-2.31-.65-.38-3.08-2.21-3.54-2.22-2.41.66-6.12,3.82-8.65,2.34-1.14-.67-3.28-4.5-4.05-5.81-1.13-1.91-4.31-7.17-4.21-9.18.13-2.56,6.18-4.61,6.44-5.98.17-.88-.32-2.1-.34-3.05-.03-1.05.61-2.9.26-3.66-.27-.6-4.14-2.7-5.01-3.48-2.86-2.57-.48-4.57.88-7.11s3.41-7.39,5.24-9.38c2.86-3.11,7.03,1.72,9.43,1.63.65-.03,3.22-1.95,4.05-2.42,1.56-.89,1.76-.19,2.13-2.29.32-1.84-.05-6.97,2.35-7.5,1.29-.29,3.92.01,5.41-.03,2.99-.08,6.18-.44,9.18-.18,2.18.19,3.26,1.32,3.48,3.49.12,1.24-.07,4.74.53,5.59.66.93,4.98,2.12,5.87,3.47,2.45-.68,6.26-3.88,8.79-2.32,1.29.8,4.68,6.87,5.58,8.53,1.26,2.32,3.85,5.84,1.61,8.21ZM77.44,28.12h-8.84c-.41,2.23.23,6.28-1.79,7.82-1.1.84-3.13,1.27-4.45,2.01s-3.78,3.1-5.11,3.22c-1.59.14-5.64-2.63-6.56-2.32-.43.14-3.69,6.19-4.19,7.04.02.91,4.74,3.14,5.39,4.81s-.36,4.38-.29,6.24c.06,1.65.88,3.81.3,5.39-.67,1.84-5.28,3.51-5.4,4.64-.1.95,3.75,5.86,4.11,7.19.5.31,4.06-1.69,4.86-1.97,1.66-.59,1.94-.47,3.43.4,1.19.69,2.27,1.79,3.47,2.48,1.32.76,3.34,1.16,4.45,2.01,2,1.53,1.35,5.63,1.79,7.82h8.84c.24-2.06-.12-6.25,1.54-7.72.94-.83,3.12-1.28,4.35-1.94,1.4-.75,3.9-3.22,5.25-3.42,1.89-.28,5.66,2.66,6.59,2.35.36-.12,3.7-5.78,4.05-6.5.08-.17.27-.41.28-.57.06-.74-4.43-3.21-5.15-4.31-1.11-1.71.09-4.33.09-6.2,0-1.7-1.1-4.69-.26-6.19.74-1.32,5.21-3.71,5.32-4.37-.61-.8-3.78-7.05-4.18-7.18-1.04-.35-4.72,2.53-6.93,2.18-1.37-.22-3.75-2.62-5.14-3.36-1.18-.63-3.01-.96-4.05-1.73-1.99-1.48-1.54-5.59-1.79-7.82Z"/>
      <path class="st0" d="M84.63,56.48c0,6.43-5.22,11.65-11.65,11.65s-11.65-5.22-11.65-11.65,5.22-11.65,11.65-11.65,11.65,5.22,11.65,11.65ZM78.7,56.48c0-3.16-2.56-5.72-5.72-5.72s-5.72,2.56-5.72,5.72,2.56,5.72,5.72,5.72,5.72-2.56,5.72-5.72Z"/>
    </g>
  </g>
</svg>