<?xml version="1.0" encoding="UTF-8"?>
<svg id="Capa_1" xmlns="http://www.w3.org/2000/svg" version="1.1" viewBox="0 0 145 145">
  <!-- Generator: Adobe Illustrator 29.8.2, SVG Export Plug-In . SVG Version: 2.1.1 Build 3)  -->
  <defs>
    <style>
      .st0 {
        fill: #4b5563;
      }
    </style>
  </defs>
  <g>
    <path class="st0" d="M14.56,41.63v10.56h-2.12v-6.87l-2.83,6.87h-1.6l-2.84-6.87v6.87h-2.12v-10.56h2.41l3.36,7.85,3.36-7.85h2.39Z"/>
    <path class="st0" d="M23.12,50.18h-4.21l-.7,2.01h-2.22l3.8-10.58h2.47l3.8,10.58h-2.24l-.7-2.01ZM22.55,48.48l-1.53-4.42-1.53,4.42h3.06Z"/>
    <path class="st0" d="M34.1,42.28c.84.43,1.49,1.05,1.95,1.85s.69,1.73.69,2.79-.23,1.98-.69,2.78c-.46.79-1.11,1.4-1.95,1.84-.84.43-1.82.65-2.93.65h-3.69v-10.56h3.69c1.11,0,2.09.22,2.93.65ZM33.67,49.48c.6-.61.91-1.46.91-2.56s-.3-1.96-.91-2.58c-.61-.62-1.46-.93-2.57-.93h-1.5v6.98h1.5c1.11,0,1.97-.3,2.57-.91Z"/>
    <path class="st0" d="M40.45,43.34v2.65h3.56v1.68h-3.56v2.8h4.01v1.73h-6.13v-10.58h6.13v1.73h-4.01Z"/>
    <path class="st0" d="M52.1,41.63v10.56h-2.12v-10.56h2.12Z"/>
    <path class="st0" d="M63.22,52.19h-2.12l-4.8-7.25v7.25h-2.12v-10.58h2.12l4.8,7.26v-7.26h2.12v10.58Z"/>
  </g>
  <g>
    <path class="st0" d="M4.32,69.9c1.64-2.88,3.88-5.12,6.73-6.73,2.84-1.61,6.03-2.41,9.56-2.41,4.13,0,7.75,1.06,10.86,3.18,3.11,2.12,5.28,5.05,6.51,8.79h-8.53c-.85-1.76-2.04-3.09-3.58-3.97-1.54-.88-3.31-1.32-5.32-1.32-2.15,0-4.07.5-5.75,1.51-1.68,1.01-2.98,2.43-3.92,4.26-.94,1.84-1.4,3.99-1.4,6.46s.47,4.58,1.4,6.43c.93,1.85,2.24,3.28,3.92,4.29,1.68,1.01,3.59,1.51,5.75,1.51,2.01,0,3.79-.45,5.32-1.35,1.54-.9,2.73-2.23,3.58-4h8.53c-1.24,3.78-3.4,6.72-6.49,8.82-3.09,2.1-6.72,3.15-10.88,3.15-3.53,0-6.72-.8-9.56-2.41s-5.08-3.84-6.73-6.7c-1.64-2.86-2.46-6.11-2.46-9.74s.82-6.89,2.46-9.77Z"/>
    <path class="st0" d="M74.99,61.25v36.97h-7.41v-15.73h-15.84v15.73h-7.41v-36.97h7.41v15.2h15.84v-15.2h7.41Z"/>
    <path class="st0" d="M89.71,61.25v36.97h-7.41v-36.97h7.41Z"/>
    <path class="st0" d="M104.44,92.33h12.18v5.88h-19.6v-36.97h7.41v31.09Z"/>
    <path class="st0" d="M128.75,67.23v9.27h12.45v5.88h-12.45v9.8h14.04v6.04h-21.45v-37.02h21.45v6.04h-14.04Z"/>
  </g>
</svg>