<?xml version="1.0" encoding="UTF-8"?>
<svg id="Capa_1" xmlns="http://www.w3.org/2000/svg" version="1.1" viewBox="0 0 145 145">
  <!-- Generator: Adobe Illustrator 29.8.1, SVG Export Plug-In . SVG Version: 2.1.1 Build 2)  -->
  <defs>
    <style>
      .st0 {
        fill: #4b5563;
      }
    </style>
  </defs>
  <path class="st0" d="M88.54,18.98c4.19,1.38,8.11,3.15,11.81,5.54l4.19-4.81,3.15,9.54c3.69,2.5,7.31,5.58,10.81,9.08l-9.38-.65.85,15.31-7.69-15-12.5,1.23,7.35-9.31c-2.35-4.11-5.23-7.81-8.61-10.92"/>
  <path class="st0" d="M127.3,66.08l-5.85,1.42-4.73-8.11c.42,3.19.5,6.35.38,9.31l-6.69,2.42,6.54,3.81-.88,9.35,4.92-6.81,5.38,4.65-2.92-9.11,3.88-6.92h-.04Z"/>
  <path class="st0" d="M126.72,49.59l-4,1.15,5,2.19,1.85,6,.77-3.54,3.27,2.85-2.65-6.08.96-4.08-3.42.92-4.11-4.42,2.35,5Z"/>
  <path class="st0" d="M140.45,86.66l4-5.73-4.19-2.54c-.27-5.42-1.08-10.08-2.46-13.77.19,4.11-1.12,12.23-1.12,12.23-2.08-1.12-4.46-1.81-7.19-2.12,2.27,2.38,4.12,5.58,5.38,9.5-1.19,4.65-2.73,8.38-4.62,11.11l6.81-5.04s1.73,5.85,1.81,9.15c1.04-3.54,1.54-7.85,1.54-12.81"/>
  <path class="st0" d="M132,108.08c-.77,1.23-2.19,2.42-4.19,3.73,1.58-.31,2.65-.35,3.38-.19-.31,2-.81,3.85-1.42,5.54l3.23-5.69,2.73-.5-.96-3.69,2.58-5.92c-.96,1.54-1.96,2.88-3.23,4.19l-1.69-3.04-.46,5.58h.04Z"/>
  <path class="st0" d="M101.07,58.05l2.23,6,1.19-3.73c2,1.15,3.73,2.42,5.31,3.73l-4.73-5.73.58-3.11h-3.42l-5.38-4.85,2.96,4.81-4.46.15,5.73,2.73Z"/>
  <path class="st0" d="M20.81,117.27c-10.73,0-17.54-7.73-17.54-18.73s6.81-18.73,17.54-18.73c6.77,0,11.27,2.38,14.11,6.81l-5.54,3c-2.12-2.96-4.35-4.35-8.61-4.35-7.23,0-11.15,5.15-11.15,13.27s3.92,13.27,11.15,13.27c4.35,0,7-1.58,9.15-4.5l5.15,3c-2.96,4.46-8,6.96-14.31,6.96"/>
  <path class="st0" d="M58.04,116.69v-15.38c0-5.5-2.35-7.46-6.38-7.46s-6.42,2.54-6.42,6.96v15.92h-6.11v-35l6.11-2.81v13.15c1.54-1.96,4.61-3.15,7.81-3.15,7.27,0,11.11,4.15,11.11,12.19v15.61h-6.11v-.04Z"/>
  <path class="st0" d="M80.15,116.69v-34.96l6.11-2.81v37.77h-6.11Z"/>
  <path class="st0" d="M69.19,89.62v-2.65l6.11-2.81v5.46h-6.11Z"/>
  <path class="st0" d="M103.26,93.74c-4.08,0-6.58,2.46-7.11,6.85h14.46c-.31-3.73-2.31-6.85-7.34-6.85ZM116.61,105h-20.57c.65,5.23,4.04,7.46,7.85,7.46,2.62,0,4.69-.85,6.77-2.19l3.62,3.42c-2.73,2.31-6,3.58-10.73,3.58-7.31,0-13.46-5.15-13.46-14.15s5.58-14.19,13.65-14.19c8.84,0,13.11,6.27,13.11,13.65,0,.96-.12,1.85-.19,2.42"/>
  <path class="st0" d="M75.31,91.59h-6.11v25.11h6.11v-25.11Z"/>
</svg>