<?xml version="1.0" encoding="UTF-8"?>
<svg id="Capa_1" xmlns="http://www.w3.org/2000/svg" version="1.1" viewBox="0 0 180.76 180.76">
  <!-- Generator: Adobe Illustrator 29.8.3, SVG Export Plug-In . SVG Version: 2.1.1 Build 3)  -->
  <defs>
    <style>
      .st0 {
        fill: #fefdfd;
      }

      .st1 {
        fill: #fe4a16;
      }

      .st2 {
        fill: #fefefe;
      }
    </style>
  </defs>
  <path class="st2" d="M88.09,51.25l1,.58c.7,2.61,7.49,11.86,7.46,13.7-.02,1.28-5.19,2.46-6.01,3.84-1.03,1.71,0,4.12,1.98,4.41l29.93,7.1c1.32.11,2.4-.38,3.15-1.46,4.29-8.45,11.63-16.8,15.71-25.16,1.52-3.11-.18-4.98-3.55-4.26-1.09.23-4.01,2.06-4.73,1.26l-14.56-31.97c-.56-1.27-1.82-1.41-3.05-1.53-14.63-1.36-31.34,1.06-46.19,0l-2.51.84-26.53,31.79c-1.52,1.54-1.35,3.33.02,4.89l26.69,19.82c1.17.79,3.09.73,4.08-.26l17.12-23.58ZM119.45,123.12v-6.17c0-1.67-3.96-2.76-5.12-1.24l-19,24.34c-.77,1.03-.79,2.51-.15,3.62l17.06,25.22c1.22,1.17,2.71,1.39,4,.19.21-.2,1.07-1.64,1.07-1.74v-5.11h35.41c.11,0,1.75-.73,1.93-.89l20.44-45.11-.75-2.39-18.37-37.47c-.79-.37-1.75-.95-2.61-.55-8.87,5.33-18.72,9.77-27.48,15.18-2.67,1.65-4.81,2.31-3.24,5.83,3.11,7,8.34,14.54,11.99,21.48.27.51,1.91,3.57,1.7,3.76l-16.91,1.06ZM56.04,107.99c1.02-.71,9.36,7.37,9.51-.18-3.7-9.02-6.34-19.31-10.32-28.12-.73-1.63-.89-2.85-2.91-3.08-5.32-.63-13.46.48-19.02.73-4.21.18-8.42-.08-12.62.41-2.47,1.2-2.45,3.2-.61,5.04.83.83,4.1,2.36,3.83,3.44l-18.05,29.54c-.57.96-.74,1.95-.25,2.98l27.92,41.49c.8,1.11,1.79,2.12,3.27,2.02l42.14-.17c1.35-.58,2.01-1.76,2.1-3.19l-.17-32.25c-.44-1.41-1.43-2.13-2.85-2.43-9.7-.19-19.37-1.01-29.04-1.08l7.06-15.14Z"/>
  <path class="st1" d="M56.04,107.99l-7.06,15.14c9.67.07,19.35.89,29.04,1.08,1.42.3,2.41,1.03,2.85,2.43l.17,32.25c-.09,1.43-.75,2.61-2.1,3.19l-42.14.17c-1.47.1-2.47-.9-3.27-2.02L5.61,118.74c-.5-1.03-.33-2.02.25-2.98l18.05-29.54c.27-1.07-3-2.61-3.83-3.44-1.84-1.84-1.86-3.84.61-5.04,4.2-.5,8.42-.23,12.62-.41,5.56-.24,13.7-1.35,19.02-.73,2.01.24,2.17,1.46,2.91,3.08,3.97,8.81,6.61,19.1,10.32,28.12-.15,7.55-8.49-.54-9.51.18ZM50.34,82.3l-19.33.66c.05,1.28.64,2.31-.22,3.48l-18.75,30.61,18.27,28.27c.2.14.51-.38.65-.58,2.81-4.14,5.93-10.97,8.34-15.62,4.17-8.03,8.23-18.43,12.92-25.84,1.56-2.46,2.27-2.84,5.21-1.83l-7.09-19.16ZM75.05,129.82l-29.25-.89-11.22,21.59c-.26,1.62,2.81,4.25,3.12,6.08h37.35v-26.78Z"/>
  <path class="st1" d="M88.09,51.25l-17.12,23.58c-.99,1-2.91,1.05-4.08.26l-26.69-19.82c-1.37-1.56-1.55-3.35-.02-4.89l26.53-31.79,2.51-.84c14.85,1.07,31.55-1.35,46.19,0,1.23.11,2.5.26,3.05,1.53l14.56,31.97c.72.8,3.64-1.03,4.73-1.26,3.37-.72,5.07,1.14,3.55,4.26-4.08,8.36-11.42,16.71-15.71,25.16-.75,1.08-1.83,1.57-3.15,1.46l-29.93-7.1c-1.99-.29-3-2.7-1.98-4.41.82-1.38,5.99-2.56,6.01-3.84.03-1.84-6.76-11.1-7.46-13.7l-1-.58ZM73.94,23.47c-1.13,0-3.13-.38-4.02.27l-23.75,28.4,21.73,16.33,17.71-23.03-11.67-21.97ZM114.16,23.41h-33.83l11.57,21.73c3.05,6.62,8.73,13.7,11.39,20.31.53,1.32.98,2.42-.17,3.65-.45.49-1.52.5-1.65,1.16l19.22,4.61,1.03-.38,10.04-16.2c-1.4.01-2.43-.89-3-2.11l-14.61-32.78Z"/>
  <path class="st1" d="M119.45,123.12l16.91-1.06c.21-.19-1.43-3.25-1.7-3.76-3.65-6.94-8.89-14.47-11.99-21.48-1.56-3.52.57-4.18,3.24-5.83,8.76-5.42,18.61-9.85,27.48-15.18.86-.41,1.81.18,2.61.55l18.37,37.47.75,2.39-20.44,45.11c-.18.16-1.82.89-1.93.89h-35.41v5.11c0,.1-.86,1.55-1.07,1.74-1.29,1.2-2.78.98-4-.19l-17.06-25.22c-.64-1.11-.63-2.59.15-3.62l19-24.34c1.16-1.52,5.12-.43,5.12,1.24v6.17ZM152.9,82.62l-23.92,13.25,13.95,25.43,24.55-1.69c.65-1.37,2.12-2.97,1.37-4.49l-15.95-32.5ZM165.25,125.59c-16.05,1.09-32.09,2.25-48.1,3.9-2.47-.07-3.06-1.7-3.17-3.91l-12.11,15.37-.34,1.63,10.69,15.77c.51-1.06,1.2-1.73,2.46-1.77l36.24-.05,14.33-30.95Z"/>
  <path class="st0" d="M75.05,129.82v26.78h-37.35c-.31-1.82-3.38-4.45-3.12-6.08l11.22-21.59,29.25.89Z"/>
  <path class="st0" d="M50.34,82.3l7.09,19.16c-2.94-1.01-3.65-.63-5.21,1.83-4.69,7.4-8.76,17.8-12.92,25.84-2.41,4.65-5.53,11.48-8.34,15.62-.14.21-.44.72-.65.58l-18.27-28.27,18.75-30.61c.86-1.17.27-2.2.22-3.48l19.33-.66Z"/>
  <path class="st0" d="M114.16,23.41l14.61,32.78c.57,1.22,1.6,2.12,3,2.11l-10.04,16.2-1.03.38-19.22-4.61c.13-.66,1.2-.67,1.65-1.16,1.15-1.23.7-2.33.17-3.65-2.66-6.61-8.35-13.7-11.39-20.31l-11.57-21.73h33.83Z"/>
  <path class="st0" d="M73.94,23.47l11.67,21.97-17.71,23.03-21.73-16.33,23.75-28.4c.89-.65,2.9-.27,4.02-.27Z"/>
  <path class="st0" d="M165.25,125.59l-14.33,30.95-36.24.05c-1.26.04-1.95.71-2.46,1.77l-10.69-15.77.34-1.63,12.11-15.37c.11,2.2.7,3.84,3.17,3.91,16-1.66,32.05-2.82,48.1-3.9Z"/>
  <path class="st0" d="M152.9,82.62l15.95,32.5c.75,1.52-.73,3.13-1.37,4.49l-24.55,1.69-13.95-25.43,23.92-13.25Z"/>
</svg>