<svg width="118" height="221" viewBox="0 0 118 221" fill="none" xmlns="http://www.w3.org/2000/svg">
<path d="M14.1011 75.1925C13.3397 72.5856 10.012 71.5784 11.9289 68.4597C18.1096 62.7287 23.6946 55.3496 29.7947 49.624C32.5671 47.0224 33.4986 49.5755 35.5589 52.2094C40.378 58.3605 44.6508 65.2818 49.5953 71.3144C50.7284 72.9034 49.8327 73.6682 49.4386 75.1925C50.1238 75.0309 52.717 75.4511 53.0081 75.1494C53.6352 74.4977 56.085 60.5204 56.9942 58.479C57.3212 57.4502 57.9885 56.4915 58.9828 56.5184L83.5264 65.2064C85.6494 66.8923 83.0965 72.7418 82.6128 75.1979H106.95C108.885 75.1979 111.277 77.9718 111.841 80.1587C112.405 82.3455 112.432 90.6564 112.146 93.1557C111.658 97.4862 107.685 100.222 104.245 99.4791L96.1565 210.953C95.0951 215.402 92.3317 218.079 88.565 218.736C68.4554 217.422 46.8185 220.476 26.888 218.752C22.239 218.348 19.1173 215.327 18.1007 209.811L10.124 99.5114C1.77557 100.626 1.60089 90.1232 2.21448 82.7979C2.47425 79.7062 4.53896 75.2033 7.43672 75.2033H14.1056L14.1011 75.1925ZM19.2517 75.0633C19.8115 75.6073 20.4475 75.575 21.1149 75.645C26.0415 76.1513 37.2698 76.3183 42.0531 75.6396C43.7281 75.4026 44.3552 74.1314 45.4659 72.8118L31.6534 54.4285L16.4346 70.4203C16.2464 70.9212 18.8352 74.6593 19.2562 75.0686L19.2517 75.0633ZM57.0121 75.6288H78.1071C78.761 75.6288 79.9927 69.7793 80.0912 68.6913L60.0891 62.174L57.0121 75.6288ZM6.15579 80.3795V95.1647H108.231V80.3795H6.15579ZM100.277 99.91H14.4594C14.4594 103.007 14.6296 106.142 14.8222 109.228C16.7749 140.517 18.88 173.039 21.6747 204.193C22.0912 208.852 21.9434 213.549 26.888 213.969C46.505 212.617 67.703 215.709 87.1318 213.969C89.846 213.727 91.6151 212.774 92.3182 209.364L100.277 99.9046V99.91Z" fill="#FF4813" stroke="#FF4813" stroke-width="3" stroke-miterlimit="10"/>
<path d="M86.1246 35.6796L111.568 49.964C115.357 52.5548 117.086 56.5837 115.814 61.7275C115.411 63.3596 111.555 73.1195 110.78 73.8843C110.068 74.5899 109.208 74.4068 108.339 74.2236C78.5241 56.4598 47.9924 40.3818 18.1683 22.6611C16.1439 21.4599 11.8488 19.9302 12.1802 16.9086C12.2877 15.9121 16.3858 6.09296 17.0621 4.97262C18.876 1.97248 22.2395 0.50742 25.2493 1.14838C33.4141 5.0588 41.122 10.235 49.2017 14.4039C53.6088 10.3966 55.4764 5.01032 62.0244 6.3515C64.9983 6.96015 77.1044 14.2047 80.4455 16.2837C88.476 21.2768 86.9532 25.8443 86.1246 35.685V35.6796ZM20.9452 7.26178C19.3821 9.0931 18.3251 14.1939 16.8964 16.4453L17.4473 17.027L108.756 68.4173C109.97 64.4961 114.242 58.7813 110.377 55.3125L26.1137 6.60465C24.5192 5.44122 22.2933 5.67822 20.9452 7.26178ZM82.4789 33.1319C82.9089 25.0795 84.0554 23.9376 77.924 20.1888C73.6334 17.5657 68.3842 14.4794 63.9771 12.2494C63.0903 11.8024 61.0839 10.6551 60.2777 10.612C57.792 10.4774 54.93 14.5224 53.2818 16.4453L82.4834 33.1319H82.4789Z" fill="#FF4813" stroke="#FF4813" stroke-width="2" stroke-miterlimit="10"/>
<path d="M37 100V214.609" stroke="#FF4813" stroke-width="9" stroke-miterlimit="10"/>
<path d="M57.0122 99.9102V216.733" stroke="#FF4813" stroke-width="8" stroke-miterlimit="10"/>
<path d="M77.373 98.6738V215.749" stroke="#FF4813" stroke-width="8" stroke-miterlimit="10"/>
</svg>
