<?xml version="1.0" encoding="UTF-8"?>
<svg id="Capa_1" xmlns="http://www.w3.org/2000/svg" version="1.1" viewBox="0 0 226.79 205.63">
  <!-- Generator: Adobe Illustrator 29.8.1, SVG Export Plug-In . SVG Version: 2.1.1 Build 2)  -->
  <defs>
    <style>
      .st0 {
        fill: #4b5563;
      }
    </style>
  </defs>
  <path class="st0" d="M207.06,172.5c-.78.87-3.12,1.49-4.34,1.34-5.56-.69-22.24-20.68-24.05-20.68l-9.09,8.52c3.06,4.33,24.27,19.37,21.77,24.28-2.18,4.28-13.46,6.41-18.25,6.65-20.73,1.08-40.91-13.79-42.79-33.57-.35-3.68,1.29-13.78.72-15.07-.66-1.5-21.91-21.23-24.51-23.1-5.03-3.6-11.32,1.71-11.34,5.32,0,5.92,17.81,9.43,8.53,19.78-7.05,7.86-15.64,1.99-16.89,3.22-.32.31.67,5.32-1.34,8.62-1.97,3.23-36.59,34.28-40.25,35.87-20.91,9.04-41.09-12.23-26.45-30.06,3.16-3.86,34.89-33.98,37.81-35.54,2.74-1.46,4.76-1.49,7.79-1.25.81-.61-6.31-10.93,5.14-16.93,8.5-4.45,14.86,10.98,19.21,10.27.79-.13,7.66-6.57,7.8-7.31.46-2.46-23.42-22.37-26.56-26.08-3.85-2.31-8.53.55-11.89.36-27.16-1.58-43.53-21.01-39.84-46.27,4.27-29.33,26.72,9.3,32.63,8.33,1.1-.18,8.09-6.75,7.8-8.27-.52-2.8-18.28-15.32-20.23-19.26-5.2-10.46,19.88-11.21,26.53-10.38,14.42,1.79,30.96,15.9,32.95,29.58.82,5.67-1.32,15.74.84,20.23.91,1.88,24.76,23.73,26.61,23.73,15.3-12.58,31.41-26.59,43.86-41.75,1.17-4.38.55-14.92,3.01-18.21,1.47-1.97,23.41-15.3,25.99-15.05,2.37.23,14.7,11.48,14.75,13.81.04,1.6-13.5,20.68-15.41,22.38-6.47,5.79-17.47,1.97-24.62,5.84-3.1,1.67-35.93,32.83-39.22,36.84-.8.98-2.29,1.55-1.96,3.14.33,1.74,24.86,24.41,26.57,25.15,3.99,1.72,8.62-.81,13.27-.76,23.74.22,42.96,21.98,39.6,43.8-.3,1.93-3.29,11.48-4.19,12.48h0ZM192.92,132.55c-4.43-3.95-14.2-7.74-20.28-8.05-5.01-.25-13.19,3.1-16.41,1.15l-67.31-63.26c1.1-13.19,2.48-25.24-8.53-35.31-4.93-4.51-30.13-13.23-29.97-6.05.03,1.6,19.25,15.79,19.68,19.78.3,2.88-15.38,18.15-17.91,18.81-5.97,1.56-16.26-12.54-21.42-16.26-1.41-1.01-1.77-2.55-4.21-1.95-1.56,13.58,2.47,27.54,16.37,33.92,11.43,5.25,19.45,1.13,30.38,3.02l65.47,60.89c3.31,5.36-.43,11.05-.1,17.11,1.05,18.69,21.59,32.07,40.68,26.98-6.09-7.94-15.76-13.41-21.08-21.67,0-1.69,15.81-16.94,17.87-17.52,8.44-2.36,18.32,14.64,25.62,18.17,3.44-9.63-1.11-22.87-8.88-29.78h0ZM177.98,42.72c3.95-1.66,10.16-.39,13.42-2.52.82-.54,11.47-14.52,11.62-15.46.41-2.48-4.53-5.99-7.18-5.48-.9.17-14.47,9.02-15.05,9.69-1.5,1.67-3.65,12.87-2.81,13.78ZM96.66,141.29c-6.53-6.12-13.86-15.2-21.03-20.37-1.41-1.01-1.78-2.54-4.21-1.95-.58,3.83,4.54,11.51,2.21,14.53-3.25,2.47-7.69.63-11.3,1.25-2.49.43-33.73,29.23-36.38,32.92-8.66,12.09,1.99,23.86,15.67,18.63,8.57-3.27,26.14-26.8,35.49-32.45,2.48-2.52.49-12.27,2.92-13.69,2.96-1.73,12.56,2.32,16.63,1.12h-.01Z"/>
</svg>