<?xml version="1.0" encoding="UTF-8"?>
<svg id="Capa_1" xmlns="http://www.w3.org/2000/svg" version="1.1" viewBox="0 0 145 145">
  <!-- Generator: Adobe Illustrator 29.7.1, SVG Export Plug-In . SVG Version: 2.1.1 Build 8)  -->
  <defs>
    <style>
      .st0 {
        fill: #4b5563;
      }
    </style>
  </defs>
  <path class="st0" d="M32.42,79.97h24.96c2.47.21,4.46.54,6.67,1.68,5.23,2.69,11.13,6.3,16.22,9.36,1.65.99,4,2.29,5.38,3.59,2.27,2.14,3.76,5.61,3.71,8.72,1.55-.62,3.04-1.44,4.53-2.21,7.66-3.98,20.95-12.65,29.35-12.36,7.67.26,16.68,4.8,20.18,11.86,1.08,2.17.63,2.8-1.12,4.32-18.5,11.42-36.69,23.35-55.26,34.66-5.05,3.08-7.87,5.46-14.26,2.81l-33.24-19.14h-7.12v10.34c0,.89-1.79,2.39-2.75,2.38-7.78-.52-16.44.68-24.12,0-1.24-.11-2.47-.82-2.92-2.01-.47-19.89-.06-39.86-.21-59.78.06-1.55,1.45-2.77,2.95-2.93,7.71.52,16.32-.69,23.92,0,.7.06,1.53.31,2.08.76.28.23,1.04,1.33,1.04,1.62v6.36ZM26.73,77.12H8.13v52.95h18.6v-52.95ZM58.9,85.85h-26.48v31.69h8.64l32.68,18.95c2.92,1.5,4.37,1.77,7.33.18l55.93-35.18c-4.17-6.12-13.27-8.27-20.11-5.86-.79.28-1.75.73-2.52,1.09-8.96,4.16-17.64,9.78-26.63,13.99-5.33,6.21-10.76,8.43-18.44,4.4-5.3-2.78-10.31-6.24-15.57-9.1-3.02-1.68-1.06-6.31,2.28-5.12,5.41,2.71,10.54,6.41,15.89,9.16,3.98,2.05,8.06,1.93,10.47-2.25,2.83-4.91,1.05-8.23-3.35-10.95-6.14-3.79-12.63-7.14-18.88-10.73-.4.03-.93-.25-1.24-.28Z"/>
  <path class="st0" d="M94.1,32.52c.44.09.3-.05.43-.24.55-.88,1.05-2.52,1.56-3.56,8.2-16.5,20.24-22.15,37.45-26.13,2.01-.46,3.76-1.24,5.13.83.65.98,1.19,4.51,1.36,5.85,2.09,16.52-5.42,32.99-18.8,42.68-7.06,5.12-15.44,7.32-23.89,9.04l-.02,18.86c-.94,3.18-5.07,2.81-5.66-.38l-.1-18.31c-5.81-1.53-11.78-2.58-17.26-5.14-18.05-8.45-28.45-28.07-25.52-47.86.36-2.41.61-6.23,3.81-6.16,7.05,1.83,14.03,3.02,20.51,6.45,9.66,5.11,17.12,13.88,21.01,24.07ZM82.22,23.33c-3.42-4.17-7.22-7.37-12.03-9.89s-10.16-3.89-15.56-5.03c-2.98,16.15,5.16,32.93,19.29,40.96,5.17,2.94,11.12,4.59,16.95,5.54,1.68-11.55-1.3-22.62-8.65-31.58ZM133.94,8.42c-8.8,1.66-17.03,4.6-23.71,10.71-9.79,8.95-14.25,21.71-12.69,34.9.08.67.19,1.1.97,1.03,4.32-1.34,8.59-2.09,12.74-3.98,15.77-7.17,25.3-24.06,23.07-41.43-.06-.43-.3-.82-.38-1.24Z"/>
</svg>