<svg width="193" height="218" viewBox="0 0 193 218" fill="none" xmlns="http://www.w3.org/2000/svg">
<path d="M132.849 217.028C131.125 216.007 130.551 214.301 130.321 212.243C129.947 208.925 129.387 205.639 128.956 202.336C128.784 200.996 128.138 200.406 127.075 199.688C123.685 197.391 120.956 198.077 118.213 201.044C116.676 202.703 114.751 203.948 112.956 205.304C110.988 206.803 109.58 206.707 107.9 204.857C104.941 201.635 102.025 198.38 99.1241 195.11C97.5298 193.308 97.4436 191.569 98.7794 189.447C100.718 186.384 102.672 183.353 104.697 180.37C105.401 179.333 105.358 178.52 105.085 177.228C104.108 172.745 101.609 171.07 97.6304 171.038C95.4184 171.022 93.2209 170.289 91.0233 169.826C89.1848 169.427 88.2512 168.119 88.2369 166.045C88.2225 161.212 88.2369 156.378 88.2369 151.545C88.2369 149.343 89.271 148.051 91.1957 147.668C94.3556 147.062 97.5298 146.44 100.718 145.962C102.385 145.722 103.16 144.893 104.036 143.186C105.832 139.676 105.185 137.108 102.93 134.348C101.336 132.402 100.072 130.121 98.7219 127.936C97.4867 125.942 97.6016 124.203 99.1241 122.48C102.011 119.194 104.941 115.94 107.886 112.717C109.624 110.819 111.06 110.723 113.114 112.334C115.742 114.408 118.371 116.482 120.927 118.651C122.048 119.609 122.938 119.401 124.303 119.146C130.091 118.013 129.028 112.701 129.904 108.57C130.235 106.99 130.321 105.331 130.622 103.736C131.01 101.646 132.174 100.498 134.156 100.514C138.436 100.514 142.702 100.514 146.982 100.514C149.05 100.514 150.243 101.646 150.587 103.912C151.133 107.597 151.722 111.266 152.182 114.966C152.354 116.434 152.957 117.088 154.106 117.87C157.51 120.151 160.225 119.433 162.968 116.514C164.52 114.855 166.43 113.611 168.211 112.239C170.064 110.803 171.572 110.851 173.137 112.542C176.211 115.86 179.213 119.226 182.201 122.624C183.608 124.235 183.723 126.037 182.517 127.904C180.506 130.998 178.552 134.141 176.484 137.172C175.766 138.241 175.852 139.054 176.111 140.33C177.03 144.861 179.586 146.472 183.536 146.52C185.605 146.536 187.687 147.158 189.741 147.621C192.097 148.147 192.973 149.359 192.987 151.96C193.016 156.554 192.987 161.164 192.987 165.758C192.987 168.023 192.068 169.475 190.028 169.874C186.797 170.496 183.551 171.118 180.305 171.629C178.825 171.868 178.093 172.538 177.26 174.101C175.321 177.754 176.053 180.482 178.38 183.369C179.917 185.268 181.109 187.517 182.473 189.591C183.752 191.537 183.608 193.371 182.114 195.062C179.17 198.396 176.211 201.714 173.195 204.985C171.586 206.723 170.15 206.835 168.283 205.383C165.467 203.198 162.753 200.853 159.895 198.747C159.234 198.269 158.142 198.205 157.309 198.364C153.302 199.162 151.55 201.906 151.65 206.436C151.693 208.43 151.104 210.424 150.86 212.418C150.63 214.348 150.027 216.007 148.433 217.044H132.877L132.849 217.028ZM105.76 125.878C107.972 129.292 110.083 132.594 112.238 135.848C113.257 137.395 113.272 138.911 112.568 140.649C111.376 143.617 110.471 146.743 109.15 149.631C108.589 150.843 107.383 152.055 106.234 152.518C104.352 153.268 102.27 153.363 100.273 153.762C98.564 154.113 96.2228 153.89 95.3466 155.038C94.4705 156.203 95.1312 158.739 94.9588 160.669C94.8152 162.424 95.3322 163.126 96.9696 163.317C99.8854 163.637 102.772 164.275 105.674 164.769C107.584 165.104 108.733 166.221 109.336 168.374C110.026 170.879 110.801 173.463 111.993 175.696C113.459 178.424 113.186 180.546 111.491 182.923C109.466 185.762 107.641 188.777 105.99 191.329C107.857 193.515 109.48 195.413 111.175 197.391C114.004 195.11 116.906 192.813 119.764 190.452C121.286 189.192 122.751 189.176 124.461 190.069C126.917 191.361 129.416 192.59 131.973 193.563C133.782 194.249 134.817 195.349 135.104 197.439C135.578 200.901 136.037 204.362 136.641 207.792C136.756 208.462 137.488 209.435 138.005 209.483C140.016 209.674 142.041 209.563 144.239 209.563C144.799 205.607 145.388 201.778 145.876 197.95C146.178 195.621 147.14 194.233 149.266 193.499C151.722 192.654 154.106 191.489 156.404 190.197C158.243 189.176 159.794 189.16 161.46 190.548C164.29 192.925 167.205 195.19 169.69 197.184C171.601 195.094 173.31 193.212 175.091 191.266C173.252 188.442 171.342 185.363 169.302 182.412C167.88 180.37 167.78 178.488 168.886 176.191C170.006 173.878 170.925 171.405 171.586 168.885C172.304 166.173 173.741 164.961 176.197 164.641C179.5 164.211 182.789 163.493 186.179 162.887C186.179 160.701 186.093 158.755 186.208 156.825C186.308 155.166 185.834 154.496 184.298 154.305C181.382 153.954 178.495 153.315 175.593 152.853C173.468 152.518 172.333 151.226 171.672 148.945C170.925 146.297 169.934 143.696 168.8 141.208C167.823 139.07 167.866 137.3 169.173 135.385C171.285 132.291 173.281 129.116 175.119 126.293C173.267 124.235 171.557 122.336 169.776 120.358C167.09 122.528 164.175 124.825 161.317 127.186C159.78 128.446 158.315 128.446 156.634 127.521C154.322 126.261 151.966 124.984 149.51 124.171C147.212 123.421 146.178 121.985 145.876 119.433C145.431 115.668 144.813 111.936 144.253 108.059C142.199 108.059 140.303 108.123 138.422 108.043C137.201 107.979 136.727 108.426 136.569 109.83C136.167 113.371 135.549 116.897 135.061 120.422C134.802 122.352 133.768 123.357 132.174 123.995C129.746 124.953 127.29 125.926 125.035 127.25C122.895 128.51 121.157 128.398 119.247 126.755C116.561 124.426 113.746 122.289 111.046 120.103C109.221 122.113 107.584 123.916 105.76 125.91V125.878Z" fill="#818890"/>
<path d="M53.3921 217.029C51.6972 215.689 51.1658 213.839 51.295 211.574C51.4099 209.484 51.3238 207.394 51.3238 205.241C47.9772 204.778 44.7885 204.523 41.643 203.885C28.5725 201.221 17.2257 195.191 9.98665 182.174C2.90562 169.444 2.81944 156.204 8.80887 142.852C9.59884 141.097 10.6904 139.901 12.5576 140.14C14.4105 140.379 15.2005 141.815 15.6745 143.713C18.1736 153.859 22.9997 162.026 31.9766 166.397C38.0235 169.348 44.4295 170.321 51.3381 170.337C51.3381 167.817 51.3812 165.36 51.3381 162.904C51.295 161.069 51.6828 159.49 53.2341 158.549C54.8284 157.591 56.1641 158.277 57.4855 159.346C66.8934 167.051 76.33 174.724 85.7379 182.429C88.0503 184.327 88.3088 186.991 86.2406 188.921C76.172 198.333 66.046 207.681 55.9343 217.045H53.4064L53.3921 217.029ZM58.175 169.619C58.175 171.071 58.1894 172.204 58.175 173.336C58.1032 176.814 56.911 178.281 53.823 178.09C49.0113 177.787 44.1566 177.595 39.4311 176.686C27.9549 174.501 18.82 168.263 13.0316 156.65C12.8162 156.236 12.5146 155.869 12.098 155.262C10.9203 160.399 11.2793 165.153 12.4858 169.827C15.6457 182.11 23.4736 189.32 33.8007 193.659C40.2067 196.355 46.8856 197.44 53.7224 197.456C56.9972 197.456 58.1032 198.78 58.1894 202.401C58.2037 203.135 58.2612 203.885 58.3186 205.033C65.256 198.573 71.8774 192.399 78.6712 186.066C72.0929 180.69 65.7444 175.506 59.3815 170.305C59.1229 170.098 58.807 169.97 58.1894 169.603L58.175 169.619Z" fill="#818890"/>
<path d="M77.9816 43.5816C78.0821 51.4141 75.9707 58.465 72.3943 65.0692C69.0477 71.2107 65.9596 77.5437 64.9973 84.7222C64.236 90.4012 63.8052 96.1439 63.6041 101.887C63.4604 106.13 62.1965 109.4 58.9791 111.745C58.4764 112.112 58.0455 113.101 58.0599 113.771C58.2323 118.621 56.839 122.449 52.8604 124.906C52.4296 125.177 52.171 126.166 52.1423 126.836C51.8694 135.163 48.5084 138.816 41.0109 138.816C39.3304 138.816 37.6499 138.848 35.9694 138.816C30.1236 138.688 26.2455 134.429 26.2168 127.905C26.2168 126.118 25.8721 125.017 24.364 123.996C21.2903 121.923 20.1843 118.477 20.2848 114.585C20.3279 113.133 20.0119 112.256 18.7767 111.458C15.6886 109.448 14.2667 106.226 14.3529 102.27C14.5109 94.5966 14.1231 86.9236 11.7244 79.7132C9.94338 74.3533 7.61655 69.1529 5.00246 64.2237C-3.91705 47.4101 -0.48426 25.3164 11.9255 12.3951C23.1718 0.686255 36.4577 -2.95083 51.1225 2.441C65.4426 7.68925 74.003 19.1589 77.206 35.5098C77.723 38.1419 77.723 40.9176 77.9672 43.6135L77.9816 43.5816ZM56.7241 92.5228C57.5428 87.9764 58.2035 83.6215 59.1228 79.3304C60.674 72.12 64.1068 65.8508 67.3672 59.5018C71.0729 52.2755 71.9491 44.5068 70.4122 36.4829C66.6347 16.8139 50.5911 4.89763 32.7664 8.3752C19.3225 10.9914 8.19108 24.7421 7.05639 39.785C6.4675 47.5856 7.80327 54.7641 11.509 61.4321C14.8699 67.4779 17.7282 73.795 19.1645 80.7661C19.9545 84.6105 20.4716 88.5348 21.1179 92.4909H29.2762V56.5986C27.3802 56.5986 25.6279 56.6624 23.89 56.5986C17.6707 56.3433 12.8878 50.5686 12.974 43.4699C13.0602 36.451 18.0586 30.8837 24.3352 30.8199C30.8274 30.7561 35.9837 36.116 36.1561 43.1668C36.1992 45.0811 36.1561 47.0113 36.1561 48.9096H41.6572C41.6572 46.9316 41.6141 45.1449 41.6572 43.3583C41.9157 35.0951 49.0398 29.0811 56.0922 31.1389C61.6651 32.766 65.6005 38.7481 64.9829 44.6664C64.236 51.7491 59.6398 56.4869 53.3632 56.6145C51.7832 56.6464 50.2176 56.6145 48.6089 56.6145V92.5228H56.7098H56.7241ZM41.5423 92.6185V56.8219H36.3141V92.5069C36.8312 92.5547 37.2333 92.6185 37.6355 92.6185C38.8851 92.6185 40.1347 92.6185 41.5423 92.6185ZM21.4483 100.292C20.7157 104.2 21.5201 105.38 24.8236 105.38C34.1884 105.38 43.5675 105.38 52.9323 105.38C56.4943 105.38 57.1694 104.439 56.523 100.292H21.4483ZM50.9932 113.245H27.409C26.8488 117.44 27.4951 118.333 31.0716 118.333C36.4577 118.333 41.8583 118.333 47.2445 118.333C50.7491 118.333 51.5247 117.312 50.9932 113.245ZM29.4342 49.101C29.4342 47.0273 29.5203 45.2406 29.4198 43.4699C29.2331 40.455 26.935 38.1898 24.3783 38.3333C21.8648 38.4769 19.7678 40.9176 19.7678 43.7092C19.7678 46.6285 21.8073 48.9575 24.5651 49.0851C26.1019 49.1489 27.6244 49.0851 29.4342 49.0851V49.101ZM48.6377 49.0532C50.5192 49.0532 52.329 49.2446 54.11 49.0053C56.6092 48.6863 58.2179 46.2297 58.0886 43.3583C57.9737 40.6943 56.0922 38.5567 53.6791 38.3333C51.2805 38.126 48.9824 40.0721 48.6808 42.8797C48.4653 44.8418 48.6377 46.8677 48.6377 49.0532ZM33.2548 125.959C32.8813 130.585 33.2835 131.079 37.2477 131.079C38.6409 131.079 40.0485 131.079 41.4417 131.079C44.9464 131.079 45.6932 130.01 45.0038 125.959H33.2404H33.2548Z" fill="#818890"/>
<path d="M124.346 27.4384C130.163 28.6189 135.822 29.3048 141.237 30.9479C154.508 34.9678 165.18 43.0237 171.069 57.3806C176.197 69.8711 175.45 82.3138 169.862 94.4853C169.101 96.1603 167.981 97.3248 166.257 97.1334C164.462 96.942 163.528 95.586 163.054 93.6399C161.489 87.1792 159.033 81.1972 154.839 76.268C149.165 69.6159 141.897 66.6967 133.955 65.4683C130.852 64.9898 127.735 64.7824 124.346 64.4155C124.346 67.4305 124.331 70.1264 124.346 72.8223C124.36 74.7047 124.087 76.4753 122.392 77.3846C120.741 78.262 119.333 77.5441 117.94 76.3956C108.087 68.3078 98.1904 60.2679 88.3229 52.1962C85.163 49.6119 85.0912 47.2988 88.0644 44.5232C98.0468 35.2231 108.058 25.9389 118.026 16.6229C119.29 15.4424 120.583 14.6767 122.22 15.5062C123.929 16.3676 124.346 18.0426 124.331 19.9569C124.317 22.589 124.331 25.2211 124.331 27.4544L124.346 27.4384ZM94.8725 48.0965C102.356 54.2061 109.695 60.1882 117.394 66.4893C117.394 64.4793 117.365 63.0117 117.394 61.5601C117.466 58.3537 118.701 56.8861 121.502 57.0137C126.184 57.237 130.895 57.3487 135.52 58.0666C145.732 59.6618 154.738 64.1284 161.403 73.253C163.356 75.933 164.936 78.9798 167.033 82.4255C167.22 78.8682 167.636 75.7894 167.478 72.7744C166.803 59.8372 160.886 50.4095 151.133 43.7894C142.142 37.6956 132.145 35.8133 121.818 35.5261C118.586 35.4304 117.437 34.2021 117.394 30.5491C117.394 29.592 117.394 28.6348 117.394 27.1353C109.652 34.3457 102.37 41.1254 94.8725 48.1124V48.0965Z" fill="#818890"/>
<path d="M117.652 158.723C117.681 144.542 127.879 133.247 140.619 133.279C153.417 133.311 163.586 144.749 163.528 159.058C163.471 173.08 153.115 184.326 140.317 184.278C127.764 184.231 117.624 172.793 117.652 158.723ZM124.417 158.787C124.417 168.645 131.743 176.797 140.576 176.797C149.366 176.797 156.778 168.534 156.763 158.755C156.749 148.944 149.381 140.777 140.562 140.777C131.7 140.777 124.432 148.897 124.432 158.787H124.417Z" fill="#818890"/>
</svg>
