<svg width="182" height="198" viewBox="0 0 182 198" fill="none" xmlns="http://www.w3.org/2000/svg">
<path d="M0 58.433C0.578352 54.8962 0.93521 51.2705 1.77197 47.8224C7.75238 23.0198 21.0667 6.94846 42.1212 1.48775C59.0903 -2.92225 74.312 2.59765 87.4049 16.3752C87.7618 16.7452 88.0941 17.1595 88.4509 17.5295C88.5247 17.6183 88.6601 17.6331 88.5739 17.5887C90.0137 14.7918 91.2073 11.8024 92.8931 9.31625C99.5011 -0.421277 111.007 -2.74467 119.977 3.72235C120.986 4.44749 121.675 4.43268 122.66 3.75194C131.249 -2.24152 141.179 -0.746846 148.341 7.42202C148.858 7.99917 149.928 8.35434 150.618 8.16195C164.953 4.15151 178.428 16.3752 178.944 34.104C179.092 39.2984 178.046 44.2855 175.72 48.7399C175.031 50.057 175.216 50.7081 176.053 51.7736C183.891 61.7331 183.99 76.665 176.299 86.7429C175.524 87.764 175.597 88.3855 176.09 89.4807C183.153 105.093 176.471 123.044 162.098 127.291C161.557 127.454 160.819 128.342 160.757 128.993C159.244 143.673 152.303 151.827 139.629 153.485C139.346 160.337 137.402 166.449 133.292 171.391C129.219 176.29 124.198 178.628 118.427 178.998C117.922 186.323 115.313 192.035 109.739 195.262C104.263 198.443 98.972 197.541 93.8899 193.471C92.967 195.617 91.6257 197.023 89.5953 197.111C87.8603 197.185 86.6174 196.031 85.4484 194.625C62.8189 167.055 40.2262 139.441 17.4859 111.975C10.2872 103.273 4.7006 93.5355 2.03034 81.6077C1.26741 78.1893 0.898252 74.6524 0.344511 71.1747C0.282984 70.7751 0.123066 70.3904 0.0123174 69.9908V58.4478L0 58.433ZM169.617 46.1501C173.85 39.9643 173.752 29.8272 169.519 22.9162C165.655 16.5972 157.915 13.0899 153.362 15.2505C153.78 18.8614 154.321 22.3243 154.555 25.8316C154.691 27.7702 153.362 29.2057 151.811 29.3388C150.236 29.472 148.809 28.081 148.563 26.1423C148.513 25.728 148.538 25.284 148.526 24.8697C148.181 16.0496 142.422 8.59111 135.187 7.5996C127.73 6.56369 120.716 12.35 118.821 21.1108C118.71 21.6287 118.734 22.1911 118.734 22.2503C120.568 23.6858 122.229 24.7809 123.681 26.1867C125.096 27.5778 125.121 29.7828 124.001 31.3071C122.857 32.8609 121.22 33.0089 119.706 31.6918C116.199 28.6137 114.329 28.6137 110.785 31.6918C109.284 32.9941 107.61 32.8609 106.478 31.3219C105.322 29.7532 105.383 27.4594 106.884 26.0239C108.164 24.8105 109.69 23.9817 111.093 22.9606C111.548 22.6203 112.249 22.2355 112.336 21.7619C113.037 17.4555 114.44 13.5339 116.642 9.95259C113.406 7.6292 110.047 6.97806 106.577 7.77718C98.8612 9.55303 94.099 16.6564 94.0867 26.2459C94.0744 55.4437 94.0867 84.6415 94.0867 113.839C94.0867 135.564 94.0621 157.288 94.1114 178.998C94.1114 184.947 98.0244 189.564 102.873 189.653C107.918 189.727 111.893 185.332 112.053 179.323C112.065 178.657 111.511 177.71 110.994 177.34C109.592 176.319 108.004 175.639 106.601 174.617C105.1 173.522 104.743 171.495 105.518 169.793C106.368 167.943 107.979 167.351 109.628 168.298C110.108 168.58 110.551 168.935 111.019 169.231C116.507 172.501 121.909 172.383 126.954 168.106C131.95 163.874 134.042 157.791 133.144 150.614C132.246 143.437 128.702 138.494 122.906 136.185C122.18 135.889 121.146 136.022 120.433 136.422C117.75 137.887 115.006 138.879 112.053 138.745C110.404 138.671 109.148 137.044 109.112 135.149C109.075 133.3 110.158 131.805 111.77 131.494C112.471 131.361 113.185 131.302 113.886 131.169C118.796 130.251 122.032 126.892 123.644 121.313C124.087 119.788 124.149 118.116 124.346 116.503C124.604 114.431 125.822 113.099 127.459 113.173C129.059 113.247 130.326 114.742 130.375 116.755C130.412 117.879 130.449 119.093 130.166 120.143C129.305 123.488 128.296 126.758 127.311 130.177C132.036 132.959 135.802 137.354 137.795 143.599C138.509 145.834 139.469 146.426 141.229 145.834C141.573 145.716 141.93 145.716 142.275 145.642C149.227 144.295 155.023 135.8 154.457 127.735C154.272 127.632 154.075 127.454 153.854 127.41C145.769 125.382 140.355 119.7 137.488 110.391C137.315 109.844 136.614 109.474 136.097 109.178C133.562 107.713 130.904 106.499 128.517 104.782C127.767 104.25 127.262 102.267 127.434 101.127C127.594 100.076 128.714 98.7594 129.612 98.493C130.511 98.2267 131.803 98.8186 132.664 99.5141C136.048 102.222 139.74 103.095 143.468 101.423C145.585 100.476 147.418 98.4486 149.227 96.7024C150.691 95.2965 152.254 94.9857 153.559 96.288C154.888 97.6199 155.047 99.8397 153.842 101.616C153.091 102.711 152.303 103.865 151.319 104.605C148.956 106.396 146.483 107.949 144.01 109.636C145.523 115.171 150.839 119.922 156.327 120.439C162.517 121.031 168.436 117.006 171.192 110.362C173.653 104.398 173.173 96.732 170.097 92.5144C168.645 93.1211 167.218 93.8315 165.753 94.305C162.972 95.2077 161.249 94.305 160.733 91.8336C160.265 89.5842 161.532 87.912 164.289 87.1276C170.848 85.2482 175.671 78.0117 175.844 69.7688C176.016 61.8367 171.475 54.3782 165.039 52.2028C161.877 51.1373 158.702 51.0781 155.86 52.4544C156.524 55.5177 157.287 58.285 157.669 61.1116C158.025 63.731 156.807 65.566 154.998 65.7732C153.054 65.9952 151.86 64.7077 151.54 61.9699C150.704 55.0441 148.107 52.0104 142.361 51.2261C140.576 50.9893 139.346 49.3762 139.444 47.4228C139.543 45.425 140.884 43.7232 142.656 44.0339C145.068 44.4631 147.418 45.4398 149.793 46.1501C150.371 46.3277 151.085 46.6829 151.528 46.4313C157.521 43.0572 163.526 43.1312 169.617 46.2093V46.1501ZM87.848 186.841C87.848 185.628 87.848 184.888 87.848 184.133C87.848 160.573 87.848 136.999 87.848 113.44C87.848 85.3814 87.8479 57.3379 87.8233 29.2796C87.8233 28.3029 87.6387 27.0599 87.1219 26.3939C75.5426 11.536 61.4406 5.06903 44.57 8.38393C22.5311 12.7199 5.32823 37.0046 6.165 66.0247C6.60799 81.2526 11.567 94.2162 20.4884 105.049C42.3673 131.598 64.197 158.206 86.0514 184.784C86.5313 185.361 87.0358 185.924 87.848 186.841Z" fill="#818890"/>
<path d="M103.07 77.9559C103.217 65.2439 112.729 53.7305 123.312 53.4493C125.859 53.3901 127.274 54.6036 127.373 56.9566C127.471 59.1912 126.241 60.6563 123.767 60.8339C115.609 61.4258 110.773 68.4996 109.653 74.8186C109.444 75.9877 109.346 77.2012 109.222 78.3999C108.939 81.3448 107.807 82.8247 105.949 82.6915C104.054 82.5435 103.033 80.8713 103.07 77.9707V77.9559Z" fill="#818890"/>
<path d="M12.1086 56.2294C13.1792 33.9722 26.4936 15.1187 44.2995 10.7383C46.8344 10.1167 49.4554 9.92437 52.0395 9.74678C54.1806 9.5988 55.4604 11.0343 55.4973 13.2689C55.5342 15.5775 54.2422 16.9981 52.0395 17.0869C34.812 17.7233 20.9562 32.6995 18.5197 53.3733C18.3844 54.498 18.4213 55.6523 18.2982 56.777C18.0152 59.5591 16.8708 60.891 14.9511 60.743C13.093 60.6098 12.0594 58.9672 12.1086 56.2294Z" fill="#818890"/>
<path d="M20.6363 74.699C20.6116 77.2739 19.7503 78.4726 18.3106 78.9314C16.9078 79.3902 15.6404 78.7538 15.0128 77.1999C14.3606 75.5573 13.856 73.7815 13.573 71.9908C13.29 70.1854 14.1022 68.7943 15.5419 68.1728C16.9693 67.5512 18.3844 67.9212 19.0858 69.5638C19.8488 71.3545 20.2548 73.3819 20.6486 74.699H20.6363Z" fill="#818890"/>
</svg>
