<svg width="199" height="227" viewBox="0 0 199 227" fill="none" xmlns="http://www.w3.org/2000/svg">
<path d="M101.184 0.0159677C103.217 1.56333 103.854 3.62116 103.748 6.25327C103.566 11.3261 103.702 16.3988 103.687 21.4716C103.687 24.6621 102.049 26.5604 99.3787 26.4966C96.8302 26.4487 95.2981 24.5663 95.2981 21.4557C95.2981 16.3829 95.4194 11.3101 95.2374 6.2373C95.1464 3.58924 95.7835 1.54736 97.8011 0H101.154L101.184 0.0159677Z" fill="#818890"/>
<path d="M138.547 187.262C143.477 194.074 141.778 201.491 137.94 205.448C135.483 207.968 132.585 209.356 129.111 209.356C125.895 209.356 122.679 209.356 119.478 209.356C116.187 220.044 109.648 226.153 98.711 226.122C90.0491 226.09 83.9053 220.666 79.5668 209.356C76.6087 209.356 73.6051 209.324 70.6014 209.356C65.2617 209.436 61.2265 207.043 58.8297 202.082C56.4632 197.216 56.9942 192.415 60.0585 187.964C60.1798 187.789 60.3012 187.597 60.5135 187.278C58.5566 184.582 57.3279 181.551 57.4644 178.01C57.5706 174.947 58.4656 172.203 60.4074 169.97C61.3479 168.901 61.3024 168.088 60.7714 166.875C54.6277 153.045 48.1957 139.358 42.4615 125.336C27.6558 89.1245 47.8771 46.7715 84.2391 37.264C118.841 28.2192 153.064 50.8234 160.27 87.7207C163 101.663 161.256 115.206 155.537 128.127C149.848 140.969 144.175 153.81 138.425 166.636C137.834 167.976 137.682 168.837 138.744 170.098C142.112 174.086 143.113 181.089 138.562 187.262H138.547ZM129.597 165.137C129.794 164.786 130.006 164.482 130.143 164.147C136.104 150.716 142.127 137.316 148.013 123.836C153.004 112.383 154.263 100.435 151.608 88.1354C145.282 58.7516 118.356 39.4016 89.5788 45.256C55.1434 52.2431 36.6667 90.2411 51.0628 123.932C55.8413 135.115 60.8928 146.153 65.8381 157.272C66.991 159.856 67.5827 163.462 69.5244 164.738C71.5571 166.062 74.9248 165.168 77.7009 165.216C80.1887 165.248 124.424 165.168 129.582 165.168L129.597 165.137ZM99.5302 174.022C89.9429 174.022 80.3556 174.022 70.7683 174.022C67.8557 174.022 65.9595 175.777 65.8988 178.329C65.8381 180.993 67.7799 182.796 70.7986 182.827C73.954 182.859 77.0941 182.827 80.2494 182.827C83.0103 182.843 84.77 184.55 84.8003 187.15C84.8307 189.862 83.0558 191.617 80.1887 191.649C77.0334 191.665 73.8933 191.633 70.738 191.649C67.8405 191.681 65.9292 193.42 65.8988 195.988C65.8533 198.556 67.7647 200.455 70.6166 200.455C89.867 200.486 109.102 200.486 128.353 200.455C131.205 200.455 133.131 198.588 133.116 196.036C133.116 193.468 131.189 191.681 128.322 191.649C125.167 191.601 122.027 191.649 118.872 191.649C115.974 191.633 114.199 189.926 114.215 187.214C114.215 184.518 116.005 182.843 118.932 182.843C122.088 182.827 125.228 182.875 128.383 182.827C131.235 182.78 133.146 180.945 133.116 178.377C133.086 175.808 131.174 174.07 128.292 174.006C127.807 174.006 127.306 174.006 126.821 174.006C117.719 174.006 108.632 174.006 99.5302 174.006V174.022ZM88.79 209.42C90.4283 214.221 95.0551 217.46 99.7881 217.284C104.567 217.109 109.026 213.743 110.134 209.42H88.8052H88.79Z" fill="#818890"/>
<path d="M48.2868 45.7675C48.1502 48.1444 47.3462 49.5801 45.6472 50.3936C43.8117 51.271 42.2037 50.7287 40.8536 49.3408C37.8651 46.2461 34.907 43.1035 31.9489 39.9928C30.9629 38.956 29.9162 37.951 29.006 36.8503C27.4435 34.952 27.5345 32.3518 29.1425 30.6768C30.6898 29.0816 33.1928 28.8263 34.8463 30.5013C39.0332 34.7286 43.1139 39.0676 47.1642 43.4385C47.8013 44.1245 48.0441 45.2092 48.3019 45.7835L48.2868 45.7675Z" fill="#818890"/>
<path d="M171.723 33.6106C170.813 35.1899 170.358 36.466 169.524 37.3594C165.883 41.3314 162.151 45.2078 158.419 49.0842C156.341 51.2377 153.929 51.3653 152.109 49.4989C150.273 47.6166 150.304 45.0323 152.321 42.8628C156.098 38.8269 159.921 34.8389 163.744 30.8509C165.17 29.3673 167.005 28.7611 168.704 29.9097C169.918 30.7232 170.692 32.2866 171.723 33.6106Z" fill="#818890"/>
<path d="M171.026 175.059C171.026 177.468 170.191 178.824 168.614 179.637C166.99 180.467 165.382 180.244 164.139 178.967C159.982 174.708 155.856 170.417 151.821 166.03C150.167 164.244 150.41 161.564 152.079 159.905C153.853 158.134 156.144 158.118 158.071 160.096C161.984 164.1 165.807 168.184 169.66 172.252C169.858 172.459 170.085 172.666 170.191 172.937C170.555 173.783 170.874 174.66 171.041 175.059H171.026Z" fill="#818890"/>
<path d="M48.2566 164.084C47.9836 164.546 47.5285 165.727 46.7397 166.572C43.0382 170.576 39.2761 174.516 35.4837 178.441C33.4206 180.578 30.9631 180.642 29.1731 178.728C27.5196 176.957 27.5651 174.229 29.4461 172.219C33.2082 168.183 37.031 164.179 40.8538 160.207C42.2494 158.756 43.9181 158.118 45.8143 159.091C47.4526 159.936 48.3476 161.356 48.2566 164.084Z" fill="#818890"/>
<path d="M12.5621 109.145C9.83154 109.145 7.11615 109.193 4.3856 109.145C1.68538 109.081 -0.0591453 107.231 0.00153378 104.63C0.0622129 102.206 1.88259 100.323 4.40077 100.307C9.92257 100.26 15.4444 100.26 20.9662 100.307C23.5147 100.339 25.1985 102.206 25.1985 104.742C25.1985 107.31 23.5602 109.065 20.951 109.129C18.1597 109.193 15.3533 109.129 12.5621 109.145Z" fill="#818890"/>
<path d="M186.438 109.145C183.708 109.145 180.992 109.192 178.262 109.145C175.486 109.097 173.817 107.39 173.817 104.742C173.817 102.126 175.561 100.323 178.262 100.307C183.647 100.275 189.032 100.275 194.402 100.307C197.087 100.307 198.953 102.126 198.999 104.646C199.059 107.294 197.239 109.081 194.387 109.177C194.251 109.177 194.114 109.177 193.962 109.177C191.444 109.177 188.926 109.177 186.408 109.177L186.438 109.145Z" fill="#818890"/>
<path d="M99.5909 191.682C97.1789 191.73 95.3282 189.816 95.313 187.311C95.313 184.871 97.0272 182.956 99.3178 182.877C101.73 182.781 103.641 184.631 103.702 187.136C103.763 189.672 101.973 191.65 99.5909 191.698V191.682Z" fill="#818890"/>
<path d="M96.2839 168.168V151.658C93.887 152.088 91.4447 152.886 88.9872 152.886C83.9205 152.886 80.2191 150.158 77.9133 145.452C77.352 144.304 76.7755 143.745 75.4861 143.554C63.9874 141.863 57.6616 131.478 60.8321 119.689C60.9838 119.131 60.7866 118.158 60.4074 117.823C52.0033 110.677 51.9881 97.2767 59.6792 90.1142C60.104 89.7314 60.3163 88.7742 60.2253 88.1521C58.7842 77.6715 65.5196 68.2278 75.4558 66.8081C76.2143 66.6964 77.2155 66.1381 77.5492 65.4841C82.0091 56.6147 91.2778 54.7163 98.529 61.2727C98.6655 61.4003 98.8324 61.512 99.4392 62.0384C99.7881 61.4641 100.031 60.7941 100.486 60.3315C106.63 54.0783 116.869 55.6735 120.798 63.6176C121.617 65.2767 122.558 65.8031 124.151 66.0424C133.237 67.4621 139.533 75.4063 138.881 85.0892C138.699 87.6894 139.32 89.2528 140.868 91.1351C146.981 98.5369 146.177 109.703 139.138 116.228C137.925 117.345 137.849 118.206 138.259 119.689C141.323 130.585 134.117 141.64 123.377 142.724C122.679 142.788 121.739 143.299 121.42 143.905C117.461 151.626 110.908 154.05 103.338 150.509C103.171 150.429 102.974 150.413 102.64 150.318V168.168M102.519 104.328C102.519 115.51 102.519 126.677 102.519 137.859C102.519 142.198 104.521 144.894 108.238 145.723C111.484 146.457 114.594 144.607 116.08 140.842C117.218 137.971 119.221 136.631 122.103 136.487C129.718 136.136 134.891 128.543 132.388 121.045C131.053 117.057 131.918 114.345 134.952 111.713C140.337 107.039 140.428 98.9995 135.255 94.0384C132.949 91.8211 132.191 89.4601 132.722 86.1899C133.95 78.6446 129.521 72.7901 122.285 72.1839C119.175 71.9128 117.203 70.4452 115.838 67.4302C115.094 65.7872 113.562 64.1441 111.985 63.3943C107.464 61.2248 102.564 64.83 102.534 70.2059C102.473 81.5798 102.519 92.9696 102.503 104.344L102.519 104.328ZM96.4356 105.205C96.4356 93.8151 96.4659 82.4252 96.4356 71.0514C96.4356 67.2707 94.236 64.5748 90.7317 63.7612C87.7433 63.0753 84.3301 64.8619 83.1165 68.1162C81.8726 71.4661 79.5516 72.7742 76.366 73.0613C70.1312 73.6197 65.0493 80.2238 66.1719 86.6047C66.7938 90.1461 66.0202 92.7144 63.4717 95.187C58.5263 99.9407 58.769 108.172 63.9571 112.591C67.0972 115.255 67.8709 118.062 66.5359 122.114C64.124 129.356 69.1603 136.934 76.4266 137.349C79.6274 137.524 81.8878 138.896 83.0255 142.134C83.7536 144.176 85.1796 145.564 87.091 146.314C91.6874 148.1 96.4052 144.671 96.4356 139.374C96.4962 127.985 96.4507 116.595 96.4507 105.221L96.4356 105.205Z" fill="#818890"/>
<path d="M125.607 90.6244C125.455 91.2465 125.304 92.5068 124.834 93.6075C124.151 95.1867 122.801 95.7132 121.238 95.1867C119.752 94.6763 118.963 93.416 119.297 91.8527C119.736 89.8109 119.418 88.3273 117.749 87.0192C116.384 85.9504 116.323 84.1 117.34 82.8238C118.477 81.4041 119.858 81.2605 121.36 82.1698C123.832 83.6693 125.607 86.9714 125.592 90.6404L125.607 90.6244Z" fill="#818890"/>
<path d="M117.901 104.056C117.764 104.678 117.643 105.762 117.294 106.783C116.718 108.442 115.216 109.256 113.684 108.746C112.197 108.251 111.302 107.087 111.651 105.475C112.106 103.274 111.651 101.743 109.891 100.323C108.617 99.2859 108.647 97.6748 109.664 96.271C110.589 94.9948 112.303 94.7236 113.699 95.6808C116.414 97.5152 117.78 100.179 117.901 104.04V104.056Z" fill="#818890"/>
<path d="M118.811 115.016C121.299 114.952 122.877 116.898 122.239 118.86C121.633 120.679 121.648 122.019 123.15 123.407C124.363 124.523 124.303 126.151 123.225 127.459C122.164 128.767 120.783 128.942 119.357 128.049C115.823 125.863 114.564 119.977 116.96 116.484C117.476 115.734 118.417 115.303 118.811 115V115.016Z" fill="#818890"/>
<path d="M73.3169 90.4016C73.5748 86.6529 74.849 83.925 77.6403 82.1544C79.1269 81.2132 80.5225 81.4365 81.6451 82.8563C82.6463 84.1324 82.5401 85.9829 81.19 87.0517C79.6123 88.3119 79.2028 89.7157 79.6427 91.6938C80.0068 93.3687 79.2634 94.6449 77.6858 95.2192C76.1233 95.7775 74.667 95.0756 74.045 93.4007C73.6506 92.3319 73.4989 91.1674 73.3169 90.4176V90.4016Z" fill="#818890"/>
<path d="M81.0532 103.754C81.2201 100.308 82.4185 97.7717 84.876 95.9531C86.5447 94.7089 88.3347 94.9002 89.3814 96.3678C90.413 97.8514 90.1702 99.4626 88.5623 100.834C87.379 101.839 86.8936 102.94 87.2425 104.567C87.7128 106.801 86.8481 108.38 85.1794 108.763C83.3287 109.177 82.0241 108.188 81.4325 105.843C81.2353 105.062 81.1594 104.248 81.0684 103.738L81.0532 103.754Z" fill="#818890"/>
<path d="M83.2532 120.2C83.1925 123.678 82.1761 125.943 80.1131 127.682C78.6113 128.942 76.8667 128.846 75.7593 127.506C74.6823 126.214 74.7126 124.427 76.0779 123.119C77.2915 121.955 77.4128 120.822 76.8364 119.291C76.1841 117.536 76.9122 115.909 78.4444 115.239C79.8552 114.601 81.4632 115.175 82.1913 116.818C82.7678 118.094 83.0408 119.514 83.2532 120.216V120.2Z" fill="#818890"/>
</svg>
