<svg width="200" height="190" viewBox="0 0 200 190" fill="none" xmlns="http://www.w3.org/2000/svg">
<path d="M0.0564004 109.941C1.19914 107.545 2.99086 106.788 5.37509 106.851C10.8348 106.993 16.3087 106.946 21.7825 106.883C25.7045 106.835 28.6248 108.648 30.7974 112.259C31.1642 112.874 32.0953 113.394 32.7725 113.41C37.0613 113.52 41.3642 113.457 45.653 113.457C55.1758 113.457 63.5277 116.878 70.4546 124.225C77.5368 131.729 84.5483 139.312 91.5458 146.942C95.1151 150.836 96.3284 155.582 94.6496 160.895C92.999 166.129 89.5002 168.967 84.6048 169.566C81.6421 169.928 78.8347 169.061 76.6056 166.854C70.8073 161.115 65.0936 155.282 59.4223 149.386C57.5882 147.494 57.6024 144.735 59.1542 142.985C60.7343 141.204 63.0621 141.251 65.0795 143.285C70.2007 148.456 75.2372 153.721 80.3724 158.861C81.1907 159.681 82.3052 160.327 83.3774 160.611C84.8164 161.005 86.0297 160.233 86.8338 158.782C87.6521 157.269 87.638 155.771 86.7774 154.289C86.5658 153.926 86.3259 153.564 86.0438 153.264C78.9757 145.634 71.9359 137.956 64.8115 130.405C59.7891 125.076 53.6804 122.49 46.7816 122.333C41.9709 122.222 37.1742 122.317 32.2082 122.317V147.179C36.3841 148.692 40.4613 149.875 44.3128 151.672C48.2065 153.485 51.1692 156.859 53.8638 160.485C57.0663 164.789 60.2123 169.156 63.5417 173.334C67.4214 178.173 72.3733 180.68 78.1998 180.696C91.7434 180.759 105.273 180.727 118.816 180.712C121.694 180.712 123.486 178.899 123.5 176.14C123.514 173.302 121.666 171.473 118.689 171.457C114.133 171.426 109.576 171.473 105.019 171.442C102.155 171.426 100.42 169.755 100.377 167.09C100.349 164.804 101.633 162.818 103.693 162.787C109.674 162.66 115.684 162.392 121.624 162.928C127.168 163.433 131.542 169.865 131.457 176.187C131.358 182.982 126.801 188.768 120.876 189.367C117.899 189.666 114.908 189.651 111.918 189.666C101.633 189.698 91.3483 189.556 81.0637 189.714C70.5393 189.887 61.9617 185.757 55.4015 176.424C52.4671 172.246 49.4057 168.194 46.2314 164.237C42.6621 159.775 38.1053 157.3 32.7161 157.001C32.0813 156.969 31.1501 157.521 30.7974 158.12C28.7095 161.699 25.8174 163.543 22.0083 163.591C20.7103 163.606 19.3983 163.685 18.1004 163.543C15.8008 163.275 14.3477 161.446 14.39 159.082C14.4323 156.685 15.9136 155.03 18.2696 154.825C19.2995 154.73 20.3576 154.794 21.3875 154.762C23.5742 154.683 24.1526 154.084 24.1526 151.609C24.1809 145.429 24.1526 139.249 24.1526 133.069C24.1526 128.339 24.1667 123.61 24.1526 118.88C24.1526 116.342 23.5178 115.648 21.2323 115.648C16.8307 115.633 12.4149 115.648 7.81572 115.648V124.303C7.81572 130.121 7.81572 135.938 7.81572 141.756C7.81572 145.003 6.95517 146.769 5.06471 147.384C3.04729 148.046 1.66473 147.242 0 144.436V109.957L0.0564004 109.941Z" fill="#818890"/>
<path d="M0.0561523 157.944C0.874408 156.446 1.7209 155.027 3.51259 154.87C5.47359 154.712 7.12419 155.879 7.68851 157.912C8.2105 159.788 7.4346 161.933 5.86862 162.926C4.23211 163.966 2.24287 163.556 0.987276 161.901C0.662795 161.475 0.366525 161.002 0.0561523 160.561V157.944Z" fill="#818890"/>
<path d="M167.911 67.6882V43.0313C163.679 41.5021 159.602 40.3197 155.765 38.5382C151.927 36.7567 149.007 33.446 146.355 29.8988C143.11 25.5476 139.921 21.1175 136.55 16.8924C132.684 12.0525 127.718 9.54579 121.892 9.51426C108.348 9.4512 94.8186 9.46697 81.275 9.48273C78.3829 9.48273 76.6054 11.28 76.5771 14.0389C76.5489 16.8767 78.3971 18.7212 81.3738 18.737C86.4526 18.7685 91.5315 18.737 96.5962 18.7527C99.192 18.7685 100.913 20.2031 101.181 22.4576C101.506 25.1062 100.123 27.266 97.6825 27.4394C94.8891 27.6444 92.0958 27.5813 89.2883 27.5813C86.0294 27.5813 82.7846 27.6128 79.5398 27.4079C73.4734 27.0138 68.6626 21.086 68.5921 14.165C68.5216 7.40171 73.1913 1.4582 79.2294 0.827583C81.9381 0.543808 84.675 0.543807 87.412 0.543807C97.9505 0.512277 108.503 0.654166 119.042 0.496513C129.566 0.33886 138.144 4.48513 144.69 13.8182C147.582 17.9329 150.615 21.9373 153.719 25.8471C157.274 30.3245 161.803 32.7838 167.178 33.2726C168.194 33.3672 168.772 33.2095 169.35 32.1059C172.285 26.4304 177.674 25.8787 182.725 26.998C184.46 27.3764 185.56 29.4258 185.447 31.2704C185.32 33.3672 183.896 35.0698 181.977 35.3063C180.877 35.4482 179.776 35.4009 178.662 35.4482C176.475 35.527 175.896 36.1419 175.882 38.6013C175.854 44.7813 175.882 50.9613 175.882 57.1413C175.882 61.8708 175.868 66.6004 175.882 71.33C175.882 73.8682 176.517 74.5619 178.789 74.5619C183.19 74.5777 187.606 74.5619 192.205 74.5619C192.205 73.5687 192.205 72.7962 192.205 72.0237C192.205 63.2267 192.205 54.4296 192.205 45.6168C192.205 43.1732 193.489 41.3917 195.351 41.0291C197.171 40.6665 198.949 41.6755 199.64 43.5831C199.894 44.2925 199.979 45.1281 199.979 45.9164C200.007 56.6841 200.007 67.436 199.979 78.2037C199.979 81.609 198.469 83.2801 195.422 83.2801C189.567 83.3117 183.712 83.2801 177.843 83.2801C174.161 83.2801 171.424 81.4356 169.336 78.0776C168.913 77.3997 167.968 76.7848 167.248 76.7691C162.818 76.6429 158.403 76.7375 153.973 76.706C144.746 76.6272 136.606 73.3164 129.863 66.2221C122.653 58.6547 115.557 50.9455 108.489 43.2205C104.92 39.3265 103.721 34.5811 105.399 29.2682C107.05 24.0341 110.577 21.2279 115.444 20.5973C118.266 20.2347 121.003 21.0072 123.119 23.0724C129.087 28.9214 134.941 34.9122 140.754 40.9503C142.475 42.7318 142.39 45.4907 140.881 47.1933C139.385 48.8802 137.086 48.9748 135.252 47.1776C131.541 43.52 127.944 39.7364 124.29 36C122.611 34.2816 120.96 32.5316 119.239 30.8447C117.377 29.0317 115.092 29.0002 113.638 30.6713C112.143 32.4055 112.185 34.9437 113.977 36.8828C121.412 44.9231 128.79 53.0423 136.394 60.8619C140.458 65.0397 145.522 67.3414 151.081 67.5936C156.597 67.8459 162.113 67.6409 167.855 67.6409L167.911 67.6882Z" fill="#818890"/>
<path d="M100.363 77.8099C103.594 74.1996 107.361 72.3236 111.692 71.6772C120.763 70.3214 130.23 78.5982 131.33 88.7825C132.205 96.8701 129.778 103.239 124.093 108.237C117.349 114.165 110.662 120.203 103.947 126.162C100.928 128.842 99.7425 128.858 96.7516 126.209C89.8106 120.077 82.8554 113.96 75.9425 107.795C69.7351 102.246 67.5484 93.7013 70.0737 85.0777C72.2886 77.4788 79.1874 71.7876 86.6786 71.5826C91.1649 71.4565 95.2562 72.9542 98.7126 76.2807C99.2064 76.7536 99.7143 77.195 100.377 77.7941L100.363 77.8099ZM100.279 118.106C104.186 114.638 108.038 111.217 111.889 107.795C114.894 105.115 118.054 102.656 120.82 99.6921C123.923 96.3657 124.474 92.0144 122.936 87.6159C121.356 83.0755 118.097 80.5846 113.766 80.4269C109.519 80.2693 106.26 82.4449 104.299 86.7488C103.453 88.6249 102.367 90.1226 100.377 90.1699C98.4023 90.2014 97.2454 88.8141 96.3848 86.9065C94.4097 82.5552 91.1367 80.222 86.7915 80.4427C82.2205 80.6792 78.9052 83.3435 77.4521 88.2781C76.0413 93.1022 77.1558 97.4377 80.6264 100.654C87.0454 106.566 93.6338 112.241 100.264 118.122L100.279 118.106Z" fill="#818890"/>
<path d="M155.059 95.546C157.176 95.5933 158.925 97.5166 158.939 99.8341C158.967 102.23 157.119 104.296 154.961 104.248C152.746 104.217 151.067 102.246 151.137 99.7238C151.194 97.3274 152.901 95.4829 155.045 95.5302L155.059 95.546Z" fill="#818890"/>
<path d="M152.026 124.822C152.026 127.345 150.375 129.189 148.118 129.174C146.058 129.174 144.281 127.219 144.239 124.917C144.196 122.552 146.03 120.44 148.132 120.424C150.375 120.424 152.026 122.268 152.026 124.807V124.822Z" fill="#818890"/>
<path d="M55.1194 67.3266C55.0347 69.8333 53.3277 71.599 51.0563 71.536C48.9825 71.4729 47.2895 69.4707 47.3177 67.169C47.3601 64.7411 49.1659 62.7704 51.3103 62.8335C53.497 62.8966 55.1899 64.8988 55.1194 67.3424V67.3266Z" fill="#818890"/>
<path d="M158.982 86.8752C158.953 89.3031 157.176 91.2107 154.975 91.1634C152.873 91.1161 151.222 89.2243 151.208 86.8437C151.194 84.3685 152.887 82.4609 155.102 82.4609C157.289 82.4609 159.01 84.4158 158.982 86.8752Z" fill="#818890"/>
<path d="M46.2457 101.205C48.4888 101.205 50.0265 102.939 50.0547 105.415C50.083 107.921 48.3477 109.923 46.1892 109.892C44.0589 109.86 42.2249 107.732 42.2954 105.367C42.366 103.018 44.1013 101.189 46.2457 101.205Z" fill="#818890"/>
<path d="M115.261 154.887C115.261 157.346 113.512 159.27 111.311 159.238C109.152 159.206 107.417 157.173 107.474 154.745C107.53 152.396 109.209 150.567 111.353 150.536C113.596 150.504 115.261 152.38 115.261 154.887Z" fill="#818890"/>
<path d="M86.735 30.9551C89.0064 30.9551 90.657 32.7839 90.657 35.2905C90.657 37.7499 88.9076 39.6733 86.7209 39.6575C84.6189 39.626 82.9259 37.7499 82.8836 35.3851C82.8413 32.9257 84.5483 30.9708 86.7491 30.9551H86.735Z" fill="#818890"/>
<path d="M57.6588 51.8597C59.8314 51.8913 61.4961 53.7516 61.482 56.1321C61.4679 58.6703 59.8173 60.5464 57.5459 60.5779C55.5708 60.6095 53.6945 58.5127 53.6522 56.2425C53.624 53.8619 55.4721 51.8282 57.6447 51.8597H57.6588Z" fill="#818890"/>
<path d="M45.3847 88.1059C47.5856 88.0744 49.2221 89.8401 49.2785 92.2679C49.3349 94.7904 47.6561 96.8083 45.4694 96.8241C43.3532 96.8399 41.4487 94.7115 41.4769 92.3625C41.5192 90.045 43.2686 88.1216 45.3707 88.1059H45.3847Z" fill="#818890"/>
<path d="M156.653 112.793C156.653 115.269 154.833 117.271 152.689 117.176C150.643 117.097 148.88 115.048 148.88 112.746C148.88 110.444 150.686 108.379 152.703 108.363C154.89 108.348 156.653 110.318 156.653 112.793Z" fill="#818890"/>
<path d="M132.769 140.022C134.885 140.037 136.635 141.961 136.649 144.294C136.663 146.612 134.73 148.756 132.642 148.724C130.484 148.708 128.791 146.675 128.847 144.136C128.904 141.724 130.54 139.99 132.783 140.006L132.769 140.022Z" fill="#818890"/>
<path d="M122.611 146.532C124.77 146.547 126.59 148.644 126.519 150.962C126.435 153.295 124.516 155.297 122.4 155.266C120.382 155.234 118.661 153.216 118.661 150.867C118.661 148.408 120.396 146.5 122.611 146.532Z" fill="#818890"/>
<path d="M71.9219 39.7199C71.9642 37.4182 73.7559 35.416 75.8015 35.416C77.9036 35.416 79.7518 37.5601 79.7094 39.9564C79.6671 42.2739 77.8754 44.2288 75.8015 44.1973C73.5584 44.1658 71.8937 42.2424 71.936 39.7199H71.9219Z" fill="#818890"/>
<path d="M62.0322 46.801C62.0604 44.452 63.7816 42.6232 65.9683 42.6074C68.0704 42.6074 69.8339 44.5308 69.8762 46.8798C69.9185 49.1973 67.9011 51.4518 65.8836 51.3729C63.6405 51.2783 62.004 49.3392 62.0463 46.801H62.0322Z" fill="#818890"/>
<path d="M137.509 135.464C137.523 133.099 139.231 131.113 141.29 131.065C143.406 131.018 145.311 133.115 145.311 135.495C145.311 137.797 143.336 139.957 141.262 139.91C139.231 139.862 137.495 137.813 137.509 135.464Z" fill="#818890"/>
<path d="M47.2333 83.7851C45.0748 83.8482 43.3113 82.0352 43.2267 79.6862C43.142 77.211 44.835 75.1458 46.9935 75.0512C49.0532 74.9723 50.9155 76.8957 51.0142 79.1974C51.113 81.7041 49.4482 83.7221 47.2333 83.7851Z" fill="#818890"/>
<path d="M196.198 35.3373C193.983 35.3846 192.205 33.4769 192.219 31.0333C192.219 28.7474 193.983 26.7294 196.014 26.6506C198.088 26.5717 199.993 28.6843 199.993 31.0491C199.993 33.3981 198.314 35.3057 196.198 35.353V35.3373Z" fill="#818890"/>
</svg>
