<svg width="165" height="201" viewBox="0 0 165 201" fill="none" xmlns="http://www.w3.org/2000/svg">
<path d="M120.619 1.11133C123.657 2.13227 126.668 3.24893 129.201 5.6577C133.95 10.1722 136.722 15.9787 136.762 23.3008C136.855 42.9219 136.802 62.5431 136.802 82.1802C136.802 84.9559 135.781 86.1204 133.393 86.1363C128.817 86.1682 124.24 86.1363 119.664 86.1363H117.794V89.1991H112.554C112.143 87.3646 111.745 85.6418 111.361 83.919C110.79 81.3826 111.997 79.5322 114.345 79.5003C119.359 79.4524 124.36 79.4843 129.374 79.4843H131.324V77.235C131.324 59.7515 131.324 42.2679 131.324 24.7684C131.324 14.6228 125.567 7.71553 117.144 7.69958C102.606 7.69958 88.0682 7.69958 73.517 7.69958H71.8192V24.0984C78.1198 23.3646 83.4256 25.6458 87.3519 31.7235C90.0976 35.9827 91.066 40.88 90.5354 46.1602C89.6201 55.0775 82.9614 64.3776 71.7131 63.1014V72.1941C71.7131 74.0127 71.7794 75.8312 71.6865 77.6338C71.6069 79.0855 72.0181 79.5321 73.2252 79.5162C78.2392 79.4364 83.2399 79.4683 88.2539 79.5162C89.0365 79.5162 89.8987 79.6598 90.5752 80.0905C91.8353 80.8881 92.0741 82.5152 91.4374 84.7006C89.6997 90.7146 91.3445 96.904 95.629 100.206C96.7034 101.036 97.937 101.546 99.3165 102.344C99.0114 104.226 98.6665 106.268 98.3349 108.294C92.5251 107.895 83.9164 99.3606 85.3622 86.3437H71.7926C71.7661 87.0296 71.7131 87.7316 71.7131 88.4175C71.7131 95.1493 71.7131 101.897 71.7131 108.629C71.7131 112.776 70.2937 114.021 67.0837 112.729C61.6983 110.559 56.0079 113.446 53.6866 119.54C51.3123 125.746 53.2091 132.828 58.1833 136.338C58.4618 136.529 58.7403 136.705 59.1648 136.992C58.4618 138.954 57.7721 140.884 57.0823 142.798C50.5694 140.485 45.9534 130.148 47.4258 121.391C49.1899 110.926 56.8303 104.338 65.9961 105.518V86.1682H64.2849C59.4434 86.1682 54.5886 86.1682 49.747 86.1682C46.5105 86.1682 45.3963 84.2061 46.4707 80.5052C48.5798 73.247 45.4095 65.6378 39.4007 63.4843C33.3919 61.3307 27.1311 65.6378 25.8709 73.1672C25.473 75.5122 25.8179 78.1921 26.3219 80.569C27.0647 84.1104 26.0169 86.1523 22.9262 86.1682C17.647 86.2001 12.3677 86.1842 7.0884 86.2001C6.98229 86.2001 6.88944 86.264 6.63742 86.3278C6.61089 86.8223 6.54455 87.3806 6.54455 87.9389C6.54455 105.678 6.51802 123.432 6.54455 141.171C6.54455 149.068 10.7362 155.401 17.0898 157.155C18.3898 157.522 19.756 157.586 21.0957 157.586C29.9829 157.618 38.8702 157.602 47.7574 157.602H49.8001V164.254H48.0359C38.8834 164.254 29.7309 164.254 20.5651 164.254C9.47602 164.238 1.05306 154.332 1.03979 141.044C0.986735 102.057 0.986735 63.0695 1.03979 24.0665C1.05306 12.6288 7.34042 3.71153 16.6919 1.46228C16.8776 1.41442 17.05 1.22299 17.2357 1.11133H120.646H120.619ZM20.1539 79.1493C19.5703 72.912 20.7243 67.4244 24.1996 62.8302C27.6616 58.252 32.0257 56.0825 37.1458 56.3377C45.2106 56.7524 53.7529 65.1911 52.5326 79.0695H66.1022V77.3946C66.1022 71.3806 66.0756 65.3507 66.1022 59.3367C66.1287 55.9708 67.747 54.6468 70.307 55.5879C71.6733 56.0984 73.1456 56.6248 74.5384 56.561C79.1279 56.3218 82.5767 53.6418 84.3011 48.4733C85.9591 43.5122 85.2959 38.7584 82.2318 34.7863C79.0616 30.7026 75.1486 29.6338 70.7447 31.3407C67.5745 32.569 66.1021 31.3566 66.0889 27.3526C66.0889 21.5301 66.0889 15.6916 66.0889 9.86905C66.0889 9.1831 66.0358 8.49717 66.0093 7.68361H64.2584C49.7736 7.68361 35.2887 7.84312 20.8172 7.61979C12.6595 7.49217 6.3058 15.1971 6.42518 24.9439C6.65067 42.2838 6.49148 59.6398 6.49148 76.9958V79.1333H20.1407L20.1539 79.1493Z" fill="#818890" stroke="#818890" stroke-miterlimit="10"/>
<path d="M67.1233 146.004C64.9347 138.937 62.8256 132.173 60.7299 125.409C59.7483 122.219 60.239 120.895 62.8256 119.715C68.4498 117.162 74.0872 114.626 79.7113 112.089C83.0275 110.59 84.4733 111.722 84.6325 115.966C84.8845 122.714 89.0363 127.994 94.5543 128.584C99.8071 129.142 104.741 124.771 105.935 118.359C106.532 115.168 106.121 112.057 104.887 109.122C102.778 104.161 103.07 102.949 107.5 100.7C112.408 98.227 117.237 95.547 122.091 92.9627C124.612 91.6228 125.898 92.2449 126.853 95.3237C129.52 103.842 132.146 112.377 134.865 120.879C135.183 121.884 135.833 122.905 136.563 123.511C143.394 129.254 150.239 134.981 157.163 140.596C161.779 144.329 164.06 149.338 164.007 156.101C163.901 169.055 163.981 182.008 163.981 194.961V197.035H158.476V194.658C158.476 181.705 158.436 168.751 158.502 155.798C158.529 151.651 157.163 148.636 154.351 146.339C149.284 142.207 144.256 137.996 138.964 134.024C139.68 136.353 140.383 138.698 141.099 141.027C142.028 144.057 142.983 147.072 143.898 150.103C145.211 154.49 145.238 158.941 144.429 163.471C144.296 164.237 144.548 165.386 144.986 165.96C146.432 167.874 148.05 169.597 149.575 171.368C148.156 172.979 146.87 174.414 145.49 175.978C145.291 175.754 144.867 175.292 144.455 174.813C138.632 167.81 132.796 160.807 126.986 153.788C125.752 152.289 124.32 151.826 122.715 152.4C121.269 152.911 120.394 154.235 120.075 156.006C119.757 157.824 120.367 159.292 121.402 160.552C124.293 164.03 127.238 167.459 130.05 171.033C130.727 171.894 131.363 173.234 131.39 174.383C131.562 182.662 137.279 189.792 144.071 190.207C144.323 190.223 144.575 190.351 144.92 190.462V196.955C136.284 196.349 130.395 191.308 126.999 181.8C124.333 183.013 121.733 184.177 119.027 185.405C120.088 188.07 121.879 189.601 124.108 190.765C123.551 192.823 123.007 194.817 122.423 196.955C118.457 195.392 115.724 192.297 113.748 187.83C112.289 188.468 110.843 189.074 109.411 189.729C102.221 192.983 95.0451 196.237 87.869 199.491C85.0967 200.751 83.9958 200.145 82.9346 196.779C81.4623 192.074 80.0032 187.352 78.5043 182.518C73.5566 185.565 68.5559 186.012 63.5286 183.3C59.5228 181.146 56.6576 177.541 55.0792 172.596C53.2752 166.917 53.5405 161.318 55.9679 155.942C58.3688 150.63 62.1757 147.503 67.1366 146.004H67.1233ZM138.911 159.037C139.057 158.941 139.189 158.829 139.335 158.733C139.64 156.006 139.07 153.421 138.287 150.869C134.388 138.363 130.488 125.856 126.588 113.35C125.222 108.963 123.842 104.56 122.436 100.045C118.245 102.279 114.199 104.448 110.034 106.666C112.077 112.105 112.342 117.481 110.538 122.841C108.708 128.281 105.458 132.061 100.855 134.056C96.8889 135.778 92.936 135.635 89.0628 133.625C83.8764 130.945 80.7592 126.095 79.3267 119.364C74.9892 121.326 70.8109 123.224 66.5397 125.154C68.8212 132.476 71.0364 139.607 73.2515 146.737C74.4056 150.438 73.477 152.145 70.2272 152.289C65.3592 152.496 61.4063 156.133 60.0401 161.621C58.6871 167.061 60.4513 172.899 64.3908 176.105C68.2773 179.248 73.2648 179.041 77.0452 175.579C80.1225 172.755 81.4888 173.234 82.8418 177.589C82.9479 177.956 83.0672 178.323 83.1734 178.674C84.6059 183.252 86.0385 187.814 87.5241 192.568C100.298 186.777 112.926 181.067 125.739 175.26C125.235 174.606 124.89 174.127 124.519 173.697C122.091 170.761 119.637 167.842 117.223 164.891C114.756 161.892 113.881 158.239 114.677 154.187C116.374 145.573 124.93 142.462 130.315 148.508C133.3 151.858 136.059 155.511 138.911 159.037Z" fill="#818890" stroke="#818890" stroke-miterlimit="10"/>
</svg>
