<svg width="186" height="197" viewBox="0 0 186 197" fill="none" xmlns="http://www.w3.org/2000/svg">
<path d="M186 155.088C185.654 156.614 185.333 158.141 184.974 159.652C181.359 174.87 169.742 184.523 156.344 183.459C144.202 182.488 133.778 170.723 131.791 155.751C129.586 139.113 138.381 122.753 152.703 118.667C155.28 101.105 149.279 67.9841 124.085 49.3114C125.906 45.657 127.727 42.0026 129.804 37.8086C133.33 41.0312 136.881 43.8992 140.074 47.276C152.793 60.7679 160.614 77.6674 163.28 97.7895C164.088 103.926 163.947 110.264 164.088 116.509C164.127 118.02 164.383 118.528 165.64 118.976C176.717 122.985 183.487 131.774 185.654 145.528C185.718 145.944 185.885 146.345 186 146.761V155.072V155.088ZM158.857 131.049C150.01 130.926 142.51 139.792 142.382 150.508C142.253 161.132 149.587 170.168 158.511 170.383C167.396 170.584 175.012 161.594 175.076 150.816C175.14 140.146 167.768 131.172 158.857 131.064V131.049Z" fill="#818890"/>
<path d="M120.136 175.518C121.79 179.358 123.419 183.135 125.278 187.453C121.06 189.38 117.111 191.57 112.982 193.004C92.8782 199.973 73.7615 197.013 55.6961 184.276C54.9653 183.767 54.0037 183.536 53.1575 183.521C36.1948 183.475 19.2321 183.49 2.26941 183.49H0V118.035H54.4012V120.302C54.4012 135.166 54.414 150.03 54.3756 164.894C54.3756 166.344 54.7217 167.3 55.6833 168.179C65.1583 176.86 75.7616 181.948 87.6599 183.151C98.5965 184.245 108.956 181.855 118.829 176.15C119.201 175.935 119.598 175.78 120.149 175.503L120.136 175.518ZM10.8598 170.229H43.362V131.157H10.8598V170.229Z" fill="#818890"/>
<path d="M92.9422 71.3604C88.6983 63.2036 84.6339 55.386 80.5567 47.5531C80.1977 46.8746 79.8515 46.1962 79.4925 45.5177C77.4411 41.5858 77.4155 41.4779 73.8512 43.066C51.9907 52.7648 38.6436 71.3295 33.8996 98.7913C33.8996 98.8529 33.8355 98.9146 33.6432 99.3001C30.284 98.6371 26.8094 97.9586 23.0015 97.2185C25.1811 81.4138 30.6302 67.5981 39.2718 55.5865C47.9391 43.544 58.6193 35.0634 71.4279 30.0213C66.2096 19.9525 61.081 10.0842 55.8499 0H130.022C117.636 23.8228 105.379 47.4297 92.9294 71.3604H92.9422ZM92.9422 46.4274C98.7759 35.2022 104.443 24.2854 110.251 13.1218H75.6333C81.4285 24.2854 87.1084 35.2022 92.9422 46.4274Z" fill="#818890"/>
</svg>
